P2
12 12 255

93
78
79
91
103
109
110
107
99
86
76
83
79
84
102
120
135
142
144
141
132
116
95
78
81
102
122
133
141
153
155
147
131
123
114
91
92
117
131
120
123
146
148
117
105
107
109
108
105
130
134
120
124
139
134
94
126
125
107
120
113
137
123
110
119
139
131
92
145
141
105
126
116
134
108
91
88
119
125
92
149
145
102
126
111
122
117
130
121
94
110
88
145
143
106
126
103
113
115
131
123
98
118
92
124
129
106
120
94
110
107
104
102
124
144
124
102
103
110
112
81
101
119
126
137
150
155
150
139
131
120
94
75
80
102
122
136
144
145
143
137
123
95
69
