P2
12 12 255

97
86
75
71
73
78
79
75
67
64
69
82
88
77
77
89
107
122
126
122
107
86
69
69
79
79
93
114
134
149
154
150
136
114
87
69
73
85
104
113
118
133
145
134
117
108
98
79
72
98
116
116
107
101
112
102
108
111
105
95
77
117
128
114
101
90
96
92
126
131
112
110
80
124
132
99
77
79
96
95
136
139
114
114
77
118
129
119
112
85
82
87
130
136
113
112
72
101
118
116
113
96
96
91
108
117
108
102
67
85
107
109
109
120
136
129
110
108
105
86
67
70
95
121
138
150
157
155
143
125
98
69
74
63
69
92
117
133
139
135
121
97
68
57
