P2
12 12 255

57
82
107
126
138
144
148
146
126
82
52
56
82
110
130
141
152
160
163
152
113
65
49
64
99
109
103
98
113
145
153
118
65
38
42
78
104
97
95
88
77
99
106
64
39
39
49
98
114
95
103
123
90
60
54
31
41
53
65
111
134
101
93
110
82
47
42
27
53
88
90
107
149
109
71
58
42
41
44
35
90
142
111
98
139
108
70
59
44
32
38
48
116
159
111
84
128
96
66
62
45
36
57
63
102
137
96
81
110
79
52
41
39
71
116
100
71
73
69
88
81
66
45
40
73
127
158
150
114
91
101
113
62
63
58
76
122
154
163
161
152
143
130
106
