P2
12 12 255

109
101
100
95
81
77
66
84
104
105
100
103
105
98
97
83
81
108
99
70
93
104
100
101
101
96
92
77
97
138
142
91
77
101
100
98
98
96
84
82
122
156
164
130
77
91
101
99
98
92
77
99
141
150
156
152
106
79
102
101
102
85
81
123
140
105
104
144
137
84
91
104
99
75
97
141
130
62
44
122
155
114
74
100
86
73
119
146
122
48
26
99
146
134
81
81
69
91
133
128
96
42
21
74
119
144
115
63
64
118
156
160
133
56
35
101
153
163
145
78
83
141
165
168
144
91
83
119
161
168
159
116
110
151
164
165
150
140
145
138
161
164
159
135
