P2
12 12 255

85
81
82
99
122
138
139
131
110
87
79
80
80
82
97
120
133
118
114
135
132
112
90
79
79
96
116
132
115
79
68
102
134
132
113
90
96
117
131
117
80
53
45
59
99
133
135
118
122
136
122
82
54
50
48
40
55
95
131
139
141
130
86
55
48
69
73
46
36
52
92
135
144
105
64
44
54
82
88
59
33
39
73
132
142
128
84
52
44
59
67
44
37
61
113
148
125
139
127
86
54
45
45
43
62
109
142
141
96
119
136
131
93
59
48
63
109
140
138
115
75
91
117
138
135
95
67
103
141
138
116
85
72
73
89
119
139
136
117
137
142
119
86
71
