P2
12 12 255

99
111
112
107
94
87
85
88
99
114
118
115
96
130
141
141
131
120
115
117
136
143
143
127
76
127
152
158
154
139
131
138
154
157
151
111
60
101
145
160
161
148
137
151
160
159
142
77
70
71
123
155
163
155
140
156
161
154
115
56
90
61
93
141
159
161
152
159
158
141
82
63
100
75
66
116
151
161
159
159
152
116
61
79
101
90
64
86
135
157
160
158
141
86
65
91
100
100
81
66
110
148
158
153
118
65
79
99
101
101
95
70
81
131
152
140
89
68
91
102
103
101
100
86
65
103
136
117
68
79
99
102
105
101
101
96
75
74
107
87
68
91
103
104
