P2
12 12 255

125
85
60
46
43
54
64
50
41
45
62
94
72
49
35
29
25
27
30
31
28
28
36
55
65
48
41
47
51
50
47
63
58
41
70
88
118
101
95
120
131
107
105
130
126
81
119
130
123
132
96
119
137
93
125
117
132
103
128
119
112
98
66
95
127
71
123
104
121
107
125
129
127
125
77
85
126
67
121
105
114
110
124
146
85
126
102
94
133
77
123
117
119
116
120
119
106
135
109
93
133
80
118
143
143
114
112
109
133
131
86
79
113
67
74
120
120
75
79
81
78
64
41
35
43
35
31
39
39
31
35
45
78
54
36
31
28
31
31
26
24
28
40
72
