P2
12 12 255

56
71
93
108
116
123
123
118
96
76
57
47
69
95
120
137
146
148
148
130
99
72
55
46
89
120
141
153
155
151
135
107
76
55
46
47
108
136
151
156
154
137
105
72
44
34
42
68
122
145
149
147
132
101
65
37
23
29
63
99
127
148
147
135
100
57
30
19
26
57
106
134
131
148
137
100
54
27
17
25
60
109
138
147
129
135
99
54
26
17
26
58
116
145
151
145
111
97
61
32
22
30
61
115
147
152
149
136
76
65
46
33
37
67
122
147
150
147
142
128
49
47
45
47
70
123
151
153
147
139
128
106
39
43
49
72
114
142
148
143
136
126
105
65
