P2
12 12 255

88
86
80
71
68
75
92
95
92
93
112
141
87
96
94
73
53
51
60
71
65
60
71
97
86
107
117
107
75
49
45
49
49
47
47
63
74
94
126
136
119
79
47
40
50
63
52
47
60
63
99
139
149
128
82
45
57
101
92
50
56
41
56
102
143
153
133
84
69
121
122
66
71
41
34
49
97
140
152
136
104
128
132
72
86
57
37
33
44
88
134
150
144
144
139
75
93
64
43
36
43
60
95
136
155
159
143
81
96
66
48
52
83
111
126
141
156
158
140
82
112
75
49
49
81
118
134
139
139
134
115
72
135
97
63
45
45
61
70
70
67
66
64
60
