P2
12 12 255

133
112
98
93
105
111
82
49
40
50
60
60
108
93
78
76
85
78
49
39
44
80
99
88
78
60
56
62
60
51
39
49
90
136
141
105
66
49
54
57
44
38
48
98
148
160
133
87
58
67
93
87
52
53
104
151
163
140
100
51
62
92
120
106
80
109
151
163
142
98
49
30
64
99
131
124
125
147
159
141
94
46
35
46
65
103
138
139
154
158
138
83
41
33
40
75
71
108
143
155
162
143
94
58
41
33
45
81
77
111
143
156
153
144
130
119
89
47
49
77
79
103
131
144
139
145
141
128
89
46
48
83
59
67
76
80
82
84
78
65
42
40
59
110
