P2
24 24 255

43
74
74
81
83
80
82
87
89
94
100
104
93
90
87
89
86
83
88
87
82
73
73
45
71
100
108
111
109
112
116
115
114
124
143
148
146
141
131
125
116
112
116
120
111
108
102
73
80
107
113
121
122
120
129
136
144
156
166
170
161
170
167
158
141
126
129
122
119
115
109
78
83
113
120
119
118
127
153
170
167
171
166
156
150
163
175
177
171
160
147
132
119
120
112
80
87
114
123
126
142
157
169
175
160
146
139
131
124
130
143
156
174
176
169
153
130
123
113
81
85
112
121
137
159
168
163
148
146
161
174
177
170
171
163
150
144
160
170
166
145
122
111
76
79
115
127
154
166
158
145
159
180
185
186
173
165
174
191
193
174
144
155
170
161
137
110
73
82
121
144
166
158
143
161
187
179
171
153
117
104
126
160
184
188
173
148
167
169
149
115
77
84
125
149
167
150
150
184
180
177
185
156
99
82
139
188
210
203
191
171
149
166
153
123
78
88
131
153
158
136
167
185
174
187
182
170
114
132
178
199
207
216
203
187
148
150
153
133
77
93
141
155
154
145
177
181
173
187
186
177
120
174
198
182
179
209
206
197
163
143
155
137
83
93
141
156
147
146
186
174
182
191
204
211
159
188
199
153
142
191
197
194
176
140
154
136
87
91
137
153
148
147
187
167
184
192
208
215
206
199
197
142
127
180
196
195
181
140
154
138
87
87
136
149
155
151
187
186
194
183
183
213
207
194
203
162
134
183
200
203
175
140
150
133
83
82
125
143
155
149
184
197
207
203
172
201
210
204
207
198
182
204
207
203
172
151
154
130
79
86
118
139
152
149
172
198
210
216
209
198
193
153
195
204
206
213
208
195
159
159
149
125
76
77
115
135
147
156
154
191
205
217
210
183
127
82
134
182
198
207
208
175
159
159
137
117
72
76
108
126
138
157
161
158
202
205
179
146
115
102
119
151
187
205
187
147
165
157
130
109
68
77
104
110
124
137
155
150
162
195
204
203
191
182
194
200
199
176
148
159
160
139
117
101
67
75
103
102
112
129
141
157
156
151
167
181
183
179
178
168
147
150
165
160
136
120
99
94
68
73
100
106
112
120
131
141
163
173
171
167
156
150
152
164
170
171
159
144
123
110
98
93
66
68
96
99
103
103
108
117
127
143
159
175
178
176
178
173
166
142
130
119
111
103
95
94
66
65
91
87
92
96
96
102
106
111
114
128
149
159
156
137
128
117
111
106
98
93
91
89
66
40
62
61
65
63
65
62
70
74
75
92
111
121
117
98
88
83
75
71
69
66
66
58
40
