P2
24 24 255

21
33
41
39
38
41
41
38
40
42
45
46
44
41
41
39
35
44
38
41
43
38
34
22
39
54
58
60
64
61
59
61
64
69
78
82
84
79
72
68
62
63
64
65
67
63
57
40
37
55
59
62
66
68
71
75
90
98
112
119
125
120
110
98
90
83
77
74
75
71
64
43
34
52
58
66
70
76
87
101
119
135
145
148
151
153
145
142
126
113
99
83
76
73
68
49
31
50
58
68
74
91
108
131
150
156
158
157
154
156
163
168
157
146
125
106
87
70
65
47
31
47
56
70
91
105
134
147
153
166
171
167
158
159
162
163
171
172
150
123
104
79
65
48
26
48
61
79
105
130
150
159
173
185
193
194
189
197
197
186
178
173
171
150
118
95
72
48
27
48
69
92
118
150
157
177
200
210
193
163
147
172
205
219
207
185
180
171
137
108
76
46
25
48
74
98
139
158
176
202
228
227
196
134
94
148
207
235
228
210
191
181
156
115
81
42
26
55
82
112
156
168
191
218
231
231
224
187
159
200
230
235
234
226
201
179
169
124
90
47
28
55
86
130
160
174
199
218
221
222
232
205
214
227
231
227
231
231
216
181
175
135
92
47
31
60
92
141
158
172
201
210
212
233
229
195
195
217
200
193
211
223
222
185
180
145
93
45
33
60
93
142
155
164
196
201
206
228
215
194
189
207
180
170
202
216
219
183
177
149
96
47
32
60
93
143
161
171
202
215
209
225
234
211
182
204
202
179
209
222
226
185
182
145
92
41
28
58
89
138
166
175
202
230
227
220
236
229
215
217
231
226
225
230
225
182
186
136
83
39
28
51
77
120
166
175
194
227
235
234
233
224
177
212
228
233
234
230
208
183
179
120
71
35
29
51
75
108
154
175
188
211
233
231
205
151
82
127
191
225
236
222
192
194
165
105
64
31
29
50
68
92
131
178
183
192
214
223
201
162
132
151
198
231
223
191
189
189
136
87
55
30
27
47
58
74
107
147
185
179
176
193
213
216
210
217
217
200
181
176
189
152
106
68
52
31
29
45
54
62
80
109
151
177
169
151
156
153
144
152
153
156
171
178
154
112
79
60
50
33
30
49
53
58
70
88
116
141
158
158
160
160
151
159
168
167
161
140
118
97
74
64
55
37
29
46
53
54
75
89
102
120
134
145
155
176
173
174
174
147
131
118
110
100
80
68
56
35
27
45
53
61
81
93
101
107
115
121
133
161
154
148
151
127
116
106
104
98
80
68
60
39
19
32
40
46
58
63
69
69
72
74
83
115
109
101
99
79
67
63
64
73
63
46
41
23
