P2
24 24 255

24
34
45
42
47
52
52
54
62
68
52
65
59
63
55
59
62
55
49
46
46
46
43
29
42
53
64
66
70
85
80
84
88
92
79
87
86
90
85
82
92
81
76
68
75
74
76
58
39
59
64
73
76
83
82
86
82
92
82
81
74
86
83
83
85
78
76
77
79
74
69
53
50
67
70
74
84
85
75
71
79
87
85
84
86
90
88
84
84
92
90
85
77
72
66
51
39
59
64
73
77
75
70
73
96
109
119
123
123
125
114
106
93
96
93
87
75
77
59
50
43
68
65
73
71
74
83
93
122
148
157
155
155
164
165
145
106
102
100
93
82
70
62
45
39
66
60
73
71
85
103
143
162
172
164
139
131
171
214
177
111
105
110
96
87
83
68
48
31
55
61
65
71
102
148
186
210
204
170
120
112
188
218
178
91
100
125
118
89
80
70
44
35
55
62
60
79
135
188
208
213
204
197
182
171
195
178
105
96
137
157
140
92
73
60
43
32
53
51
58
100
165
209
207
213
204
198
204
197
163
93
58
93
187
203
173
111
72
65
44
33
46
36
59
115
183
212
203
219
227
192
126
110
79
60
83
127
192
202
187
129
74
66
42
26
46
40
63
130
184
202
189
205
217
175
72
45
42
113
176
196
195
195
194
142
73
62
45
25
40
42
62
136
170
177
185
138
107
93
52
26
59
186
210
227
183
179
202
148
74
58
49
32
46
43
61
136
174
182
175
121
78
59
44
39
86
193
187
221
179
185
203
153
75
61
51
29
51
50
61
127
173
191
166
115
85
70
91
110
128
195
212
211
186
196
197
145
67
70
51
30
49
42
57
109
168
194
163
107
73
104
182
210
196
181
183
195
195
205
195
131
72
68
49
25
49
52
49
87
141
152
130
94
107
182
226
182
196
222
215
209
206
208
167
110
72
72
51
31
49
51
54
60
95
113
104
118
170
205
161
95
104
152
178
189
199
180
132
79
74
71
46
30
42
52
57
68
80
97
104
136
178
186
141
111
126
141
162
174
174
137
88
68
76
67
41
27
46
51
61
68
85
94
107
140
160
181
179
170
177
177
173
156
135
103
83
75
72
68
43
32
46
50
52
50
73
93
106
127
133
142
148
139
147
151
136
110
99
94
83
74
67
64
38
29
43
51
54
60
83
106
123
125
122
117
123
122
144
138
126
119
121
125
121
96
68
54
39
32
43
56
64
75
106
127
128
136
144
141
147
151
176
171
141
123
128
136
122
102
79
58
33
15
29
39
45
57
79
88
81
92
104
103
116
122
141
121
92
81
79
83
83
85
59
47
25
