P2
24 24 255

55
82
84
93
87
88
94
98
103
108
114
103
108
119
108
97
94
99
95
96
97
97
89
56
78
103
112
114
116
120
120
127
130
131
144
142
139
142
127
120
119
118
120
121
120
118
111
82
80
110
113
118
123
128
123
131
132
143
162
169
170
160
136
131
124
126
123
126
123
122
115
84
81
108
109
121
122
125
127
127
129
156
184
180
185
181
145
133
128
131
131
125
123
126
121
90
82
114
115
119
123
123
125
137
147
173
191
172
187
197
159
133
132
128
127
124
114
115
115
82
79
113
120
125
127
125
132
139
154
188
189
141
155
197
183
142
129
123
124
123
108
117
113
77
81
117
119
124
124
127
138
142
168
187
187
178
167
190
200
160
130
125
120
118
114
114
112
83
88
117
115
119
124
130
139
150
177
183
193
218
217
192
193
181
137
131
126
116
114
115
111
76
85
117
118
124
126
140
145
162
178
184
221
203
210
219
195
196
165
133
126
122
116
117
114
76
87
116
115
118
125
139
147
173
179
200
227
156
139
225
210
195
186
142
127
122
109
113
113
79
86
116
116
119
127
131
160
183
186
227
232
212
192
218
234
201
199
174
133
123
113
112
115
79
87
123
118
121
129
140
176
176
198
233
238
230
237
235
232
223
201
195
148
124
112
111
112
78
85
119
120
127
134
158
184
181
225
218
234
176
165
239
208
235
205
201
169
134
115
114
115
80
81
114
121
127
137
174
172
192
236
221
236
140
108
234
221
235
225
191
186
153
119
124
117
78
82
120
128
136
155
177
165
217
234
223
232
126
83
214
234
205
239
197
187
172
134
123
112
77
81
123
131
145
172
173
182
228
178
170
222
156
113
227
183
125
218
217
181
180
156
123
114
74
82
119
128
159
179
165
213
197
80
57
194
207
194
227
112
41
132
227
197
186
175
132
117
78
81
124
138
179
187
176
220
139
67
64
177
201
197
190
105
59
85
211
216
184
197
156
128
86
89
130
155
195
185
202
205
146
144
148
192
195
183
192
178
158
159
196
215
165
189
177
137
91
88
128
165
194
153
195
213
210
211
207
210
209
209
208
207
203
202
204
198
150
181
185
144
89
88
129
167
178
139
153
161
148
142
142
146
145
142
149
149
152
161
165
168
166
169
173
141
88
89
129
158
179
185
190
186
170
168
169
173
173
166
184
175
169
177
181
178
178
167
149
126
84
81
117
140
157
156
154
149
142
147
149
169
170
163
180
165
142
139
137
137
132
127
117
112
80
51
88
94
98
101
99
95
92
98
109
119
128
123
135
119
98
96
95
95
83
86
82
83
59
