P2
24 24 255

57
87
97
98
104
100
101
102
92
95
95
95
90
92
87
88
108
108
100
97
89
94
97
66
80
117
120
121
126
123
127
122
119
116
124
122
120
123
119
120
134
134
127
125
123
128
122
92
83
115
119
124
126
125
128
132
126
118
128
134
131
130
128
128
134
134
127
128
126
130
124
98
87
115
122
126
127
126
128
133
128
128
148
154
151
144
131
131
138
132
124
126
125
127
120
92
91
119
122
125
127
124
127
131
130
143
167
174
180
178
144
128
135
135
127
131
132
129
122
90
94
122
122
122
124
126
123
129
139
165
185
171
175
205
185
147
133
131
136
134
130
129
122
89
92
119
124
127
127
120
129
141
162
186
185
182
172
188
203
189
156
131
131
132
133
131
123
90
90
123
124
129
124
123
137
161
191
193
190
186
178
191
190
203
199
157
130
123
132
132
120
91
93
126
129
129
129
136
161
189
193
196
187
132
112
176
189
182
201
195
157
123
125
128
121
86
92
122
127
128
137
160
188
194
194
185
129
65
38
85
166
176
175
199
197
161
128
120
116
88
88
123
128
138
156
185
192
196
186
126
64
24
8
18
75
156
174
180
197
198
162
122
117
87
93
123
135
160
183
184
191
191
137
69
23
9
6
1
16
73
158
182
164
190
188
145
112
83
85
120
140
163
175
161
175
161
92
41
12
9
5
2
5
37
131
181
146
175
186
144
115
84
89
115
135
159
176
177
180
183
138
70
22
8
2
3
22
97
176
173
170
198
179
126
114
83
81
115
126
136
165
192
189
180
183
145
71
29
14
23
90
170
174
177
198
186
137
110
109
82
80
112
124
122
125
165
195
192
182
184
157
82
42
88
171
172
176
203
188
140
108
112
112
80
81
110
122
123
116
118
159
194
190
177
184
158
107
167
177
172
205
194
142
113
111
110
108
81
79
110
115
118
115
109
120
157
194
196
180
186
173
176
171
205
196
147
113
114
115
106
104
78
80
108
112
113
120
117
112
118
155
199
199
169
145
161
197
201
153
116
115
117
112
110
104
78
74
107
109
114
115
118
114
111
115
151
201
201
166
193
203
161
119
121
125
120
117
106
107
79
75
104
110
112
118
117
121
121
124
125
160
193
196
195
173
132
121
128
125
120
114
111
107
85
81
105
109
108
111
112
118
120
131
139
141
168
175
163
148
135
127
131
122
117
116
112
106
82
72
102
103
104
111
113
117
125
131
141
146
153
152
148
152
144
136
133
122
115
109
107
98
73
50
76
77
83
87
92
93
99
105
106
119
126
117
112
119
112
104
107
99
86
82
83
68
46
