P2
24 24 255

51
74
74
83
83
82
81
82
79
85
97
96
85
91
90
86
88
90
85
87
83
83
77
46
69
99
101
105
110
109
107
112
111
108
125
122
112
120
121
122
120
119
113
119
116
113
102
74
76
109
119
130
134
137
135
145
142
139
146
152
138
144
149
149
145
146
144
147
146
140
119
79
72
113
149
159
161
162
160
164
160
157
164
169
161
166
162
153
151
154
156
162
159
165
135
81
75
128
173
170
155
158
157
155
147
144
146
157
154
151
147
141
143
146
150
140
157
185
147
83
74
124
172
173
140
159
186
189
185
183
182
183
186
193
194
191
193
195
189
140
178
195
141
81
75
114
156
190
162
167
211
187
168
165
163
158
156
155
150
146
145
194
202
159
198
185
122
79
78
107
133
187
193
165
215
184
109
91
87
86
82
78
73
68
99
217
198
174
203
158
115
80
70
106
117
160
198
170
199
225
98
36
29
30
30
27
24
27
141
232
172
188
187
132
116
79
69
109
112
130
176
186
165
226
171
34
6
8
8
8
5
47
211
214
162
196
162
127
118
79
73
99
104
112
150
187
161
194
229
98
11
7
11
9
10
130
233
172
170
182
138
122
108
75
73
102
106
113
128
170
181
157
222
189
40
7
9
8
43
205
215
157
180
152
126
117
102
74
71
102
103
112
118
144
178
159
184
232
122
14
3
9
124
233
177
166
173
134
124
112
98
71
71
100
105
104
113
121
158
179
160
217
207
55
5
44
197
218
159
179
158
129
123
112
103
77
77
102
108
107
111
115
136
181
178
181
231
138
29
112
228
180
175
181
140
126
117
112
106
73
72
106
111
109
109
114
117
153
187
171
213
215
103
193
217
168
188
155
125
120
111
108
101
70
71
100
106
102
102
111
112
127
174
183
182
228
197
225
188
183
182
139
125
115
115
109
102
69
67
99
100
98
101
107
109
116
153
189
182
201
222
216
181
191
163
135
121
111
108
104
95
66
70
99
100
102
103
102
110
116
130
169
189
175
159
168
184
179
140
128
112
106
105
99
96
66
74
100
103
102
104
103
106
112
120
141
182
180
133
156
192
166
126
117
107
102
104
99
92
63
69
95
100
103
106
104
109
106
115
124
159
183
153
168
183
150
124
118
108
102
104
102
92
65
72
99
105
102
102
96
104
107
114
113
142
168
161
162
164
140
122
113
102
96
95
100
97
67
60
91
98
99
97
95
105
105
109
111
130
154
150
146
142
132
111
104
107
97
92
92
89
61
36
64
74
73
67
72
79
80
83
90
96
114
114
110
101
93
82
76
78
77
77
71
66
39
