P2
24 24 255

55
79
79
85
98
102
103
102
98
100
90
94
102
97
80
79
73
85
80
80
72
65
69
45
76
98
93
107
118
120
127
134
131
132
131
136
139
137
129
137
120
107
108
108
100
98
100
64
75
98
101
110
113
105
141
179
191
190
198
193
191
186
192
199
180
146
112
110
110
104
98
70
82
104
104
126
113
130
182
210
217
213
215
211
211
215
208
211
207
192
147
115
109
112
93
69
76
107
117
115
123
174
213
220
191
149
132
127
125
117
115
166
214
218
198
159
112
102
109
78
83
115
112
121
176
207
224
192
102
59
46
42
40
41
46
69
148
215
220
198
164
109
101
82
85
109
118
162
212
225
204
105
49
22
8
5
9
13
13
29
67
144
213
222
198
160
105
77
83
107
154
203
224
211
115
56
21
7
4
7
11
14
13
12
42
82
142
211
224
194
136
81
81
122
194
218
213
176
147
108
115
156
168
159
138
178
176
101
169
199
212
190
220
208
152
90
78
134
193
218
204
233
229
225
229
234
230
239
239
229
233
225
237
223
233
222
216
217
156
87
78
120
191
215
219
230
223
228
226
232
226
220
231
208
213
220
218
199
222
233
214
219
156
81
78
116
193
219
215
228
230
216
149
228
241
201
234
216
218
213
211
184
221
236
215
218
166
90
90
122
185
213
188
217
228
232
181
222
241
198
236
218
217
211
211
199
237
196
209
218
173
96
88
126
185
210
169
186
221
229
222
241
239
210
240
216
215
210
206
234
164
93
191
216
180
94
84
115
180
214
213
223
228
220
225
244
239
212
241
192
198
223
222
241
108
49
190
215
184
98
80
113
178
213
207
235
239
241
211
223
240
180
221
245
244
210
213
211
90
88
207
218
187
91
82
113
183
215
211
194
195
171
82
69
110
57
31
100
104
49
45
60
82
195
226
213
165
83
87
102
159
203
223
217
141
66
25
5
8
14
11
1
0
0
12
60
196
228
228
179
114
83
87
106
110
171
207
220
214
152
70
22
15
28
27
19
6
12
57
187
222
226
183
128
96
69
76
110
115
112
166
199
216
220
152
80
61
61
63
67
57
68
175
219
220
183
133
109
103
76
75
98
118
120
113
156
198
213
219
204
197
201
204
210
208
212
219
223
188
128
111
113
97
77
76
98
102
116
111
99
154
192
213
221
219
216
211
208
215
214
209
195
130
107
107
112
94
76
71
99
108
105
113
113
115
145
176
188
195
198
186
184
186
174
162
137
107
109
97
107
95
71
55
86
84
84
72
87
90
88
90
103
118
124
105
122
122
108
99
87
84
83
77
88
72
48
