P2
24 24 255

34
45
42
44
47
49
45
50
57
63
63
65
64
60
58
53
47
52
58
53
48
58
52
36
44
64
62
63
70
67
64
67
72
83
92
90
86
86
81
77
69
77
75
72
73
78
75
54
50
69
71
71
79
78
82
85
94
103
111
110
105
106
102
100
88
84
92
84
85
88
81
50
43
68
75
74
83
89
96
95
99
105
112
103
105
109
112
107
106
101
105
89
78
86
78
47
44
74
86
80
88
97
102
109
115
123
121
108
95
112
129
128
122
125
112
98
73
87
82
49
41
67
81
86
96
103
107
122
129
127
114
100
96
107
126
139
141
130
133
116
92
92
82
49
41
59
80
93
100
98
107
128
123
111
92
85
84
88
104
116
123
124
128
126
115
100
80
52
41
56
84
104
103
111
120
120
111
86
71
61
62
77
88
88
93
110
126
131
131
113
74
49
41
56
80
105
111
119
126
104
87
57
39
47
73
73
59
56
72
96
115
142
147
121
84
48
38
61
74
90
113
135
115
80
57
35
44
67
69
55
40
29
64
95
103
143
147
129
92
47
36
64
81
80
111
136
111
64
42
51
77
76
54
31
18
37
69
84
104
141
146
133
103
54
41
67
83
74
101
128
105
54
54
80
90
61
26
11
25
61
82
75
92
129
137
124
105
52
42
70
86
71
97
120
106
76
81
87
59
24
10
15
59
89
72
59
81
120
136
128
99
49
38
67
91
82
103
130
119
108
95
56
24
18
19
57
91
73
35
50
83
128
143
124
96
48
50
72
90
87
107
133
127
115
79
27
17
33
65
92
80
36
30
59
101
137
142
122
90
48
50
69
83
92
101
118
118
107
74
42
32
69
91
71
42
31
43
77
126
140
129
110
93
50
45
67
77
90
94
105
110
106
82
68
83
91
56
34
27
40
67
112
143
129
123
115
93
50
50
67
79
96
107
107
111
122
111
105
100
72
46
40
37
69
114
139
139
128
116
100
82
46
48
67
74
93
109
119
120
125
132
134
112
89
74
71
94
126
151
137
128
120
105
82
69
41
47
62
68
85
103
119
124
127
124
126
130
125
112
115
134
146
131
116
117
110
88
71
64
41
47
60
62
71
87
96
106
114
116
117
125
121
118
119
125
118
118
106
106
89
77
75
61
49
52
65
75
76
77
70
87
100
109
112
125
132
115
107
107
99
94
87
79
73
65
69
59
39
48
65
69
65
63
58
65
77
88
98
111
121
99
89
92
77
57
52
55
57
56
58
46
30
29
45
52
44
41
39
47
49
50
56
70
90
77
71
65
47
36
32
33
43
40
45
33
16
