P2
24 24 255

40
63
63
63
68
65
60
62
68
67
71
80
86
83
72
71
72
71
74
71
73
75
76
53
54
77
81
82
85
81
82
86
89
91
97
110
126
124
108
96
94
91
97
93
94
97
98
71
62
85
85
83
87
86
91
100
118
132
144
156
165
163
153
140
124
110
97
97
99
100
99
72
67
86
88
90
92
99
115
141
166
177
182
185
186
192
191
183
173
150
124
103
94
98
100
77
74
94
97
99
107
130
158
177
191
186
174
166
154
167
182
196
201
185
159
132
104
100
97
73
68
88
90
103
128
158
183
190
172
143
131
116
105
110
129
151
180
205
194
168
133
105
99
76
63
85
88
114
155
181
185
185
162
115
80
66
56
59
76
92
122
160
198
195
161
122
100
72
67
89
102
134
171
182
190
186
175
143
76
40
31
29
41
52
73
113
163
203
184
147
112
76
69
89
113
147
181
170
184
189
168
176
144
65
31
26
30
38
44
69
121
180
196
169
128
80
74
98
124
164
178
152
144
187
178
155
179
157
67
28
66
108
93
53
79
149
193
181
135
81
71
98
135
169
167
127
95
120
183
177
141
182
168
70
114
178
163
100
59
122
178
186
136
80
72
105
140
167
152
108
66
48
109
194
176
129
187
183
156
198
174
148
52
108
170
184
148
82
77
108
141
161
143
100
51
16
21
101
198
183
125
184
194
182
163
167
56
98
165
185
147
88
74
106
139
164
150
102
53
16
6
14
89
200
189
122
131
121
145
175
64
105
176
188
148
89
77
109
138
167
161
114
64
23
13
24
70
137
195
148
61
45
130
180
82
126
185
188
148
88
78
105
130
165
172
134
87
45
23
72
157
200
193
144
65
60
147
185
107
155
193
177
129
86
80
106
124
152
177
155
107
65
35
71
155
176
174
163
152
159
189
179
133
186
194
161
114
88
77
100
110
135
161
170
138
98
60
45
93
148
170
173
169
165
163
157
163
189
174
127
108
89
76
97
105
118
141
168
170
145
111
74
53
43
39
42
58
84
118
160
185
176
140
101
108
87
80
97
98
103
117
151
179
178
163
136
118
98
84
89
113
147
181
194
178
153
115
109
112
86
80
99
101
104
108
125
158
177
187
183
179
168
154
165
191
197
195
181
156
125
102
104
105
86
73
95
97
103
106
116
132
147
162
171
179
190
179
183
185
179
169
143
123
117
110
101
99
82
78
102
106
107
110
118
127
128
133
141
149
168
165
171
164
144
136
123
118
122
113
105
106
88
60
79
81
81
88
93
96
93
93
86
91
120
132
140
121
104
95
86
82
91
86
75
76
56
