P2
24 24 255

67
111
104
110
107
101
104
111
107
94
110
107
107
120
101
93
96
91
92
92
95
98
89
49
88
125
125
133
131
134
141
140
135
139
159
167
177
177
142
121
123
119
116
120
116
124
116
89
93
129
124
135
144
138
149
157
165
175
178
183
179
184
190
183
173
136
135
132
126
123
128
106
103
132
129
150
143
154
175
180
187
172
172
165
150
158
172
190
186
193
178
141
129
122
132
105
98
142
128
147
168
187
199
172
157
136
132
128
122
119
125
135
156
185
204
183
144
128
134
94
105
135
139
157
174
187
181
144
129
107
108
111
98
94
95
109
124
146
187
188
149
135
132
104
92
145
151
169
172
172
152
132
103
81
58
51
46
61
67
119
133
143
138
171
155
146
141
113
106
163
175
184
168
155
132
113
86
79
56
36
33
56
110
172
178
183
152
145
184
171
156
127
104
161
175
180
174
138
101
73
86
91
69
43
47
126
188
197
207
193
152
135
192
188
156
113
97
140
175
178
163
119
86
76
95
101
72
70
129
194
192
171
199
160
139
116
183
198
178
115
84
143
158
181
147
101
110
138
175
181
99
146
191
188
162
198
176
132
84
98
175
179
183
116
82
149
176
193
144
98
122
153
192
205
200
194
174
151
194
176
113
49
48
82
156
163
176
114
89
150
173
187
142
97
124
141
168
196
202
172
144
199
188
107
19
26
49
64
144
174
181
112
77
143
169
186
145
116
133
136
142
130
134
159
214
188
92
18
6
29
52
63
141
173
176
106
81
143
178
206
158
139
141
138
105
89
94
164
207
151
85
38
15
32
52
95
157
164
174
126
92
147
182
205
163
172
164
137
101
98
119
175
224
219
172
82
45
64
72
145
189
178
150
108
80
127
157
190
186
187
192
185
150
166
175
174
167
196
178
82
62
85
108
172
190
181
123
67
67
101
113
175
189
182
162
175
163
165
171
157
154
150
104
60
73
113
174
190
188
160
109
76
79
99
99
156
189
168
158
133
101
73
49
32
24
27
40
73
121
172
190
194
172
133
119
96
85
110
104
130
175
174
179
178
149
125
114
98
82
85
111
155
188
190
190
167
126
113
95
84
79
113
109
110
120
159
196
208
208
196
176
162
151
154
183
199
197
196
182
130
95
104
113
84
74
105
92
98
124
136
175
195
188
172
187
196
188
173
189
195
175
160
138
110
86
83
111
86
79
107
95
114
113
117
125
132
146
156
171
180
168
150
165
165
162
147
135
130
95
77
95
76
68
83
72
97
79
85
76
79
87
73
96
107
107
92
103
89
108
115
118
109
63
56
64
45
