P2
24 24 255

21
42
47
48
51
47
44
42
51
58
60
69
69
64
57
58
59
59
63
56
58
58
56
34
35
59
61
63
67
69
69
76
76
83
80
90
92
92
83
84
92
85
85
78
83
82
82
57
41
64
69
70
72
77
82
80
77
84
86
97
111
105
96
89
96
96
92
91
88
87
81
58
47
68
71
78
80
84
82
80
100
128
145
154
160
157
144
120
104
89
82
84
81
77
75
51
49
68
75
82
86
81
86
112
153
185
199
194
195
203
200
187
158
124
85
82
80
85
73
46
43
63
71
78
83
87
122
168
200
203
197
176
158
167
190
199
203
179
139
99
85
82
77
51
45
69
71
72
87
121
164
202
199
164
129
95
82
95
126
147
170
186
180
149
96
87
75
49
42
64
70
75
106
159
195
205
184
150
93
57
47
56
64
82
115
160
187
179
122
87
78
54
44
64
75
86
138
189
198
193
175
173
133
75
48
46
42
41
69
120
181
195
154
101
85
60
46
68
73
106
170
202
179
180
182
166
173
150
76
41
66
84
69
86
145
194
178
118
85
62
42
65
72
124
186
196
148
115
181
195
149
170
153
70
106
155
149
79
115
187
192
139
71
51
49
64
76
137
189
182
121
73
109
187
180
133
176
159
156
201
192
114
96
174
196
152
90
56
47
67
81
137
184
171
104
51
41
83
176
179
117
178
202
184
181
137
84
169
192
153
97
64
47
69
82
135
183
168
107
48
25
24
64
172
184
120
129
113
166
149
90
175
196
153
95
56
48
76
89
139
185
177
126
55
29
29
73
141
200
151
67
64
162
161
111
187
195
153
99
66
52
70
85
122
182
193
158
87
38
47
122
187
197
145
82
87
172
172
146
200
185
135
89
62
55
76
87
104
160
194
175
126
61
46
130
187
190
190
180
181
190
168
182
205
173
111
87
64
54
79
87
90
121
169
184
162
117
77
69
107
128
134
137
142
160
174
196
186
129
79
79
59
56
76
84
83
88
127
173
191
178
145
97
59
48
60
90
135
179
203
178
133
88
73
82
58
54
66
67
72
74
92
140
175
200
198
184
161
140
148
177
202
203
186
135
100
83
90
90
61
49
65
61
71
76
83
107
131
161
178
196
198
187
195
200
185
166
137
107
94
82
81
80
57
51
67
72
75
79
86
108
112
114
122
129
159
164
163
153
131
116
108
105
101
92
79
72
55
59
78
87
85
86
98
114
117
117
105
102
121
137
148
140
116
117
113
109
107
90
79
79
57
40
55
61
61
63
73
74
72
81
75
77
95
112
120
103
87
95
77
73
70
60
55
51
30
