P2
24 24 255

21
33
36
38
42
42
36
43
45
44
45
49
47
45
37
33
43
40
33
34
33
34
32
20
32
49
51
52
59
55
56
57
59
64
69
69
67
65
58
54
59
58
50
49
50
52
50
34
31
49
49
50
49
53
54
58
59
63
75
83
79
69
68
64
63
59
57
52
56
53
51
40
32
45
50
50
48
49
51
59
64
63
80
90
93
74
72
75
67
66
59
58
58
55
48
32
32
43
48
51
50
50
53
63
63
73
104
126
124
112
78
69
72
72
66
63
58
53
42
31
32
46
47
52
50
54
63
59
69
107
143
144
140
155
131
89
76
79
82
69
62
54
44
30
29
43
45
51
54
60
65
74
112
148
159
155
141
149
170
142
96
82
85
80
65
56
50
35
31
40
46
54
62
64
74
117
163
172
176
164
153
167
177
174
136
101
79
71
71
62
45
32
27
40
49
56
56
69
111
161
173
173
174
142
127
170
169
143
161
144
104
74
70
64
48
30
24
41
48
52
56
91
148
165
176
164
134
106
92
112
137
137
151
182
153
108
69
57
50
28
24
41
48
50
75
131
163
168
175
151
115
78
67
67
97
143
166
169
167
150
90
61
53
32
28
46
48
65
105
147
166
166
148
136
105
63
50
53
73
121
172
174
143
161
126
73
51
34
25
43
54
73
112
133
149
154
125
112
89
49
38
49
82
107
158
170
133
156
139
75
51
35
28
42
52
66
114
145
148
170
151
108
86
60
40
67
107
135
171
162
150
167
115
64
55
38
27
42
50
53
85
136
159
164
164
139
108
85
79
96
141
174
158
156
172
141
81
54
56
42
25
42
48
50
57
97
148
168
151
152
149
136
113
131
167
155
153
176
151
102
68
59
56
34
24
37
48
52
56
64
99
144
157
147
174
178
137
160
161
151
178
160
117
85
67
61
53
35
27
39
44
48
55
62
76
94
140
171
169
167
158
155
151
170
150
119
88
77
67
57
49
34
29
43
48
51
57
66
74
77
100
153
174
148
135
144
170
150
113
93
82
68
59
57
46
28
27
42
45
52
53
58
68
75
79
99
147
169
151
166
161
116
87
78
78
67
59
53
47
30
28
41
44
50
50
57
62
72
84
80
101
146
159
153
122
89
79
80
79
71
64
56
48
29
32
42
44
48
54
60
62
71
92
98
97
120
140
137
115
95
85
83
82
78
67
53
47
34
30
41
42
45
52
58
64
71
87
97
106
120
127
126
123
100
83
78
72
70
60
50
43
29
16
28
29
33
33
40
45
53
59
66
75
93
100
94
89
74
60
55
51
47
45
34
28
17
