P2
24 24 255

44
74
81
86
82
85
87
87
86
93
98
102
98
88
86
87
79
83
84
83
85
79
72
45
74
108
119
117
118
125
124
119
114
127
155
164
165
150
134
126
114
115
117
122
124
114
107
73
87
118
120
128
134
127
131
142
163
174
187
185
182
193
189
176
155
130
131
129
132
124
116
83
87
116
126
134
131
138
168
191
194
189
186
167
156
173
193
209
202
184
160
134
125
125
118
84
83
117
126
129
143
174
195
189
166
136
114
102
96
104
124
153
188
205
186
162
133
125
116
85
78
112
122
140
177
188
170
133
114
143
173
190
191
183
161
125
120
163
191
183
169
131
115
85
77
117
128
165
185
171
129
129
182
210
196
170
163
184
208
205
169
113
154
188
183
150
117
80
77
119
149
185
181
144
135
194
192
151
107
64
54
78
135
188
214
179
122
163
189
169
124
84
81
125
164
183
161
131
193
199
180
200
183
93
52
159
215
231
225
214
177
138
177
178
135
78
83
134
166
172
147
160
202
177
200
226
220
162
165
223
240
239
232
220
210
143
159
182
146
82
83
138
164
175
147
192
192
166
211
214
216
153
217
234
208
208
233
220
219
169
146
182
151
87
89
148
169
175
137
204
174
187
227
233
238
181
220
227
173
158
222
212
209
187
145
182
157
90
83
138
166
173
140
201
165
199
225
231
237
232
224
222
164
142
214
212
208
190
141
183
151
87
79
136
162
181
146
201
196
210
220
199
239
229
220
230
176
140
216
211
214
181
146
179
152
80
71
126
149
177
153
194
212
226
230
192
235
234
228
234
232
216
236
220
220
169
162
180
141
76
72
112
145
173
174
170
217
231
236
242
242
232
166
232
241
242
235
220
216
146
179
168
128
73
63
103
135
165
187
157
203
221
224
224
202
110
41
122
197
215
216
226
178
163
183
151
112
63
60
100
122
154
183
180
143
203
217
160
101
56
47
59
107
181
221
182
139
184
173
134
100
60
62
90
103
132
161
195
171
136
188
217
221
204
195
207
219
219
165
131
187
190
147
115
96
62
60
92
95
115
137
166
196
183
139
137
170
184
188
180
158
121
153
200
198
157
120
101
86
63
60
94
100
102
116
136
165
193
200
183
155
132
123
139
167
193
203
188
155
124
103
96
87
61
59
86
90
96
107
115
128
146
166
189
200
196
194
202
201
193
165
140
123
116
105
98
84
59
52
75
83
93
103
110
114
121
125
136
157
181
186
179
155
146
131
124
115
113
101
96
86
62
33
56
63
67
73
77
73
81
85
89
104
132
137
129
102
97
89
77
68
73
72
68
57
34
