P2
24 24 255

18
26
34
32
33
34
34
35
37
40
42
40
36
35
35
34
31
37
37
36
35
32
29
18
30
42
47
50
51
51
50
50
57
61
65
67
72
66
60
61
55
55
56
57
57
56
48
33
28
47
47
49
50
55
63
59
68
84
99
112
114
107
91
83
76
73
69
62
61
60
50
33
26
44
49
53
57
66
70
82
99
124
139
144
149
153
142
128
111
94
83
71
65
61
56
41
34
48
53
64
67
78
92
119
150
166
176
173
173
179
185
176
157
136
112
92
79
64
57
41
34
48
51
63
81
95
132
162
177
171
160
153
144
145
157
177
193
175
145
111
86
73
59
38
30
48
62
75
95
128
170
176
157
152
169
178
176
176
166
157
167
186
180
140
107
83
68
42
30
51
68
86
110
157
176
158
166
186
185
158
145
163
192
199
172
168
192
180
130
97
73
43
27
49
70
93
141
182
170
176
195
184
150
95
60
107
169
204
210
185
178
197
154
106
76
43
32
57
78
111
168
184
178
201
205
200
208
163
139
193
221
221
222
218
184
188
177
121
86
48
35
59
84
132
180
171
184
212
199
217
226
192
210
224
229
226
217
222
206
181
191
136
92
50
34
57
88
142
184
162
199
199
197
229
229
186
195
216
197
192
201
211
218
180
199
148
87
48
32
59
87
141
182
159
200
192
203
230
211
198
194
212
177
174
194
208
219
182
191
148
90
49
34
59
88
141
183
165
198
209
205
226
234
214
188
209
205
179
203
213
218
182
197
146
85
48
34
57
86
135
182
174
193
226
220
222
233
229
220
221
234
221
215
219
212
185
197
138
80
39
34
55
74
121
172
181
185
222
227
219
223
221
164
208
224
219
223
219
193
193
188
120
71
36
32
58
72
103
154
188
181
196
218
203
174
118
54
90
159
199
218
205
181
199
166
105
68
37
37
58
69
86
125
180
193
171
187
208
189
149
121
139
180
205
194
162
189
192
134
86
63
38
32
51
55
65
95
139
188
187
156
162
188
201
199
202
190
162
155
177
190
151
102
69
56
31
30
48
53
58
69
97
142
179
181
154
147
138
130
137
142
157
174
179
148
103
74
59
52
36
34
49
57
53
60
77
102
136
157
162
165
166
159
159
169
168
157
127
107
85
75
62
55
39
32
43
54
53
65
81
95
114
128
139
153
171
169
167
170
140
123
112
107
90
71
60
55
35
29
47
50
54
70
82
91
95
102
112
127
149
147
144
145
117
105
99
93
87
71
63
56
41
19
34
37
40
51
56
63
57
58
61
73
99
93
90
92
59
57
53
58
62
55
44
37
21
