P2
24 24 255

37
56
62
69
70
70
72
70
64
70
86
76
71
79
79
72
78
76
69
74
65
65
62
36
62
85
91
94
96
105
103
99
98
98
109
105
96
109
106
107
108
106
98
109
104
96
91
67
73
95
107
122
129
128
130
129
131
128
128
138
122
131
138
137
142
144
140
141
139
131
110
72
67
102
134
153
151
155
157
160
157
153
160
162
156
160
161
161
158
159
156
158
149
151
135
75
70
110
160
158
145
148
155
152
142
143
143
144
143
148
141
140
146
146
148
130
142
165
132
75
60
102
152
153
121
143
170
173
169
172
171
173
173
179
181
179
177
178
167
129
147
166
116
67
57
88
128
164
140
151
183
167
160
151
149
147
142
143
146
141
139
162
173
135
172
153
97
66
57
85
108
156
161
132
181
155
109
100
97
88
89
90
89
89
99
182
164
144
177
128
96
65
58
84
94
130
166
141
173
184
90
69
54
48
49
57
59
61
126
200
144
163
150
106
87
57
56
81
86
106
151
165
136
197
137
55
40
37
32
37
45
61
183
183
148
175
123
94
86
57
54
75
81
90
126
167
145
167
188
75
40
32
29
33
37
104
198
144
159
169
110
91
77
51
48
72
82
96
109
147
168
129
179
142
48
28
27
24
40
164
171
141
166
140
111
83
68
45
42
63
72
85
93
122
167
143
138
182
78
27
21
23
86
183
134
156
152
121
105
76
62
43
44
64
75
77
93
103
147
171
130
166
145
39
18
42
151
174
141
164
145
126
104
73
64
40
41
61
66
75
86
106
121
167
163
139
175
90
31
85
188
153
156
165
130
116
85
71
63
43
41
62
67
69
75
101
111
137
176
150
172
160
68
156
184
147
176
143
116
105
76
66
60
39
38
58
57
57
65
83
100
117
161
167
159
191
147
187
164
169
174
126
109
89
74
66
61
37
33
55
59
58
60
66
79
103
133
176
174
184
201
195
167
182
142
114
94
71
68
61
57
36
36
53
56
53
59
60
70
87
110
158
183
159
155
151
180
171
121
101
74
60
61
58
54
33
37
55
55
52
60
64
62
67
84
118
178
171
130
156
187
145
91
75
60
59
59
57
47
32
36
50
54
53
57
54
64
68
74
91
138
174
150
158
155
110
77
69
58
55
53
54
46
28
37
54
56
51
56
54
61
69
75
85
120
155
157
143
132
107
78
73
62
56
49
51
48
32
32
48
53
52
48
53
63
67
70
79
100
127
135
119
117
95
74
66
67
56
47
46
46
26
17
32
38
35
34
43
52
52
52
60
68
86
97
82
76
64
51
50
49
44
33
33
34
14
