P2
24 24 255

71
106
108
110
114
112
115
114
109
110
106
107
98
101
105
107
116
117
118
118
113
108
108
69
94
137
140
146
146
143
147
145
141
139
141
134
134
136
144
145
148
148
148
145
147
146
143
105
99
141
142
149
150
152
155
160
154
147
146
149
148
148
151
156
155
148
152
153
154
153
145
108
102
137
148
156
161
159
160
163
157
159
160
164
160
158
154
153
159
154
156
158
159
160
151
110
105
148
159
163
160
157
156
159
154
157
159
158
164
161
151
148
152
153
154
154
164
170
159
111
108
149
163
161
153
152
165
166
168
171
164
155
160
183
181
170
173
171
169
153
168
174
157
109
110
147
158
170
160
157
173
173
169
166
161
163
161
163
171
168
158
166
176
162
178
171
153
106
108
148
151
173
167
154
183
177
148
135
132
132
132
131
125
132
140
176
168
167
174
159
150
106
103
148
151
162
171
166
182
186
134
113
111
82
77
108
105
97
145
192
165
167
172
151
148
107
104
149
150
153
168
178
168
187
163
109
80
50
39
60
87
100
163
189
173
177
167
153
149
109
107
146
145
150
162
184
165
180
187
109
57
37
33
31
47
122
185
167
174
180
168
150
145
106
111
148
151
158
165
171
176
166
165
127
53
31
25
23
38
120
173
165
163
165
165
155
144
100
108
146
156
165
159
155
171
157
126
128
75
30
17
25
64
124
137
167
156
154
166
158
141
101
107
143
156
161
161
155
167
173
137
127
106
37
20
38
102
140
155
164
154
167
168
148
135
105
109
150
157
155
163
169
162
174
166
139
130
75
38
70
141
159
166
155
169
174
153
140
137
98
105
150
155
152
154
165
166
165
162
163
164
128
68
126
178
163
162
169
168
158
142
139
137
95
105
148
153
150
150
152
161
162
162
153
168
173
131
173
167
148
175
176
155
143
142
139
132
94
98
146
146
147
146
147
155
154
168
168
166
176
177
173
154
173
179
166
151
145
141
136
128
95
101
142
144
147
145
145
149
149
159
177
171
148
135
140
165
181
164
151
148
144
137
136
134
98
104
143
145
149
145
144
146
148
148
164
187
181
145
163
189
174
155
153
150
144
142
135
136
95
99
140
143
150
148
143
145
143
145
144
166
181
171
175
175
156
149
149
145
143
141
136
133
102
97
140
143
141
140
138
144
144
146
144
154
168
160
162
163
157
154
152
143
139
141
138
135
99
91
133
134
138
140
136
140
142
143
144
155
160
146
152
153
156
151
151
148
141
138
133
123
91
59
95
96
105
99
102
105
107
110
109
112
123
111
117
114
114
106
116
111
106
107
99
91
57
