P2
24 24 255

58
85
79
87
107
106
110
101
88
92
80
85
93
93
78
77
72
86
84
79
66
60
70
42
78
99
93
110
123
126
128
128
126
123
124
134
138
131
124
131
113
104
112
110
98
94
96
65
72
98
110
119
120
107
122
180
193
201
209
205
202
193
198
205
176
134
106
113
115
101
92
70
81
109
115
133
111
114
176
209
219
220
223
217
213
217
209
215
209
190
136
112
116
116
98
66
74
111
122
119
106
168
211
216
175
137
125
115
113
104
98
141
205
211
200
147
107
111
116
79
80
118
110
112
163
206
219
163
74
32
25
21
19
20
24
42
114
205
213
202
152
101
111
89
80
112
112
149
208
226
177
74
23
8
2
1
5
12
9
14
42
115
205
217
202
149
101
76
80
102
138
206
230
187
84
24
4
5
5
7
14
16
16
13
28
57
111
202
221
201
133
83
76
114
189
230
196
141
129
91
102
168
184
159
122
193
189
88
168
207
203
149
221
213
158
88
78
126
201
223
172
228
231
230
233
241
234
243
242
237
238
230
243
232
239
216
219
225
159
83
77
119
206
221
220
235
229
230
232
239
231
219
240
214
223
227
227
211
230
234
219
226
158
77
74
113
201
224
220
236
232
229
134
228
243
194
240
225
229
221
223
205
230
240
217
224
168
90
95
121
195
222
169
223
242
238
166
228
244
192
241
225
224
218
220
206
238
175
206
224
178
98
87
126
195
223
150
185
225
238
224
241
244
203
242
227
230
220
220
240
148
72
189
227
186
99
87
115
190
222
214
225
230
230
226
243
241
204
242
207
214
234
231
245
107
29
183
220
190
105
82
108
192
223
192
241
244
244
198
224
246
172
212
244
246
185
209
218
71
59
202
220
192
91
80
108
189
222
204
161
186
158
58
53
125
50
29
98
106
39
42
55
51
175
226
205
154
81
84
99
147
199
225
204
105
45
13
5
8
20
13
2
1
1
2
36
160
223
219
159
106
86
85
109
105
148
204
220
205
123
45
6
11
24
26
13
4
2
32
141
222
222
173
125
101
72
71
107
113
105
151
209
218
211
123
56
40
39
41
45
36
42
129
222
223
172
124
109
110
80
71
98
120
119
107
141
197
212
215
193
195
199
201
207
208
212
224
226
179
122
115
109
103
79
73
93
102
116
111
95
144
197
216
222
224
222
212
207
217
219
210
187
123
112
111
111
99
76
70
101
105
102
112
118
112
134
181
196
197
198
182
193
195
171
164
121
105
111
104
108
102
70
54
84
85
81
71
89
99
78
85
100
117
125
102
120
119
101
94
82
85
82
73
91
69
47
