P2
24 24 255

51
77
70
78
78
73
74
81
81
74
75
85
94
95
83
79
77
76
73
71
82
81
81
54
66
93
94
102
97
90
94
97
96
101
112
132
158
156
123
101
93
92
96
100
100
104
104
77
71
98
98
101
106
94
101
119
141
161
186
198
200
200
195
177
143
107
97
102
99
102
100
78
78
98
96
102
105
110
136
179
196
198
197
194
187
190
206
219
212
188
144
108
102
107
111
87
87
106
105
111
120
160
199
202
190
160
137
122
105
115
141
168
196
213
207
161
117
104
108
84
85
108
104
117
152
195
202
169
122
76
66
63
57
60
63
86
126
175
212
202
158
114
113
85
80
108
107
143
191
200
161
143
111
53
37
38
34
36
36
53
70
106
170
207
189
140
115
83
86
120
135
178
202
168
159
160
149
118
53
30
28
28
42
57
54
81
119
188
207
179
122
86
90
120
149
191
195
138
161
168
135
166
142
52
28
42
68
79
60
51
75
144
206
203
147
87
95
131
169
195
167
97
100
180
160
127
168
150
63
58
100
148
139
57
47
101
185
203
166
88
87
133
178
193
142
65
56
125
195
167
111
189
193
77
118
211
193
129
26
65
163
200
179
93
86
139
185
182
121
48
41
58
130
212
170
111
194
189
148
207
155
162
28
51
156
195
183
99
97
147
181
179
115
42
34
34
44
121
218
170
100
199
202
171
126
174
42
44
150
192
181
95
89
138
173
181
120
47
35
32
29
35
93
211
197
117
132
116
100
174
48
47
155
199
184
104
88
131
172
189
135
63
42
31
27
41
69
123
197
147
69
40
81
164
59
71
169
198
173
102
85
129
168
189
156
91
53
38
33
108
183
218
211
170
79
36
96
169
76
113
196
198
143
99
85
118
145
184
185
132
74
52
39
120
197
178
159
155
139
127
165
170
87
163
203
184
119
86
82
105
120
171
191
163
100
64
40
51
130
187
206
205
180
162
152
123
133
189
193
146
117
96
80
104
110
147
183
189
155
103
56
30
19
26
29
23
22
31
58
115
181
197
163
119
119
97
85
109
108
118
147
191
200
176
122
81
65
48
38
36
57
98
162
192
195
166
117
118
117
87
83
109
115
120
116
146
190
205
197
178
157
136
125
139
180
195
198
198
167
119
104
110
110
88
79
104
103
107
112
120
135
169
190
193
200
201
186
190
206
201
183
142
123
119
103
96
105
82
78
104
106
109
116
122
125
131
140
160
181
200
191
184
170
154
139
129
120
126
113
104
103
88
66
82
85
87
92
92
87
88
85
79
86
121
134
136
112
94
90
86
86
99
94
82
78
60
