P2
24 24 255

24
40
38
36
47
51
41
47
54
59
66
70
71
73
56
54
55
57
61
52
49
61
56
36
34
49
52
48
57
58
53
54
62
71
91
95
94
99
77
73
73
74
78
70
79
81
75
51
41
56
63
64
77
79
78
87
104
121
125
114
113
132
114
105
97
80
83
83
81
84
74
49
35
58
71
66
77
87
103
112
116
117
110
89
91
114
111
102
112
103
85
65
53
69
71
44
40
70
82
63
80
99
105
97
105
100
85
67
60
74
95
98
96
120
117
85
55
77
77
45
38
59
85
78
98
111
99
101
97
75
56
44
41
48
59
88
91
100
128
113
87
90
80
55
29
47
78
100
107
99
101
92
60
39
29
30
22
27
34
43
62
89
100
108
116
102
77
50
32
49
80
119
99
105
97
59
44
31
27
21
16
18
24
29
39
73
87
105
139
129
85
53
39
65
94
122
126
98
67
46
40
32
29
23
20
18
19
25
42
63
71
103
149
141
100
61
44
76
97
105
133
98
50
48
41
27
21
27
21
18
22
29
53
48
44
88
137
160
109
57
42
74
106
113
116
82
41
39
45
34
24
20
19
16
16
30
40
32
42
80
111
156
126
64
40
83
121
108
85
75
48
25
40
42
34
20
17
17
21
36
32
29
46
69
93
150
137
63
50
92
126
96
82
67
50
27
29
35
34
24
15
20
28
39
28
37
48
56
97
159
141
68
42
81
122
101
82
64
58
41
26
23
21
27
23
23
41
37
26
50
54
60
116
160
138
71
50
78
117
121
95
70
58
48
31
26
28
28
31
29
47
28
33
61
63
85
127
154
137
74
49
73
104
115
106
91
59
55
46
31
42
39
41
54
46
37
64
76
72
103
131
150
121
66
51
76
94
110
98
102
76
56
46
30
34
48
36
49
33
33
68
73
82
107
132
146
104
64
49
65
82
107
103
97
87
71
62
50
38
41
36
36
24
53
71
79
90
126
143
122
87
58
46
60
74
99
118
114
103
95
82
63
47
30
27
20
33
64
83
97
116
146
127
94
78
53
55
65
75
83
108
139
128
115
108
89
72
51
38
43
66
84
105
119
134
129
102
89
77
58
58
69
72
74
86
115
133
135
131
122
114
92
61
72
105
121
133
137
135
107
90
87
75
60
56
70
77
82
87
89
106
125
136
133
146
133
83
96
132
129
127
108
97
85
81
87
77
60
47
63
69
73
77
86
92
88
106
122
128
131
84
95
115
108
83
74
71
73
72
77
75
53
33
50
49
49
55
65
72
67
72
76
78
88
57
62
76
72
57
45
46
52
56
61
54
29
