P2
24 24 255

41
67
73
81
73
77
77
82
85
93
99
93
90
100
86
84
82
84
84
82
83
82
76
46
63
90
97
102
104
103
103
112
111
114
126
126
120
127
113
108
105
109
109
106
102
105
98
69
67
93
97
102
108
112
111
117
120
124
145
151
147
139
125
119
111
112
113
109
105
108
100
75
66
92
95
104
109
114
113
119
113
134
165
166
162
162
131
121
117
120
121
114
109
111
107
78
67
101
102
104
113
113
114
129
133
158
172
160
172
179
144
126
127
117
116
114
101
103
99
66
67
98
106
113
116
115
124
135
139
177
173
135
146
180
161
133
125
115
117
110
102
102
98
66
67
99
106
108
111
115
129
132
152
169
172
168
156
175
182
141
123
120
112
111
108
102
98
67
75
100
102
108
113
119
130
135
163
168
187
207
203
180
194
173
124
122
123
109
103
104
99
63
73
104
104
114
115
128
129
141
169
175
200
176
181
191
179
191
147
125
124
118
105
102
99
65
73
103
104
111
119
130
134
165
176
185
202
136
108
199
193
189
177
132
123
119
99
101
102
70
74
102
110
112
123
125
151
181
175
203
199
181
158
175
210
186
192
161
130
118
109
100
102
70
74
108
105
118
124
131
168
176
179
211
209
195
200
191
201
197
190
184
139
126
111
101
101
67
74
107
111
123
132
153
181
172
202
196
203
146
133
205
167
205
188
192
164
132
115
104
107
70
73
108
116
126
133
167
171
178
212
197
210
127
97
204
193
208
201
182
179
146
119
115
108
70
73
109
125
131
149
170
156
203
215
200
207
117
76
187
216
184
213
177
173
161
133
119
107
68
76
116
123
135
162
169
162
209
155
147
191
156
118
210
166
107
199
198
161
172
138
115
108
69
78
112
124
151
170
154
192
174
89
75
176
188
182
202
107
62
116
203
171
178
160
123
114
73
78
116
129
163
177
167
200
128
75
85
171
187
176
175
107
75
87
185
200
172
183
142
119
79
87
124
143
180
174
184
181
144
145
145
180
182
167
184
169
151
154
178
192
151
179
162
128
86
83
119
156
178
149
175
186
194
198
193
196
198
196
195
191
189
189
187
174
144
170
175
136
82
81
118
161
169
142
154
157
146
141
143
150
153
153
154
151
151
158
162
165
167
162
160
134
82
83
122
160
169
172
181
175
166
161
162
168
170
164
172
167
163
169
170
169
167
154
139
120
80
76
116
134
148
152
146
140
138
139
140
159
160
155
167
154
135
132
133
130
125
122
111
106
73
50
81
92
91
98
89
90
90
93
100
113
123
115
122
111
97
92
93
91
79
81
76
77
54
