P2
24 24 255

132
116
96
78
64
63
69
81
90
103
113
117
118
119
113
107
98
83
68
59
61
73
89
108
118
94
74
63
70
77
93
112
131
146
158
167
168
169
163
153
140
123
103
83
66
57
68
88
95
74
63
68
83
107
131
156
178
196
205
211
214
215
213
204
190
171
145
121
94
72
58
69
74
65
72
88
117
143
173
197
215
226
233
237
239
240
237
233
226
212
192
163
130
98
72
59
61
65
86
119
152
181
203
210
223
234
245
250
250
249
248
239
218
201
194
187
165
131
99
68
62
80
115
147
178
199
197
185
189
217
243
252
253
252
233
196
166
154
154
158
165
150
125
92
68
99
141
171
194
201
179
152
154
197
238
253
252
240
188
136
117
116
116
124
136
153
144
112
81
124
160
185
207
200
164
145
148
184
227
252
251
210
134
92
105
125
134
125
126
144
158
130
99
142
177
202
212
189
159
146
155
187
220
252
247
182
94
81
136
176
175
146
124
137
167
153
115
157
191
207
201
174
153
147
168
198
220
250
246
165
75
95
184
224
219
171
129
131
175
170
125
168
207
211
182
153
141
140
165
197
224
250
245
161
72
108
212
244
241
189
125
127
178
183
133
175
214
207
160
125
101
98
119
157
209
248
244
160
71
115
223
249
247
195
121
121
172
191
137
176
214
199
142
103
68
53
57
86
156
220
238
157
69
114
224
251
249
194
116
111
169
195
137
177
205
179
136
106
97
89
74
58
93
175
213
152
64
112
221
251
250
200
120
109
167
198
134
173
188
162
137
137
157
180
160
97
73
133
186
140
60
106
218
251
248
204
126
113
169
199
131
165
174
150
146
163
195
224
221
146
77
115
174
141
61
89
205
245
244
204
131
120
168
193
119
154
162
145
146
170
202
226
219
148
82
113
183
163
74
75
166
222
224
186
126
121
165
183
104
144
152
138
135
151
182
195
176
118
79
137
205
195
110
76
117
164
177
147
115
125
168
166
89
131
145
141
123
120
132
132
108
87
103
176
229
226
161
99
90
106
116
109
113
146
164
145
75
107
140
145
134
120
110
105
102
116
167
218
245
242
213
161
126
114
115
122
147
163
157
117
63
83
119
147
159
156
147
150
168
193
219
243
249
248
243
223
195
175
171
172
175
166
132
79
62
62
89
123
155
176
193
204
215
230
242
248
249
249
247
242
233
221
210
198
178
139
92
51
72
58
60
87
125
152
178
200
214
226
234
237
238
239
237
234
224
215
199
176
138
95
53
44
85
66
53
56
76
109
138
160
182
197
206
212
214
216
212
207
196
179
157
121
82
49
43
51
