P2
24 24 255

107
97
94
87
76
67
57
55
54
58
62
64
65
65
57
50
44
39
40
43
50
63
77
92
101
94
86
76
63
58
57
62
67
78
89
98
102
101
93
81
67
55
48
40
39
48
61
75
94
88
77
65
61
62
68
81
96
116
132
143
149
149
145
133
111
91
73
57
45
41
48
61
88
80
69
63
64
73
89
108
131
157
172
182
187
190
186
177
161
139
111
85
65
48
41
47
81
73
67
68
75
92
112
138
165
186
202
211
214
216
213
204
190
173
146
116
87
64
51
43
75
66
65
74
88
105
130
154
172
189
209
221
225
224
218
206
192
177
158
133
107
80
61
48
63
63
69
82
100
122
140
150
156
166
182
207
220
215
201
181
165
154
144
134
117
96
76
56
58
58
74
93
114
135
146
146
140
133
145
172
192
190
167
144
131
131
129
125
123
110
91
68
57
63
83
110
137
154
157
150
140
118
109
128
154
155
129
111
113
129
133
125
123
122
107
86
58
73
96
128
156
166
168
167
154
121
99
100
128
127
103
96
122
150
160
146
129
129
126
105
62
81
113
149
165
162
163
158
140
112
92
93
117
114
94
93
142
178
187
163
135
136
138
121
63
90
130
161
168
155
137
119
98
88
82
99
121
117
90
96
155
193
202
173
141
136
143
128
65
94
136
169
172
153
119
85
64
55
63
96
123
121
95
101
159
201
206
179
142
136
147
134
64
95
139
171
174
155
124
94
72
61
53
76
108
113
89
100
160
205
209
182
145
137
147
135
60
90
129
164
174
165
150
136
125
103
70
57
82
90
78
94
161
205
210
184
148
138
147
135
56
82
119
154
171
171
166
165
164
143
97
62
68
77
69
84
144
194
202
177
148
137
143
129
53
69
103
136
160
164
164
164
164
143
104
72
81
87
78
79
116
165
178
163
140
135
135
120
52
60
85
118
146
151
147
145
137
122
102
94
113
126
110
90
97
127
144
138
130
129
123
104
50
53
72
98
129
143
137
122
118
113
116
134
161
174
158
126
113
115
120
125
130
123
111
83
51
48
56
82
109
134
145
143
140
147
158
179
198
211
204
182
158
146
143
145
133
118
95
63
57
49
49
65
94
124
148
165
179
188
203
216
227
230
230
221
204
190
178
158
136
109
73
47
63
52
46
52
71
103
135
166
191
209
220
227
231
231
232
228
218
202
180
153
117
80
53
36
70
60
47
44
51
71
100
128
157
182
201
211
217
217
213
206
192
172
152
114
80
53
34
34
75
66
54
43
42
49
63
83
106
129
150
164
174
175
172
160
142
120
92
67
45
32
31
40
