P2
24 24 255

34
37
50
61
78
98
117
136
159
167
176
180
185
186
182
174
147
118
77
34
17
14
19
32
35
49
60
87
107
136
163
181
196
209
217
226
229
225
222
210
172
124
61
21
9
11
28
48
49
62
83
107
139
168
190
211
224
234
240
247
247
246
239
215
178
107
47
9
3
5
26
51
57
83
100
124
145
158
173
183
200
219
239
248
250
246
227
187
136
69
30
10
1
1
11
47
69
86
106
127
133
133
133
134
145
175
214
239
240
228
188
136
69
35
11
6
2
1
11
64
77
101
115
117
109
102
86
85
86
111
160
206
223
179
130
67
30
7
2
1
0
5
20
74
92
103
114
109
90
85
66
55
51
62
96
147
152
118
64
27
7
2
0
4
3
5
29
93
100
115
105
99
88
81
82
61
39
41
51
69
79
58
25
4
1
0
5
5
4
11
40
114
117
125
102
93
81
103
117
111
65
29
28
32
26
14
4
0
0
3
10
8
11
20
64
134
133
139
102
85
88
112
154
151
96
38
11
8
7
3
0
0
0
7
15
23
27
40
77
133
154
149
105
79
74
101
130
132
90
35
5
3
4
0
0
0
0
15
36
46
51
53
81
132
174
164
115
81
50
48
67
73
48
17
3
4
7
1
0
0
6
36
74
103
85
69
83
126
187
183
138
88
47
31
28
32
16
5
1
9
17
0
0
0
13
71
145
168
125
83
77
115
190
187
134
86
42
20
15
12
4
0
0
8
9
0
0
3
40
132
202
198
138
80
66
100
183
178
133
81
45
22
15
12
5
1
1
3
1
0
0
8
71
167
226
213
145
79
60
91
176
176
133
91
46
25
28
28
15
3
1
0
0
0
1
17
80
175
229
204
138
72
54
86
175
169
128
83
47
34
45
32
15
2
1
1
1
3
2
17
71
151
204
178
119
64
55
78
163
139
108
71
41
39
35
22
7
1
0
3
18
30
23
17
39
98
130
126
77
52
52
86
138
121
80
57
35
22
15
9
5
0
3
25
77
87
65
27
24
37
56
54
44
43
56
90
106
90
58
41
20
7
5
3
3
3
23
86
153
175
140
82
36
25
26
27
34
51
75
93
72
62
43
26
12
7
1
0
5
25
85
159
204
224
207
156
96
56
47
51
64
84
103
111
53
51
41
17
12
9
6
10
35
85
164
205
234
247
241
213
173
138
118
111
122
130
130
117
42
50
47
27
17
13
18
44
91
160
207
232
249
252
249
244
228
218
205
190
174
153
130
103
37
39
39
28
18
22
43
71
143
194
226
244
248
248
245
244
238
228
205
187
160
133
103
74
