P2
24 24 255

120
104
105
105
106
105
101
90
73
57
40
35
32
33
52
87
108
112
118
114
108
102
95
100
113
107
106
106
107
98
94
71
55
47
51
56
39
29
33
58
90
104
110
117
110
105
98
101
115
108
108
105
98
93
83
60
43
50
77
99
82
47
28
37
73
95
107
113
109
105
100
97
110
108
102
103
93
92
67
47
39
65
109
142
139
85
40
27
49
86
100
110
110
105
104
97
108
104
98
99
90
83
56
38
47
87
138
181
183
141
70
30
33
67
98
102
105
107
104
98
106
100
98
92
85
63
45
37
67
116
169
210
217
185
119
52
28
45
80
99
101
106
103
97
101
103
100
90
80
51
39
45
91
145
195
225
239
223
172
90
36
32
61
93
99
105
109
102
101
99
88
85
61
44
34
67
121
177
215
235
245
245
211
145
65
35
41
79
98
101
108
104
104
99
88
77
52
39
45
90
154
197
218
227
240
248
238
190
110
48
34
59
93
103
104
104
102
94
87
68
47
36
65
123
180
207
197
181
190
219
240
221
160
76
38
40
78
100
103
104
101
95
82
53
39
45
92
155
193
193
158
108
108
152
209
233
197
122
55
36
56
92
102
105
105
95
71
43
36
66
122
179
194
168
108
59
41
80
154
217
223
170
89
43
38
72
104
104
104
88
55
34
40
91
154
199
194
138
76
33
19
33
106
194
235
208
136
57
33
43
91
107
101
74
41
32
59
122
181
212
197
125
60
21
8
17
82
174
233
229
180
87
36
31
59
105
91
52
30
29
85
151
199
219
195
115
48
14
3
8
64
151
211
234
206
135
52
28
38
78
72
38
24
48
118
173
202
205
165
82
31
10
2
4
33
100
162
208
219
179
91
32
24
50
51
29
26
78
151
181
168
143
104
58
25
6
2
2
15
52
104
155
207
205
142
52
22
28
38
21
41
112
178
198
172
143
107
69
31
9
2
4
24
72
120
163
208
228
187
90
30
18
27
21
67
146
201
227
227
216
180
102
49
18
5
9
45
119
179
215
235
243
218
143
46
17
20
34
103
177
218
240
248
246
220
134
63
29
19
22
64
150
219
245
250
250
235
191
90
24
13
60
141
199
229
246
251
250
231
148
76
54
45
44
80
168
229
248
251
252
245
219
147
46
24
92
173
212
236
249
252
251
236
159
106
107
107
93
111
187
234
249
250
250
247
233
187
88
52
135
195
222
239
245
249
251
239
176
146
173
192
163
147
201
240
248
248
246
246
236
206
137
88
160
200
223
235
239
240
242
237
197
194
221
233
222
191
216
236
239
237
234
231
221
204
164
