P2
24 24 255

87
79
72
69
59
55
72
97
124
153
178
198
204
194
176
149
110
79
60
53
59
68
72
81
79
69
67
62
56
72
100
127
156
180
192
185
190
201
201
185
158
121
87
63
55
59
66
73
72
65
58
54
68
97
123
154
178
187
169
148
143
165
195
201
185
159
126
90
64
55
57
64
66
56
53
67
93
119
149
178
184
163
132
107
99
112
153
191
200
185
160
129
93
66
55
57
57
52
67
92
118
144
173
187
165
131
94
67
54
64
99
147
185
197
184
161
129
95
68
58
52
65
89
115
142
169
185
165
131
96
59
36
26
32
54
94
144
183
194
183
162
133
100
72
63
87
111
141
167
183
167
131
96
59
32
19
11
13
25
49
89
138
181
195
188
169
137
102
85
113
141
169
186
171
132
96
61
35
19
10
7
9
10
21
45
84
139
180
197
193
173
140
112
144
173
186
176
138
100
64
37
20
14
15
14
9
7
9
19
44
84
136
178
201
197
176
146
181
193
181
145
102
67
38
21
14
17
27
27
13
7
5
6
19
42
79
132
176
199
198
178
198
189
149
107
67
39
21
12
13
29
49
55
30
12
6
3
5
18
40
75
130
177
201
199
198
161
117
74
44
21
9
9
24
49
68
76
58
29
10
4
3
5
18
42
81
141
190
209
179
137
90
53
28
11
5
16
37
68
88
89
76
45
20
6
2
2
9
29
64
120
185
211
181
130
87
50
26
10
7
16
31
56
82
93
77
44
21
6
3
5
12
37
76
136
194
212
204
157
106
65
37
17
8
8
14
30
52
66
52
25
9
5
6
12
29
64
117
176
214
196
213
196
152
99
64
32
13
8
8
12
29
41
28
10
5
6
12
29
61
115
171
207
217
165
195
210
195
154
102
61
34
16
10
9
15
21
14
7
7
13
29
61
113
169
206
218
204
132
162
191
205
194
161
106
68
39
20
14
13
13
10
10
16
32
61
108
164
202
216
205
173
89
128
157
186
202
197
166
115
73
43
23
16
15
16
17
33
59
104
164
201
212
206
176
137
59
82
122
155
182
200
199
173
123
76
44
25
18
18
29
60
106
160
199
210
206
178
136
85
50
53
76
118
151
180
202
204
180
126
77
46
27
28
50
98
162
202
212
206
181
138
86
52
56
48
53
73
113
149
182
205
208
181
127
84
55
58
90
151
201
216
209
185
141
91
52
42
59
54
46
51
72
109
148
183
206
206
181
137
102
106
142
192
216
211
185
144
96
54
41
53
65
56
51
45
52
70
107
143
181
202
203
187
163
165
190
207
207
184
147
100
57
41
47
56
