P2
24 24 255

81
98
104
109
108
101
83
68
57
48
44
45
45
46
50
55
54
64
94
110
118
121
120
122
76
119
136
148
150
149
143
124
110
100
93
90
93
90
93
99
104
124
154
164
171
171
165
140
64
122
159
177
187
191
189
182
167
155
148
144
136
135
137
142
157
181
200
203
205
203
189
138
44
103
162
194
211
217
220
216
202
187
178
170
165
164
165
171
193
215
227
227
227
221
190
112
24
75
144
197
222
235
239
239
229
212
200
189
183
182
183
196
221
239
243
243
239
224
171
79
15
41
111
182
221
241
248
248
245
228
210
202
194
191
195
214
238
249
251
250
243
213
134
48
14
19
69
144
207
237
248
252
250
238
216
201
194
196
202
228
248
253
254
252
236
181
91
27
20
11
31
101
179
225
245
252
251
245
224
196
180
180
201
235
251
254
254
249
219
137
51
15
33
13
15
55
136
205
234
250
253
249
233
205
178
179
211
244
252
254
253
238
184
93
28
12
54
21
10
26
88
170
220
244
251
252
244
216
189
193
228
248
252
253
247
221
139
54
17
17
74
36
14
15
48
124
198
233
248
253
251
234
207
212
242
250
251
250
238
186
95
29
13
24
88
60
24
12
24
78
160
218
242
251
252
246
228
232
250
253
253
247
220
142
55
19
19
40
100
77
41
14
12
44
116
192
230
247
253
250
242
245
252
254
251
239
186
96
33
16
25
56
102
88
62
28
12
21
68
150
211
240
251
253
251
251
254
254
246
219
143
60
22
19
38
69
101
93
78
48
20
13
36
103
183
227
246
252
253
254
255
252
235
188
101
37
18
27
54
80
102
97
85
70
35
15
20
64
141
208
239
250
253
254
253
245
218
145
67
25
22
41
68
91
105
100
96
85
58
26
15
32
97
173
223
245
252
254
251
235
189
107
41
22
27
58
80
101
107
107
104
97
79
44
20
22
57
131
202
236
248
252
246
219
150
71
29
23
43
72
92
105
110
111
109
101
93
68
32
19
34
87
167
220
242
247
234
189
111
50
24
30
59
81
97
109
111
113
115
106
99
87
52
25
21
51
124
193
230
238
216
152
73
32
25
44
72
91
108
110
111
113
113
110
100
96
76
42
20
28
78
152
205
217
185
112
50
26
32
60
81
102
110
109
108
109
109
110
105
98
91
61
28
20
44
110
171
185
144
77
35
27
46
73
92
109
111
111
104
104
108
111
108
102
95
81
46
22
27
66
124
142
103
48
27
33
61
81
101
114
112
114
108
103
106
111
109
106
97
92
66
36
22
38
73
86
58
34
28
48
75
91
109
112
108
105
