P2
24 24 255

183
148
114
86
66
47
34
27
26
27
36
54
71
61
38
24
16
18
23
33
52
73
106
131
125
99
70
50
37
23
17
7
5
4
6
12
17
13
7
7
5
4
6
13
24
45
65
90
96
68
47
33
22
11
6
2
1
1
0
0
0
2
4
4
2
0
2
5
13
21
40
61
69
47
32
20
11
5
2
0
0
0
0
0
1
3
3
2
1
2
3
5
7
12
24
41
52
37
24
11
6
3
2
3
4
5
3
3
5
6
11
11
6
5
3
8
15
32
42
52
62
52
37
18
14
27
41
50
57
59
52
30
21
40
66
90
83
46
19
17
56
91
112
121
114
113
88
61
68
100
132
149
159
165
151
100
77
118
152
173
173
136
69
47
102
155
173
167
170
172
167
135
127
146
174
197
210
205
175
125
132
179
198
198
210
195
134
80
135
202
202
165
166
176
202
184
149
132
157
211
228
190
145
113
162
213
199
169
200
217
171
110
157
219
201
145
145
156
189
187
124
90
115
193
224
170
106
81
156
221
190
129
170
218
180
114
153
218
197
132
140
130
136
120
82
59
71
159
216
162
89
58
147
222
178
105
144
211
181
113
139
215
197
131
160
134
111
89
54
34
42
135
205
155
70
45
124
218
175
84
123
206
186
107
128
211
217
181
185
184
165
113
67
30
38
121
195
156
68
38
120
214
176
78
114
201
185
99
119
205
231
213
145
180
197
174
114
53
45
124
195
164
75
37
122
217
187
85
111
200
195
120
127
207
223
174
69
113
175
191
153
89
63
132
205
180
92
44
127
221
201
108
127
205
201
139
140
209
206
128
48
73
160
196
168
106
75
138
210
187
105
56
129
222
214
140
147
213
206
150
149
207
198
113
91
106
175
206
176
117
76
138
210
194
110
61
122
215
232
186
195
224
204
144
141
202
193
108
162
170
204
213
173
105
70
131
201
191
110
53
93
191
237
236
230
223
178
113
114
184
181
106
200
206
209
192
137
77
51
110
185
174
97
38
40
122
192
217
211
177
116
61
72
128
134
76
169
173
163
125
79
42
22
64
118
109
57
15
14
31
82
122
116
87
46
20
24
48
56
34
88
90
77
53
27
12
4
10
20
23
12
5
5
8
13
22
23
14
6
4
7
10
14
17
65
47
34
23
11
5
1
1
6
6
6
1
0
0
0
0
1
0
0
0
0
5
13
28
85
63
43
27
13
6
3
4
8
7
7
7
4
3
0
0
0
0
0
1
5
11
27
52
108
87
66
45
25
12
8
10
10
11
12
16
16
13
5
1
0
2
6
9
15
29
56
91
