P2
24 24 255

49
49
56
62
76
95
108
118
124
134
152
156
152
155
149
135
115
90
76
60
44
33
31
25
54
55
62
78
100
114
134
138
160
172
189
197
197
198
188
165
125
101
80
56
38
27
29
29
45
57
79
97
122
146
162
188
205
213
226
236
235
227
206
178
141
108
85
58
33
24
22
25
48
73
98
122
152
181
202
219
230
242
247
245
242
223
198
162
125
99
78
52
32
19
13
16
68
92
125
156
180
211
228
244
244
249
248
247
225
196
167
129
104
80
54
39
28
15
9
12
74
114
149
178
216
232
243
248
249
253
248
229
205
166
125
100
76
49
32
18
16
11
9
19
95
138
166
208
234
246
248
252
252
249
231
208
170
125
98
69
44
24
14
13
3
2
16
46
115
151
192
223
238
245
249
249
247
229
204
168
121
88
58
34
22
9
3
1
4
14
38
73
117
174
213
237
247
246
248
245
227
202
164
115
86
53
32
16
3
1
2
1
8
35
80
101
140
185
229
250
247
246
240
228
202
156
115
74
38
19
7
1
1
1
2
4
33
81
118
139
156
202
239
251
248
246
222
201
163
113
69
29
9
3
0
0
0
2
4
29
80
120
151
175
159
208
245
252
248
232
203
158
103
65
28
5
0
0
0
0
1
5
25
76
125
164
194
204
166
213
247
245
240
203
155
107
65
26
6
0
0
0
0
1
4
17
64
124
167
201
218
216
178
214
232
235
206
158
109
49
24
5
0
0
0
0
0
2
19
68
135
175
205
229
232
218
176
213
224
200
156
98
55
24
8
1
0
0
0
0
2
11
55
133
185
211
236
241
237
226
165
188
193
161
110
64
26
13
4
0
0
0
0
3
12
55
124
198
226
245
248
244
225
215
138
154
150
114
79
35
8
3
0
0
0
2
6
18
52
128
197
230
247
248
240
237
218
210
100
118
104
74
47
16
1
0
0
1
4
8
23
60
140
201
230
241
247
241
237
224
213
203
77
80
70
53
30
6
1
1
5
7
16
28
68
141
203
229
237
243
241
232
224
223
204
176
55
46
35
29
18
12
13
12
12
20
35
77
157
213
236
244
242
237
228
223
220
207
195
141
31
19
22
22
24
24
24
26
30
44
79
153
204
235
243
249
244
231
222
214
203
202
171
94
16
13
11
19
22
29
30
36
49
87
149
206
240
243
245
242
237
223
220
209
198
176
114
61
18
15
15
16
19
28
40
60
100
152
193
236
240
241
235
219
211
210
203
199
166
113
67
39
20
19
14
13
22
33
54
90
141
181
222
227
231
219
216
205
204
193
174
143
95
61
38
26
