P2
24 24 255

89
88
85
84
80
75
70
68
63
63
68
83
106
113
112
105
104
101
109
125
137
161
174
182
82
83
81
87
81
69
54
44
39
38
39
49
67
84
95
96
87
79
78
85
108
128
147
173
83
84
94
103
98
82
54
34
27
27
24
26
33
49
66
72
58
53
50
49
62
87
110
141
80
90
111
123
126
110
84
50
29
20
17
13
18
25
40
46
41
32
29
30
36
49
70
94
77
93
120
142
150
144
122
90
48
28
17
10
10
16
23
28
27
21
17
16
19
28
43
66
72
86
110
146
167
175
165
139
100
53
29
16
11
11
14
19
19
18
14
12
14
17
28
42
67
70
90
130
168
191
196
184
155
108
56
29
16
11
11
13
16
21
25
25
16
15
18
27
57
52
69
100
147
190
206
212
198
167
117
60
30
13
10
9
14
27
54
63
45
24
15
16
49
39
42
64
105
156
204
225
225
209
176
123
60
26
11
9
15
38
90
120
94
52
23
14
42
29
25
34
59
106
165
214
233
237
220
186
126
59
23
13
15
48
116
163
145
94
41
16
39
22
13
16
28
53
107
168
218
238
242
227
191
128
57
26
23
59
135
191
183
132
64
19
50
21
9
7
8
19
47
101
167
218
239
243
231
199
131
63
43
72
142
206
206
158
81
23
63
28
10
5
3
4
13
36
93
166
218
237
244
235
205
145
90
93
151
213
220
173
89
25
78
45
20
8
2
1
2
10
31
80
155
212
236
244
237
212
164
136
171
221
227
183
95
26
93
62
37
16
5
1
1
2
9
24
70
143
207
237
247
240
221
195
202
231
232
190
98
28
100
75
47
25
9
4
1
1
3
7
21
66
137
202
234
245
242
235
233
241
236
194
102
32
107
85
55
29
15
6
2
1
2
5
14
33
78
141
202
232
243
247
249
248
238
198
107
35
109
86
55
33
17
9
5
4
12
23
38
54
75
111
169
216
238
248
252
250
238
200
114
44
116
87
56
35
22
12
11
19
41
69
91
112
131
147
180
218
240
250
252
248
237
199
116
46
126
90
59
35
26
14
16
38
76
121
158
186
202
213
224
240
247
248
247
241
226
184
107
41
138
105
70
41
25
15
12
29
66
119
165
197
215
224
231
234
233
230
227
216
194
157
88
33
155
122
89
51
30
18
9
13
33
73
117
153
172
182
185
181
176
171
166
156
141
115
65
30
167
145
108
69
43
26
13
8
10
26
51
72
85
93
90
88
85
82
83
77
72
58
38
31
170
161
134
96
64
39
26
14
8
7
10
14
18
19
18
17
16
18
18
20
23
24
31
44
