P2
24 24 255

145
153
132
126
109
103
95
100
114
126
125
128
104
63
39
20
19
20
18
17
26
25
32
41
147
130
118
118
104
91
83
91
108
95
107
100
60
38
36
11
9
10
11
28
42
36
26
35
110
109
116
100
91
81
73
82
96
90
91
56
35
27
24
7
7
10
22
58
71
76
54
38
93
90
79
81
65
58
54
63
84
91
65
40
29
23
28
11
13
20
59
94
118
123
110
70
89
72
57
45
37
42
41
36
44
47
51
36
26
27
21
17
24
65
115
151
179
183
133
93
80
63
38
22
18
33
43
36
31
43
43
29
24
18
20
26
74
130
174
217
222
186
133
107
70
45
23
18
33
38
35
30
14
15
15
8
8
18
26
71
135
197
235
242
214
166
118
82
57
28
27
33
33
36
35
20
4
4
3
4
15
29
71
149
211
240
249
225
188
138
88
54
40
24
34
38
54
63
64
40
16
7
4
13
25
78
148
217
244
251
227
197
152
86
51
20
35
27
45
69
100
123
109
81
45
18
15
25
100
159
221
242
252
231
200
158
92
45
11
0
27
37
85
117
147
164
145
107
63
36
42
100
167
218
243
252
234
206
148
89
37
8
0
0
25
50
96
136
171
183
158
118
87
83
109
177
217
239
253
237
201
141
79
26
9
0
0
0
26
63
106
154
182
195
169
148
138
145
182
218
239
249
241
198
144
70
23
9
2
5
2
17
25
66
106
155
183
202
198
191
184
209
227
242
249
244
198
131
53
20
7
3
0
9
19
37
27
67
111
158
188
206
209
206
218
245
250
252
243
193
110
45
14
7
1
3
6
13
36
59
33
59
109
161
193
209
216
219
238
253
255
241
187
110
45
11
7
0
2
2
9
12
30
73
38
69
109
166
196
218
220
225
240
253
245
193
130
62
23
10
3
1
0
1
12
24
33
65
44
75
111
171
200
226
227
227
228
236
195
157
115
70
53
34
25
18
7
0
10
23
37
68
56
78
113
169
200
222
227
227
225
222
195
161
145
130
107
93
73
49
12
2
11
36
50
71
64
87
114
170
200
218
225
221
220
222
227
225
218
212
194
166
133
70
11
4
13
31
49
69
69
91
109
163
184
207
215
209
203
203
220
218
216
209
195
170
133
46
6
11
18
26
50
79
53
57
72
120
153
168
180
177
167
170
180
182
180
178
165
137
60
17
3
11
18
30
50
90
36
31
25
63
84
91
97
103
116
123
122
120
115
107
83
45
18
1
1
14
29
42
64
112
41
33
21
18
26
30
29
27
21
20
20
25
27
23
15
8
6
3
9
18
36
57
81
131
