P2
48 48 255

194
194
194
194
194
194
194
194
194
194
194
194
194
194
194
194
194
194
194
194
194
194
194
194
194
194
194
194
194
194
194
194
194
194
194
194
194
194
194
194
194
194
194
194
194
194
194
194
194
194
194
194
194
194
194
194
194
194
194
194
194
194
194
194
194
194
194
194
194
194
194
194
194
194
194
194
194
194
194
194
194
194
194
194
194
194
194
194
194
194
194
194
194
194
194
194
194
255
255
194
194
194
194
194
194
194
194
194
194
194
194
194
194
194
194
194
194
194
194
194
194
194
255
255
255
194
194
194
194
194
194
194
194
194
194
194
194
194
194
194
194
194
194
194
194
194
194
255
255
255
194
194
194
194
194
194
194
194
194
194
194
194
194
194
194
194
194
194
194
194
255
255
255
255
194
194
194
194
194
194
194
194
194
194
194
194
194
194
194
194
194
194
194
255
255
194
194
194
194
194
194
194
194
194
194
194
194
194
194
194
194
194
194
194
194
194
194
194
194
194
194
255
255
194
194
194
194
194
194
194
194
194
194
194
194
194
194
194
194
194
194
194
194
194
194
194
194
194
194
194
194
194
194
194
194
194
194
194
194
194
194
255
255
255
255
255
194
194
194
255
255
255
194
194
194
194
194
194
194
194
194
194
194
194
194
194
194
194
194
255
255
255
194
194
194
194
194
194
194
194
194
194
194
194
194
194
255
255
255
255
255
194
194
194
194
194
194
194
255
255
255
255
255
194
194
194
194
194
194
194
194
194
194
194
194
194
194
194
255
255
255
194
194
194
194
194
194
194
194
194
194
194
255
255
255
255
194
194
194
194
194
194
194
194
194
194
194
194
255
255
255
255
255
194
194
194
194
194
194
194
194
194
194
194
194
255
255
255
255
255
255
255
255
194
194
194
194
194
194
255
255
194
194
194
194
194
194
194
194
194
194
194
194
194
194
194
194
194
194
255
255
255
194
194
194
194
194
194
194
194
194
194
194
255
255
255
255
255
255
255
255
194
194
194
194
255
255
255
194
194
194
194
194
194
194
194
194
194
194
194
194
194
194
194
194
194
255
194
255
255
255
255
194
194
194
194
194
194
194
194
194
255
255
255
255
255
255
255
194
194
194
194
255
255
194
194
255
194
194
194
194
194
194
194
194
194
194
194
194
194
194
194
194
194
194
255
194
194
255
255
255
194
194
194
194
194
194
194
194
194
194
194
194
194
255
255
255
194
194
255
194
194
194
194
194
194
194
194
194
194
194
194
194
194
194
194
194
194
194
194
194
194
194
194
194
194
194
255
255
255
194
194
194
194
194
194
194
194
255
255
255
255
255
255
255
194
255
194
194
194
194
194
194
194
194
194
194
194
194
194
194
194
194
194
194
194
194
194
194
194
194
194
194
194
194
194
255
255
255
194
194
194
194
194
194
255
255
255
255
255
255
255
194
194
255
194
194
194
194
194
255
255
194
194
194
194
194
194
194
194
194
194
194
194
194
194
194
194
194
194
194
194
194
255
194
255
255
194
194
194
194
194
194
255
255
255
255
255
255
194
194
255
194
194
194
194
255
255
255
255
255
194
194
194
194
194
194
194
194
194
194
194
194
194
194
194
194
194
194
194
194
255
255
255
255
255
255
194
194
194
194
194
194
255
255
255
194
255
255
255
194
194
194
194
255
255
255
255
255
255
194
194
194
194
194
194
194
194
194
194
194
194
194
194
194
194
194
194
194
255
255
255
255
255
255
255
255
194
194
255
255
255
255
255
255
255
255
194
255
194
194
255
255
255
194
255
255
255
255
194
194
194
194
194
194
194
194
194
194
194
194
194
194
194
194
194
194
194
255
255
194
255
255
255
255
194
194
255
255
255
255
255
255
255
194
255
194
194
194
255
255
255
194
194
255
255
255
255
194
194
194
194
194
194
194
194
194
194
194
194
194
194
194
194
194
194
255
255
255
194
194
194
194
194
194
194
194
194
194
194
255
255
194
255
194
194
194
194
255
255
255
194
194
255
255
255
255
194
194
194
194
194
194
194
194
194
194
194
194
194
194
194
194
194
194
255
255
255
194
194
255
194
194
255
255
255
255
255
255
255
255
255
194
194
194
194
194
255
255
255
194
194
255
255
255
255
194
194
194
194
194
194
194
255
255
255
194
194
194
194
194
194
194
255
255
255
255
255
255
194
194
255
255
255
255
255
255
194
255
194
194
194
194
194
194
255
255
255
255
194
194
255
255
255
255
194
194
194
194
194
194
255
255
255
255
194
194
194
194
194
194
194
255
255
255
255
255
194
194
255
255
255
255
255
194
194
255
194
194
194
194
194
194
194
194
255
255
255
194
194
255
255
255
255
194
194
194
194
255
255
194
255
255
255
194
194
194
194
194
194
255
255
255
255
194
194
194
194
194
194
194
194
255
194
255
194
194
194
194
194
194
194
194
194
255
255
255
194
194
194
255
255
255
194
194
194
255
255
194
255
255
255
194
194
194
194
194
194
255
255
194
255
194
194
194
255
255
255
255
255
194
255
255
194
194
194
194
194
194
194
194
194
194
255
255
255
194
194
255
255
255
255
194
194
255
255
255
194
255
255
194
194
194
194
194
194
255
255
194
255
194
194
194
194
194
194
194
194
194
255
255
194
194
194
194
194
194
194
194
194
194
194
255
255
255
255
194
194
255
255
255
194
194
255
255
194
255
255
194
194
194
194
194
194
194
255
194
194
194
194
194
194
194
194
194
194
194
255
255
194
194
194
194
194
194
194
194
194
194
194
194
255
255
255
194
194
194
255
255
255
194
255
255
194
255
255
194
194
194
194
194
194
194
255
194
194
194
194
194
194
194
194
194
194
194
255
255
194
194
194
194
194
194
194
194
194
194
194
194
194
255
255
255
255
194
194
255
255
255
255
255
194
255
255
194
194
194
194
194
194
194
194
194
194
194
194
194
194
194
194
194
194
194
255
255
194
194
194
194
194
194
194
194
194
194
194
194
194
194
255
255
255
255
194
194
255
255
255
255
194
255
255
194
194
194
194
194
194
194
194
194
194
194
194
194
194
194
194
194
194
194
194
255
194
194
194
194
194
194
194
194
194
194
194
194
194
194
194
255
255
255
255
194
194
194
194
194
194
255
255
194
194
194
194
194
194
194
194
194
194
194
194
194
194
194
194
194
194
194
194
194
194
194
194
194
194
194
194
194
194
194
194
194
194
194
194
194
255
255
255
194
194
194
194
194
194
255
255
194
194
194
194
194
194
194
194
194
194
194
194
194
194
194
194
194
194
194
194
194
194
194
194
194
194
194
194
194
194
194
194
255
255
255
255
255
255
255
255
255
194
194
194
194
194
255
255
194
194
194
194
194
194
194
194
194
194
194
194
194
194
194
194
194
194
194
194
194
194
194
194
194
194
194
194
194
194
194
194
255
255
255
255
255
255
255
255
194
194
194
194
194
194
255
255
255
194
194
194
194
194
194
194
194
194
194
194
194
194
194
194
194
194
194
194
194
194
194
194
194
194
194
194
194
194
194
194
255
255
194
255
255
255
255
255
194
194
194
194
194
194
255
255
255
194
194
194
194
194
194
194
194
194
194
194
194
194
194
194
194
194
194
194
194
194
194
194
194
194
194
194
194
194
194
194
255
255
255
194
194
194
194
194
194
194
194
194
194
194
255
255
194
194
194
194
194
194
194
194
194
194
194
194
194
194
194
194
194
194
194
194
194
194
194
194
194
194
194
194
194
194
194
194
194
255
255
255
255
255
255
255
255
255
255
255
255
255
255
255
194
194
194
194
194
194
194
194
194
194
194
194
194
194
194
194
194
194
194
194
194
194
194
255
194
194
194
194
194
194
194
194
194
194
255
255
255
255
255
255
255
255
255
255
255
255
255
194
194
194
194
194
194
194
194
194
194
194
194
194
194
194
194
194
194
194
194
194
194
194
194
194
255
194
194
194
194
194
194
194
194
194
194
194
194
194
194
194
194
194
194
194
194
194
194
194
194
194
194
194
194
194
194
194
194
194
194
194
194
194
194
194
194
194
194
194
194
194
194
194
194
194
194
194
194
194
194
194
194
194
194
194
194
194
194
194
194
194
194
194
194
194
194
194
194
194
194
194
194
194
194
194
194
194
194
194
194
194
194
194
194
194
194
194
194
194
194
194
194
194
194
194
194
194
194
194
194
194
194
194
194
194
194
194
194
194
194
194
194
194
194
194
194
194
194
194
194
194
194
194
194
194
194
194
194
194
194
194
194
194
194
194
194
194
194
194
194
194
194
194
194
194
194
194
194
194
194
194
194
194
194
194
194
194
194
194
194
194
194
194
194
194
194
194
194
194
194
194
194
194
194
194
194
194
194
194
194
194
194
194
194
194
194
194
194
194
194
194
194
194
194
194
194
194
194
194
194
194
194
194
194
194
194
194
194
194
194
194
194
194
194
194
194
194
194
194
255
255
194
194
194
194
194
194
194
194
194
194
194
194
194
194
194
194
194
194
194
194
194
194
194
194
194
194
194
194
194
194
194
194
194
194
194
194
194
194
194
194
194
194
194
194
194
194
194
194
194
194
194
194
194
194
194
194
194
194
194
194
194
255
255
255
194
194
194
194
194
194
194
194
194
255
255
255
255
255
194
194
194
194
194
194
255
255
255
255
255
255
255
194
194
194
255
194
194
194
194
194
255
255
255
255
255
255
255
255
255
255
255
255
255
255
255
194
194
194
194
194
194
194
194
194
194
194
194
194
194
194
194
255
255
255
194
194
194
255
255
255
255
194
194
194
194
194
194
255
255
255
255
255
194
194
194
194
194
194
194
194
194
194
255
255
255
255
255
255
255
255
255
255
255
255
255
255
255
255
255
255
194
194
194
194
194
194
194
194
194
194
194
194
194
194
194
255
194
194
194
194
194
194
194
194
194
194
194
194
255
255
255
255
255
255
255
255
194
194
194
194
194
255
255
255
255
255
255
255
255
255
194
194
194
194
194
194
194
194
194
194
194
194
194
194
194
194
194
194
194
194
194
194
194
194
194
194
194
255
255
194
194
194
194
194
194
194
194
194
194
194
194
194
194
194
194
255
255
255
194
255
194
194
194
194
194
194
194
255
255
194
194
194
194
194
194
194
194
194
194
194
194
194
194
194
194
194
194
194
194
194
194
194
194
194
194
194
194
194
194
194
194
194
194
194
194
194
194
194
194
194
194
194
194
194
194
194
194
194
