P2
48 48 255

175
175
175
175
175
175
175
175
175
175
175
175
175
175
175
175
175
175
175
175
175
175
175
175
175
175
175
175
175
175
175
175
175
175
175
175
175
175
175
175
175
175
175
175
175
175
175
175
175
175
175
175
175
175
175
175
175
175
175
175
175
175
175
175
175
175
175
175
175
175
175
175
175
175
175
175
175
175
175
175
175
175
175
175
175
175
175
175
175
175
175
175
175
175
175
175
175
175
175
175
175
175
175
175
175
175
175
175
175
175
175
175
175
175
175
175
175
175
175
175
175
175
175
175
175
175
175
175
175
175
175
175
175
175
175
175
175
175
175
175
175
175
175
175
175
175
175
175
175
175
175
175
175
175
175
175
175
175
175
175
175
175
175
175
175
175
175
175
175
175
175
175
175
175
175
175
175
175
175
175
175
175
175
175
175
175
175
175
175
175
175
175
175
175
175
175
175
175
175
175
175
175
175
175
175
175
175
175
175
175
175
175
175
175
175
175
175
175
175
175
175
175
175
175
175
175
175
175
175
175
175
175
175
175
175
175
175
175
175
175
175
175
175
175
175
175
175
175
175
175
175
175
175
175
175
175
175
175
175
175
175
175
175
175
175
175
175
175
175
175
175
175
175
175
175
175
175
175
175
175
175
175
175
175
175
175
175
175
175
175
175
175
175
175
175
175
175
175
175
175
175
175
175
175
175
175
175
175
175
175
175
175
175
175
175
175
175
175
175
175
175
175
175
175
175
175
175
175
175
175
175
175
175
175
175
175
175
175
175
175
175
175
175
175
175
175
175
175
175
175
175
175
175
175
175
175
175
175
175
175
175
175
175
175
175
175
175
175
175
175
175
175
175
175
175
175
175
175
175
175
175
175
175
175
175
175
175
175
175
175
175
175
175
175
175
175
175
175
175
175
175
175
175
175
175
175
175
175
255
255
255
175
255
175
175
175
175
175
175
175
175
175
175
175
175
175
175
175
175
175
175
175
175
175
175
175
175
175
175
175
175
175
175
175
175
175
175
175
175
175
175
175
175
255
175
175
175
175
175
175
175
175
175
175
255
255
175
175
175
175
175
175
175
175
175
175
175
175
175
175
175
175
175
175
175
175
175
175
175
175
175
175
175
175
175
175
255
255
175
175
175
175
175
175
175
255
255
255
175
175
175
175
175
255
255
175
175
175
175
175
175
175
175
175
175
175
175
175
175
175
175
175
175
175
175
175
175
175
175
175
175
175
175
255
255
175
175
175
175
255
255
255
255
255
255
255
255
255
255
255
175
175
175
175
175
175
175
175
175
175
175
175
175
175
175
175
175
175
175
175
175
175
175
175
175
175
175
175
175
175
255
175
175
175
175
255
255
255
255
175
175
175
175
175
255
255
255
255
255
255
175
175
175
175
175
255
175
175
175
175
175
175
175
175
175
175
175
175
175
175
175
175
175
175
175
175
175
175
175
175
175
255
255
255
255
175
175
255
255
255
255
255
255
255
175
175
255
255
255
255
175
175
175
255
175
175
175
175
175
175
255
175
175
175
175
175
175
175
175
175
175
175
175
175
175
175
175
175
255
255
175
175
255
255
255
255
255
255
255
255
255
255
255
255
255
175
255
255
255
175
175
175
255
175
175
175
175
255
255
175
175
175
175
175
175
175
175
175
175
175
175
175
175
175
175
255
255
175
255
255
255
255
255
255
255
255
255
255
255
255
255
255
255
255
175
175
255
255
175
175
175
255
255
175
175
255
255
175
175
175
175
175
175
175
175
175
175
175
175
175
175
175
175
255
175
255
255
255
255
255
255
255
175
175
175
175
175
255
255
255
255
255
255
255
175
255
255
175
175
255
255
175
175
255
255
175
175
175
175
175
175
175
175
175
175
175
175
175
175
175
255
175
255
255
255
255
255
175
175
175
175
175
175
175
175
175
175
255
255
255
255
255
255
175
255
175
175
175
255
255
175
255
175
175
175
175
175
175
175
175
175
175
175
175
175
175
175
255
255
255
255
255
255
175
175
255
255
255
175
175
175
175
175
255
255
255
175
255
255
255
255
175
255
255
175
175
255
255
175
255
175
175
175
175
175
175
175
175
175
175
175
175
175
175
175
255
175
255
255
255
175
255
255
255
255
255
255
255
175
255
255
255
255
255
255
175
175
255
255
255
175
255
255
175
175
255
175
175
175
175
175
175
175
175
175
175
175
175
175
175
175
175
255
255
255
255
255
175
175
255
255
175
175
255
255
255
175
255
255
255
175
175
255
255
175
175
255
255
255
175
255
175
175
175
175
175
175
175
175
175
175
175
175
175
175
175
175
175
175
175
255
175
255
255
255
175
255
175
175
255
255
175
175
255
175
255
255
175
255
255
175
175
255
175
255
255
255
175
255
255
175
175
175
175
175
175
175
175
175
175
175
175
175
175
175
175
175
255
255
175
255
255
175
175
175
175
255
255
255
255
175
255
175
255
175
255
255
255
255
175
175
255
175
255
255
255
255
255
175
175
175
175
175
175
175
175
175
175
175
175
175
175
175
175
175
255
175
255
255
255
175
255
175
175
255
175
255
255
175
255
175
255
175
255
255
175
255
255
175
255
175
255
255
255
255
255
175
175
255
175
175
175
175
175
175
175
175
175
175
175
175
175
175
255
175
255
255
255
175
255
255
175
255
255
255
175
175
255
175
255
175
255
255
175
255
255
175
255
175
255
255
255
255
255
175
175
255
175
175
175
175
175
175
175
175
175
175
175
175
175
175
255
175
255
255
255
175
255
255
175
175
175
175
175
175
255
175
255
175
255
255
175
255
255
175
255
175
255
255
255
175
255
175
175
255
175
175
175
175
255
255
255
255
255
255
175
175
175
175
255
175
255
255
255
175
255
255
175
175
175
175
175
175
255
175
255
175
255
255
175
255
255
175
255
255
255
255
255
175
255
175
175
255
175
175
175
175
255
255
255
255
255
255
255
255
255
255
255
175
255
255
255
175
255
255
175
255
255
255
255
175
255
175
255
175
255
255
175
255
255
175
255
175
255
255
255
175
255
175
175
255
175
255
175
175
175
175
175
255
255
255
255
255
255
255
255
175
255
255
255
175
255
175
255
255
175
255
255
175
175
175
255
175
255
255
175
255
255
175
255
175
255
255
255
175
255
175
175
255
175
255
175
175
255
255
255
255
255
255
255
255
255
255
255
255
175
255
255
175
255
175
175
255
255
255
255
175
175
175
175
175
255
255
255
255
255
175
255
175
255
255
255
175
255
175
175
255
175
255
175
175
255
255
255
255
255
255
255
255
255
255
255
255
175
255
255
175
175
175
175
255
255
255
255
175
255
255
255
175
175
255
255
255
175
175
255
175
255
255
255
255
255
175
175
175
175
175
175
175
175
175
175
175
175
175
175
175
175
175
175
255
175
255
255
255
175
255
175
175
175
175
175
255
255
255
255
255
175
175
255
175
175
175
175
255
255
255
175
255
255
175
175
175
175
175
175
175
175
175
175
175
175
175
175
175
175
175
175
255
255
175
255
255
175
255
255
255
255
255
255
255
255
175
255
255
255
255
175
255
255
255
175
255
255
175
175
255
175
175
175
255
175
255
175
175
175
175
175
175
175
175
175
175
175
175
175
175
255
175
255
255
255
175
175
255
255
255
255
255
175
175
175
255
255
255
255
255
255
175
255
255
255
175
255
175
175
175
255
255
175
255
175
175
175
175
175
175
175
175
175
175
175
175
175
175
255
255
175
255
255
255
255
175
175
175
175
175
175
175
175
175
175
175
175
175
175
255
255
255
175
255
255
175
175
175
255
175
175
255
175
175
175
175
175
175
175
175
175
175
175
175
175
175
255
255
175
175
255
255
255
255
175
175
175
175
175
175
175
175
175
175
175
255
255
255
255
255
175
255
175
175
175
175
255
175
175
255
175
175
175
175
175
175
175
175
175
175
175
175
175
175
175
255
255
175
175
255
255
255
255
255
255
175
175
175
175
175
255
255
255
255
255
255
255
175
255
255
175
175
175
175
255
175
175
175
175
175
175
175
175
175
175
175
175
175
175
175
175
175
175
175
255
255
255
175
255
255
255
255
255
255
255
255
255
255
255
255
255
255
255
175
175
255
255
255
175
175
175
175
175
175
175
175
175
175
175
175
175
175
175
175
175
175
175
175
175
175
175
175
175
255
255
255
175
175
255
255
255
255
255
255
255
255
255
255
255
175
175
255
255
255
255
255
175
175
175
175
255
175
175
175
175
175
175
175
175
175
175
175
175
175
175
175
175
175
175
175
175
175
255
255
255
255
175
175
175
255
255
255
255
255
175
175
255
255
255
255
255
255
255
255
175
255
175
175
255
175
175
255
175
175
175
175
175
175
175
175
175
175
175
175
175
175
175
175
175
175
175
175
255
255
255
255
255
255
175
175
175
255
255
255
255
255
255
255
255
255
175
175
175
175
255
255
255
175
175
255
175
175
175
175
175
175
175
175
175
175
175
175
175
175
175
175
175
175
175
175
175
175
255
255
255
255
255
255
255
255
255
255
255
175
175
175
175
175
175
175
175
175
255
255
255
175
175
255
175
175
175
175
175
175
175
175
175
175
175
175
175
175
175
175
175
175
175
175
175
175
175
175
175
175
175
175
175
175
175
175
175
175
175
175
175
175
175
175
175
175
175
255
255
175
175
255
175
175
175
175
175
175
175
175
175
175
175
175
175
175
175
175
175
175
175
255
175
175
175
175
175
175
175
175
175
175
175
175
175
175
175
175
175
175
175
175
175
175
175
255
255
175
175
255
175
175
175
175
175
175
175
175
175
175
175
175
175
175
255
255
255
255
255
255
255
255
255
255
255
255
255
255
255
255
255
255
255
255
255
175
175
175
175
175
175
175
175
255
255
175
175
255
175
175
175
175
175
175
175
175
175
175
175
175
175
175
255
255
255
255
255
255
255
255
255
255
255
255
255
255
255
255
255
255
255
255
255
255
255
255
255
175
175
175
175
255
255
175
175
255
175
175
175
175
175
175
175
175
175
175
175
175
175
255
255
255
175
175
175
175
175
175
175
175
175
175
175
175
175
175
175
175
255
255
255
255
255
255
255
175
175
175
175
255
255
175
175
255
175
175
175
175
175
175
175
175
175
175
175
175
175
175
175
175
175
175
175
175
175
175
175
175
175
175
175
175
175
175
175
175
175
175
175
175
175
175
175
175
175
175
175
175
175
175
175
175
175
