P2
48 48 255

200
200
200
200
200
200
200
200
200
200
200
200
200
200
200
200
200
200
200
200
200
200
200
200
200
200
200
200
200
200
200
200
200
200
200
200
200
200
200
200
200
200
200
200
200
200
200
200
200
255
200
255
255
200
200
200
200
200
200
200
200
200
200
200
200
200
200
200
200
200
200
200
200
200
200
200
200
200
200
200
200
200
200
200
200
200
200
200
255
200
200
200
200
200
200
200
200
255
200
200
200
200
200
200
200
200
200
200
200
200
200
200
200
200
200
200
200
200
200
200
200
200
200
200
200
200
200
200
200
255
200
200
200
200
200
200
255
200
200
200
200
200
200
200
200
200
200
200
200
200
200
200
200
200
200
200
200
200
200
200
200
200
200
200
200
200
200
200
200
200
200
200
200
200
200
200
200
255
200
200
200
200
200
255
255
200
200
200
200
200
200
200
200
200
200
200
200
200
200
200
200
200
200
200
200
255
200
200
200
200
200
200
200
200
200
200
200
200
200
200
200
200
200
200
200
255
255
200
200
200
255
255
200
200
200
200
200
200
200
200
200
200
255
255
200
200
200
200
200
200
200
200
200
200
200
200
200
200
200
200
200
200
200
200
200
200
200
200
200
200
200
200
200
255
255
255
255
255
200
200
200
200
200
200
200
200
200
200
200
200
255
255
200
200
200
200
200
200
255
255
255
255
200
200
200
200
200
200
200
200
200
200
200
200
200
200
200
200
200
200
200
200
200
200
200
200
200
200
200
200
200
200
200
200
200
200
200
200
255
255
200
200
200
200
200
200
200
200
200
255
255
200
200
200
200
200
200
200
200
200
200
200
200
200
200
200
200
200
200
200
200
200
200
200
200
200
200
200
200
200
200
200
200
200
200
200
200
255
200
200
200
200
200
200
200
200
200
200
200
200
200
200
200
200
200
200
200
200
200
200
200
200
200
200
200
200
200
200
200
200
200
200
200
200
200
200
200
200
200
200
200
200
200
200
200
200
200
200
200
200
200
200
200
200
200
200
200
200
200
200
200
200
200
255
255
255
255
255
255
255
255
255
200
200
200
200
200
200
200
200
200
200
200
200
200
200
200
200
200
200
200
200
200
200
200
200
200
200
200
200
200
200
200
200
200
200
200
255
255
255
255
255
255
255
255
255
255
255
255
255
255
255
200
200
200
200
200
200
200
200
200
200
200
200
200
200
200
200
200
200
200
200
200
200
200
200
200
200
200
200
200
200
200
200
255
255
255
255
255
200
200
200
200
200
200
200
200
200
200
255
255
255
255
200
200
200
200
200
200
200
200
200
200
200
200
200
200
200
200
200
200
200
200
200
200
200
200
200
200
200
200
255
255
255
200
200
200
200
255
255
255
255
255
255
255
200
200
200
200
255
255
255
255
200
200
200
200
200
200
200
200
200
200
200
200
200
200
200
200
200
200
200
200
200
200
200
200
200
255
255
255
200
200
255
255
255
255
255
255
255
255
255
255
255
255
255
200
200
200
255
255
255
200
200
200
200
200
200
200
200
200
200
200
200
200
200
200
200
200
200
200
200
200
200
200
255
255
255
200
255
255
255
255
255
255
255
255
255
255
255
255
255
255
255
255
200
200
200
255
255
200
200
200
200
200
200
200
200
200
200
200
200
200
200
200
200
200
200
200
200
200
200
255
255
200
200
255
255
255
255
255
255
200
200
200
200
200
200
200
255
255
255
255
255
200
200
200
255
255
200
200
200
200
200
200
200
200
200
200
200
200
200
200
200
200
200
200
200
200
200
255
200
200
255
255
255
255
255
200
200
200
200
200
200
200
200
200
200
200
255
255
255
255
200
200
200
255
255
200
200
200
200
200
200
200
200
200
200
200
200
200
200
200
200
200
200
200
255
255
200
255
255
255
255
255
200
200
200
200
200
200
200
255
255
255
255
255
255
200
255
255
255
200
200
255
255
200
200
200
200
200
200
200
200
200
200
200
200
200
200
200
200
200
200
200
255
255
200
255
255
255
255
200
255
255
200
200
200
200
200
255
255
255
200
255
200
200
255
255
255
255
200
200
255
200
200
200
200
200
200
200
200
200
200
200
200
200
200
200
200
200
200
255
255
200
255
255
255
255
200
200
255
200
255
200
200
200
200
255
255
255
255
255
200
200
200
255
255
255
200
200
255
255
200
200
200
200
200
200
200
200
200
200
200
200
200
200
200
200
200
255
255
200
255
255
255
200
200
255
255
200
255
200
200
200
200
255
255
255
255
255
200
200
255
200
255
255
255
200
200
255
200
200
200
200
200
200
200
200
200
200
200
200
200
200
200
200
200
255
255
200
255
255
255
200
200
255
255
255
255
200
200
200
200
200
200
255
200
200
255
200
255
200
255
255
255
200
200
255
255
200
200
200
200
200
200
200
200
200
200
200
200
200
200
200
200
255
200
200
255
255
255
200
200
255
255
200
255
255
200
200
200
200
255
255
200
200
255
200
255
200
255
255
255
200
200
255
255
200
200
200
200
200
200
200
200
200
200
200
200
200
200
200
200
255
200
200
255
255
200
200
255
255
255
200
255
255
255
200
200
255
200
255
200
200
255
200
255
200
200
255
255
200
200
255
255
200
200
200
200
200
200
200
200
200
200
200
200
200
200
200
200
200
200
255
255
255
200
255
255
200
200
255
255
200
200
255
200
255
200
255
200
200
255
200
255
255
200
255
255
255
200
255
255
200
200
200
200
200
200
200
200
200
200
200
200
200
200
200
200
255
200
255
255
255
200
255
255
200
255
255
255
200
200
200
255
200
255
255
255
200
255
200
255
255
200
255
255
200
200
255
255
200
200
200
200
200
200
200
200
200
200
200
200
200
200
200
200
255
200
200
255
255
255
200
255
200
255
200
255
255
200
200
200
200
200
255
255
255
255
200
255
255
255
255
255
200
200
255
255
200
200
200
200
200
200
200
200
200
200
200
200
200
200
200
200
255
200
200
255
255
255
200
255
200
255
255
255
200
200
255
255
255
255
200
200
255
255
200
255
200
255
255
255
200
200
255
200
200
200
200
200
200
200
200
200
200
200
200
200
200
200
200
200
255
200
200
255
255
255
200
255
255
200
200
200
255
255
255
200
255
255
255
255
200
200
255
255
200
255
255
255
200
200
255
200
200
200
200
200
200
200
200
200
200
200
200
200
200
200
200
200
200
200
200
200
255
255
255
200
255
255
255
255
255
255
200
200
200
255
255
255
255
255
255
200
255
255
255
255
200
200
255
200
200
200
200
200
200
200
200
200
200
200
200
200
200
200
200
200
200
200
200
200
255
255
255
255
200
255
255
255
255
200
200
200
200
200
200
255
255
255
200
255
255
255
255
200
255
255
200
200
200
200
200
200
200
200
200
200
200
200
200
200
200
200
200
200
200
200
200
200
200
255
255
255
255
200
200
200
200
200
200
200
200
200
200
200
200
200
255
255
255
255
200
255
255
200
200
200
200
200
200
200
200
200
200
200
200
200
200
200
200
200
200
200
200
200
200
200
200
200
255
255
255
255
255
255
255
200
200
200
200
200
200
255
255
255
255
255
255
200
200
255
200
200
200
200
200
200
200
200
200
200
200
200
200
200
200
200
200
200
200
200
200
200
200
200
200
200
200
200
255
255
255
255
255
255
255
255
255
255
255
255
255
255
255
255
200
200
255
200
200
200
200
200
200
200
200
200
200
200
200
200
200
200
200
200
200
200
200
200
200
200
200
200
200
200
200
200
200
255
255
255
255
255
255
255
255
255
255
255
255
255
200
200
255
255
255
200
200
200
200
200
200
200
200
200
200
200
200
200
200
200
200
200
200
200
200
200
200
200
200
200
200
200
255
255
200
200
200
200
255
255
255
255
255
255
255
200
200
200
255
255
255
255
200
200
200
200
200
200
200
200
200
200
200
200
200
200
200
200
200
200
200
200
200
200
200
200
200
200
200
200
200
255
255
255
255
200
200
200
200
200
200
200
200
200
255
255
255
255
200
200
200
200
200
200
200
200
200
200
200
200
200
200
200
200
200
200
200
200
200
200
200
200
200
200
200
200
200
200
200
200
200
255
255
200
200
200
255
255
255
255
255
255
255
255
200
200
200
200
200
200
200
200
200
200
200
200
200
200
200
200
200
200
200
200
200
200
200
200
200
200
200
200
200
200
200
200
200
200
200
200
200
200
200
255
255
255
255
255
200
200
200
200
200
200
200
200
200
200
200
200
200
200
200
200
200
200
200
200
200
200
200
200
200
200
200
200
200
200
200
200
200
200
200
200
200
200
200
200
200
200
200
200
200
200
200
200
200
200
200
200
200
200
200
200
200
200
200
200
200
200
200
200
200
200
200
200
200
200
200
200
200
200
200
200
200
200
200
200
200
200
200
200
200
200
200
200
200
200
200
200
200
200
200
200
200
200
200
200
200
200
200
200
200
200
200
200
200
200
200
200
200
200
200
200
200
200
200
200
200
200
200
200
200
200
200
200
200
200
200
200
200
200
200
200
200
200
200
200
200
200
200
200
200
200
200
200
200
200
200
200
200
200
200
200
200
200
200
200
200
200
200
200
200
200
200
200
200
200
200
200
200
200
200
200
200
200
200
200
200
200
200
200
200
200
200
200
200
200
200
200
200
200
200
200
200
200
200
200
200
200
200
200
200
200
200
200
200
200
200
200
200
200
200
200
200
200
200
200
200
200
200
200
200
200
200
200
255
255
200
200
200
200
200
200
200
200
200
200
200
200
200
200
200
200
200
200
200
200
200
200
200
200
200
200
200
200
200
200
200
200
200
200
200
200
200
200
200
200
200
200
200
200
200
200
200
200
200
200
200
200
200
200
200
200
200
200
200
200
200
200
200
200
200
200
200
200
200
200
200
200
200
200
200
200
200
200
200
200
200
200
200
200
200
200
200
200
200
200
200
200
200
200
200
200
200
200
200
200
200
200
200
200
200
200
200
200
200
200
200
200
200
200
200
200
200
200
200
200
200
200
200
200
200
200
200
200
200
200
200
200
200
200
200
200
200
200
200
200
200
200
200
200
200
200
200
200
200
200
200
200
200
200
200
200
200
200
200
200
200
200
200
200
200
200
200
200
200
200
200
200
200
200
200
200
200
200
200
200
200
200
200
200
200
200
200
200
200
200
200
200
200
200
200
200
200
200
200
200
200
200
200
200
200
200
200
200
200
200
200
200
200
200
200
200
200
200
200
200
200
200
