P2
48 48 255

144
144
144
144
144
144
144
144
144
144
144
144
144
144
144
144
144
144
144
144
144
144
144
144
144
144
144
144
144
144
144
144
144
144
144
144
144
144
144
144
144
144
144
144
144
144
144
144
144
144
144
144
144
144
144
144
255
144
144
144
144
144
144
144
144
144
255
255
255
255
255
255
255
255
255
255
144
144
255
144
144
144
144
144
144
144
144
144
144
144
144
144
144
144
144
144
144
255
255
144
144
144
144
144
255
255
144
144
144
144
255
255
255
255
255
255
255
255
255
255
255
255
255
255
144
144
144
144
255
144
144
144
144
144
144
144
144
144
144
144
144
144
144
144
144
144
255
255
255
144
255
255
255
255
144
144
144
144
144
144
255
255
144
144
144
255
255
255
255
255
255
255
144
144
144
144
144
255
255
144
144
144
144
144
144
144
255
255
255
144
144
144
144
144
144
144
255
255
255
144
144
144
255
255
255
255
255
255
255
255
255
255
255
255
255
255
144
255
255
255
255
255
255
255
144
144
255
255
255
144
144
144
144
255
255
255
144
144
255
144
144
144
144
144
144
144
144
144
144
144
255
255
255
255
255
144
255
255
255
255
255
255
255
255
144
255
255
255
255
255
255
255
255
255
255
144
144
144
144
144
144
144
144
144
144
144
144
144
144
144
144
144
144
144
144
144
144
255
144
144
144
144
144
255
255
255
255
255
255
255
255
144
144
255
255
255
255
255
255
255
255
255
255
255
255
255
255
255
255
144
144
144
144
144
144
144
144
144
144
144
144
144
144
144
144
144
144
144
255
255
255
255
255
255
255
255
255
255
255
255
255
255
255
255
255
255
255
255
255
255
255
255
255
255
144
144
255
144
144
144
144
144
144
144
144
144
144
144
144
144
144
144
255
144
144
144
255
255
255
255
255
255
255
255
255
255
144
144
144
144
144
144
144
144
255
255
255
255
255
255
255
255
255
255
144
144
144
144
144
144
144
144
144
144
144
144
144
144
255
255
144
144
255
255
255
255
255
255
255
255
255
144
144
144
144
144
144
144
144
144
144
144
144
144
255
255
255
255
255
255
255
255
255
144
144
144
255
255
255
144
144
144
144
144
144
144
144
144
144
144
255
255
255
255
255
255
255
144
144
144
144
144
144
255
255
255
144
144
144
144
144
144
144
255
255
255
255
255
255
255
255
144
144
255
144
144
255
144
144
144
144
144
144
144
144
144
144
255
255
255
255
255
255
144
144
144
144
255
255
255
255
255
255
255
255
255
255
255
255
144
144
144
144
255
255
255
255
255
255
255
144
144
144
144
144
144
144
144
144
144
144
144
144
144
144
255
255
255
255
255
144
144
144
255
255
255
255
255
255
255
255
255
255
255
255
255
255
255
255
255
144
144
255
255
255
255
255
255
144
144
144
144
144
144
144
144
144
144
144
144
144
144
255
255
255
255
255
144
144
144
255
255
255
255
144
144
144
144
144
144
144
144
144
144
255
255
255
255
255
144
144
255
255
255
255
255
255
144
144
144
144
144
144
144
144
144
144
144
144
255
255
255
255
255
144
144
144
255
255
255
255
144
144
144
144
144
144
144
144
144
144
144
144
144
255
255
255
255
144
144
255
255
255
255
255
255
255
144
144
144
144
144
144
144
144
144
144
255
255
255
255
144
144
144
255
255
255
144
144
144
144
144
144
144
144
144
144
144
144
144
144
144
144
144
255
255
255
144
144
255
255
255
255
255
144
255
144
144
144
144
144
144
144
144
255
255
255
255
255
144
144
255
255
255
144
144
255
255
255
255
144
144
144
144
144
255
255
255
255
255
255
144
144
255
255
255
144
255
255
255
255
255
144
144
144
144
144
144
144
144
144
144
255
255
255
255
144
144
255
255
255
144
255
255
255
255
255
255
255
144
144
144
255
255
255
255
144
255
255
255
144
144
255
255
144
144
255
255
255
255
144
144
144
144
144
144
144
144
144
144
255
255
255
255
144
144
255
255
144
255
255
144
144
144
144
144
255
255
144
144
255
255
144
255
255
255
144
255
255
144
255
255
255
144
144
255
255
255
255
144
144
144
144
144
144
144
144
144
255
255
255
144
144
255
255
255
144
255
144
144
255
255
255
255
144
255
144
255
255
144
255
255
255
255
255
144
255
144
144
255
255
144
144
255
255
255
255
144
144
144
144
144
144
144
144
144
255
255
255
144
144
255
255
144
144
255
144
255
255
144
255
255
144
255
144
144
255
144
255
255
144
255
255
144
255
255
144
255
255
255
144
255
255
255
255
144
144
144
144
144
144
144
144
255
255
255
255
144
144
255
255
144
255
255
144
255
255
144
144
255
144
255
144
144
255
144
255
144
144
255
255
144
255
255
144
255
255
255
144
255
255
255
255
144
144
144
144
144
144
144
144
255
255
255
255
144
144
255
255
144
255
255
144
255
255
255
255
255
144
255
144
255
255
144
255
144
144
144
255
144
255
255
144
255
255
255
144
144
255
255
255
144
144
144
144
144
144
144
144
255
255
255
255
144
255
255
255
144
144
255
255
255
255
255
255
255
255
255
144
255
255
144
255
144
144
144
255
144
255
255
144
255
255
255
144
144
255
255
255
144
144
144
144
144
144
144
144
255
255
255
255
144
255
255
255
144
144
255
255
144
144
144
144
144
255
255
144
255
255
144
255
144
144
144
255
144
255
255
144
255
255
255
144
144
255
255
255
144
144
144
144
144
144
144
144
255
255
255
255
144
255
255
255
144
144
255
255
255
255
255
255
255
144
255
255
144
255
144
255
144
144
144
255
255
255
255
144
255
255
255
144
144
255
255
255
144
144
144
144
144
144
144
144
255
255
255
255
144
255
255
255
144
255
255
144
255
255
255
255
255
144
144
255
144
255
144
255
144
144
144
255
255
255
255
144
255
255
255
144
144
255
255
255
144
144
144
144
144
144
144
144
144
255
255
255
144
255
255
255
144
255
255
144
255
255
144
144
255
255
144
255
144
255
144
255
255
144
144
255
255
255
255
144
255
255
255
144
255
255
255
255
144
144
144
144
144
144
144
144
144
255
255
255
144
144
255
255
144
255
255
144
255
255
144
144
255
255
144
255
144
255
144
255
255
144
255
255
144
255
255
144
255
255
255
144
255
255
255
255
144
144
144
144
144
144
144
144
144
255
255
255
255
144
255
255
255
144
255
144
255
255
255
255
255
144
255
255
144
255
255
255
255
255
255
255
144
255
255
144
255
255
144
144
255
255
255
144
144
144
144
144
144
144
144
144
144
255
255
255
255
144
255
255
255
144
255
255
144
255
255
255
144
144
255
255
144
255
255
255
144
144
144
144
255
255
144
255
255
255
144
144
255
255
255
144
144
144
144
144
144
144
144
144
144
144
255
255
255
144
144
255
255
255
144
255
255
255
144
144
255
255
255
144
144
144
255
255
255
255
255
255
255
144
144
255
255
255
144
255
255
255
255
144
144
144
144
144
144
144
144
144
144
144
255
255
255
255
144
255
255
255
144
144
255
255
255
255
255
255
144
144
144
144
144
255
255
255
255
255
144
144
255
255
255
144
255
255
255
255
144
144
144
144
144
144
144
144
144
144
144
144
144
255
255
255
255
144
255
255
255
144
144
144
144
144
144
144
144
144
144
144
144
144
144
144
144
144
255
255
255
255
144
144
255
255
255
255
144
144
144
144
144
144
144
144
144
144
144
144
144
255
255
255
255
255
144
255
255
255
255
144
144
144
144
144
144
144
144
144
144
144
144
144
144
255
255
255
255
144
144
255
255
255
255
144
144
144
144
144
144
144
144
144
144
144
144
144
144
144
255
255
255
255
144
144
255
255
255
255
255
144
144
144
144
144
144
144
144
144
144
255
255
255
255
255
144
144
255
255
255
255
255
144
144
144
144
144
144
144
144
144
144
144
144
144
144
144
144
255
255
255
255
144
144
255
255
255
255
255
255
255
144
144
144
144
255
255
255
255
255
255
144
144
144
255
255
255
255
255
144
144
144
144
144
144
144
144
144
144
144
144
144
144
144
144
144
255
255
255
255
255
255
144
144
255
255
255
255
255
255
255
255
255
255
255
255
255
255
144
144
144
255
255
255
255
255
144
144
144
144
144
144
144
144
144
144
144
144
144
144
144
144
144
144
144
255
255
255
255
255
255
255
144
144
144
255
255
255
255
255
255
255
255
255
144
144
144
144
255
255
255
255
255
144
144
144
144
144
144
144
144
144
144
144
144
144
144
144
144
144
144
144
144
144
144
255
255
255
255
255
255
144
144
144
144
144
144
144
144
144
144
144
144
144
255
255
255
255
255
255
144
144
144
144
144
144
144
144
144
144
144
144
144
144
144
144
144
144
144
144
144
144
144
144
255
255
255
255
255
255
255
255
255
144
144
144
144
144
255
255
255
255
255
255
255
255
144
144
144
144
144
144
144
144
144
144
144
144
144
144
144
144
144
144
144
144
144
144
144
144
144
144
144
144
255
255
255
255
255
255
255
255
255
255
255
255
255
255
255
255
255
255
255
144
144
144
144
144
144
144
144
144
144
144
144
144
144
144
144
144
144
144
144
144
144
144
144
144
144
144
144
144
144
144
255
255
255
255
255
255
144
144
255
255
255
255
255
255
144
144
144
144
144
144
144
144
144
144
144
144
144
144
144
144
144
144
144
144
144
144
144
144
144
144
144
144
144
144
144
144
144
144
144
144
144
144
255
255
144
255
255
255
144
144
144
144
144
144
144
144
144
144
144
144
144
144
144
144
144
144
144
144
144
144
144
144
144
144
144
144
144
144
144
144
144
144
144
144
144
144
144
144
144
144
255
255
144
255
255
144
144
144
144
144
144
144
144
144
144
144
144
144
144
144
144
144
144
144
144
144
144
144
255
255
255
255
255
255
144
144
144
144
144
255
255
255
255
144
144
144
144
144
255
255
144
255
255
144
144
144
144
144
144
144
144
144
144
144
144
144
144
144
144
144
144
144
144
144
144
255
255
255
255
255
255
255
255
255
255
255
255
255
255
255
255
255
255
255
255
255
255
255
144
144
255
255
144
144
144
144
144
144
144
144
144
144
144
144
144
144
144
144
144
144
144
144
144
144
144
144
144
144
144
144
144
144
144
144
144
144
144
144
144
144
144
144
144
144
144
144
144
144
144
144
144
144
144
144
144
144
144
144
144
144
144
144
144
144
144
144
144
144
144
144
