P2
48 48 255

182
182
182
182
182
182
182
182
182
182
182
182
182
182
182
182
182
182
182
182
182
182
182
182
182
182
182
182
182
182
182
182
182
182
182
182
182
182
182
182
182
182
182
182
182
182
182
182
182
255
255
255
255
255
255
255
182
255
255
182
182
255
255
255
255
182
255
255
255
182
255
255
255
255
255
182
182
255
255
255
255
255
255
255
255
255
182
182
182
182
182
182
255
182
255
182
182
255
255
255
255
182
255
182
255
255
182
182
255
255
182
182
182
182
182
255
255
182
255
255
255
255
255
182
182
255
255
255
255
255
255
255
182
255
255
182
182
182
182
182
255
182
255
182
182
255
255
255
255
255
182
182
255
255
255
255
255
182
182
182
255
255
255
255
255
255
255
255
255
255
255
182
182
255
255
255
255
255
255
255
182
255
255
182
182
182
182
182
182
182
182
182
182
255
255
255
255
182
182
182
255
255
255
255
255
182
182
182
255
182
255
255
255
255
255
255
255
255
255
182
182
255
255
255
255
255
255
255
182
255
255
255
255
255
182
255
255
255
255
182
182
182
255
182
182
255
182
182
182
182
255
255
182
255
182
182
255
182
182
255
255
255
255
255
255
255
255
182
182
182
255
255
255
255
255
182
182
255
255
255
255
255
255
255
255
255
255
182
182
182
255
182
182
255
255
255
255
182
182
255
255
255
182
182
182
182
255
255
255
255
255
255
255
182
255
182
182
182
255
255
255
255
255
255
182
182
255
255
182
182
182
182
182
255
182
182
182
255
255
255
182
182
255
255
182
182
182
255
255
255
255
182
255
255
255
255
255
255
255
182
182
182
182
182
182
182
255
255
255
255
182
182
182
182
182
255
182
182
182
182
182
255
182
182
182
182
182
255
182
182
182
255
255
182
182
182
182
255
255
255
255
255
255
255
255
255
255
255
255
182
182
182
182
182
255
255
255
255
182
182
182
182
182
182
182
255
182
255
182
255
182
182
182
182
182
255
255
255
182
182
182
182
255
182
182
182
182
182
255
255
255
255
255
182
182
182
255
255
182
182
182
182
255
255
255
255
255
255
255
182
182
182
182
182
255
255
182
182
255
182
182
182
182
182
255
182
182
182
182
182
255
182
182
255
182
255
255
255
255
255
182
255
182
182
182
255
255
255
182
182
255
255
255
255
182
182
255
255
255
182
182
182
182
255
255
255
255
182
182
182
182
182
182
182
182
182
182
182
182
182
182
182
255
255
255
255
255
182
255
182
182
182
182
182
255
255
255
182
255
255
255
182
182
182
255
255
255
255
182
182
182
255
255
255
255
182
182
182
182
182
182
182
182
182
182
182
182
182
182
255
255
255
255
255
182
255
182
182
182
182
182
182
182
255
255
255
255
255
255
255
182
182
182
255
255
255
182
182
182
255
182
182
182
182
182
182
182
182
182
182
182
182
182
182
182
182
255
255
255
255
255
182
182
182
182
182
255
255
255
182
182
182
255
255
182
255
255
255
255
182
182
182
182
182
182
255
255
182
182
182
182
182
182
182
182
182
182
182
182
182
182
182
182
182
182
255
255
255
182
182
182
182
182
182
255
255
255
255
182
182
182
182
255
255
255
255
255
255
182
182
182
182
182
182
182
182
182
182
182
182
182
182
182
182
182
182
182
182
182
182
182
182
255
255
255
182
182
182
182
182
182
182
182
182
182
255
255
182
182
182
182
255
255
182
255
255
255
182
182
182
182
182
182
182
182
182
182
182
182
182
182
182
182
182
182
182
182
182
255
255
255
255
182
255
182
182
182
182
182
182
182
182
182
182
255
255
182
182
182
182
255
255
182
255
255
255
182
182
182
182
182
182
182
182
182
182
182
182
182
182
182
182
182
182
182
182
255
255
255
182
255
182
182
182
182
182
182
182
182
182
182
182
182
255
255
182
182
182
182
255
255
182
255
255
255
182
182
182
182
182
182
182
182
182
182
182
182
182
182
182
182
182
182
255
255
255
182
182
182
182
182
182
182
182
182
182
182
182
182
182
182
182
255
255
182
182
182
182
255
255
182
255
255
255
182
182
182
182
182
182
182
182
182
182
182
182
182
182
182
182
255
255
255
182
255
182
182
182
182
182
182
182
182
182
182
182
182
182
182
182
182
255
255
182
182
182
182
255
255
182
255
255
255
182
182
182
182
182
182
182
182
182
182
182
182
182
182
255
255
255
182
182
182
182
182
182
255
182
182
182
182
182
182
182
182
182
182
182
182
182
255
255
255
182
182
182
255
255
182
255
255
255
255
182
182
182
182
182
182
182
182
182
182
182
255
255
255
182
182
182
182
182
182
255
182
182
182
182
182
182
182
182
182
182
182
182
182
182
182
182
255
255
182
182
182
255
255
255
255
255
255
255
182
182
182
182
182
182
182
182
182
255
255
255
182
182
182
182
182
182
255
182
182
182
182
182
182
182
182
182
182
182
182
182
182
182
182
182
182
255
255
182
182
182
182
255
255
182
255
255
182
182
182
182
182
182
182
182
255
255
255
182
182
182
182
182
182
255
255
182
182
182
182
182
182
182
182
182
182
182
182
182
182
182
182
182
182
182
255
255
182
182
182
182
255
255
255
255
182
182
182
182
182
182
182
182
255
255
182
182
182
182
182
182
255
255
182
182
182
182
182
182
182
182
182
182
182
182
182
182
182
182
182
182
182
182
182
255
182
182
182
182
255
255
255
255
182
182
182
182
182
182
182
182
255
255
182
182
182
182
182
182
182
182
182
182
182
182
182
182
182
182
182
182
182
182
182
182
182
182
182
182
182
182
255
182
182
182
182
255
255
182
255
255
182
182
182
182
182
182
182
182
255
255
182
255
255
182
182
182
182
255
182
182
182
182
182
182
182
182
182
182
182
182
182
182
182
182
182
182
182
255
182
182
182
182
255
255
182
255
255
182
182
182
182
182
182
182
182
182
255
255
255
182
255
255
182
182
182
182
255
255
182
182
182
182
182
182
182
182
182
182
182
182
182
182
182
182
255
182
182
182
182
255
255
182
255
255
255
182
182
182
182
182
182
182
182
182
182
255
255
255
182
255
255
182
182
182
182
255
255
182
182
182
182
182
182
182
182
182
182
182
182
182
182
255
182
182
182
182
255
255
182
255
255
182
182
182
182
182
182
182
182
182
182
182
182
182
255
255
255
182
255
255
182
182
182
182
255
182
182
182
182
182
182
182
182
182
182
182
182
182
255
182
182
182
182
255
255
182
255
255
255
182
182
182
182
182
182
182
182
182
182
182
182
182
182
255
255
255
255
255
255
182
182
182
182
255
255
182
182
182
182
182
182
182
182
182
182
255
182
182
182
182
255
255
182
255
255
255
182
182
182
182
182
182
182
182
182
182
182
182
182
182
182
182
255
255
255
255
182
255
182
182
182
182
255
255
182
182
182
182
182
182
182
182
255
182
182
182
182
255
255
182
255
255
255
182
182
182
182
182
182
182
182
182
182
182
182
182
182
182
182
182
182
182
255
255
255
182
255
182
182
182
182
255
255
255
182
182
182
182
182
255
255
182
182
182
255
255
182
255
255
255
182
182
182
182
182
182
182
182
182
182
182
182
182
182
182
182
182
182
182
182
182
255
255
255
182
255
182
182
182
182
255
255
255
182
182
182
255
255
182
182
182
182
255
182
255
255
255
182
182
182
182
182
182
182
182
182
182
182
182
182
182
182
182
182
182
182
182
182
182
182
255
255
255
182
255
182
182
182
182
182
255
255
182
255
255
182
182
182
182
255
182
255
255
255
182
182
182
182
182
182
182
182
182
182
182
182
182
182
182
182
182
182
182
182
182
182
182
182
182
255
255
255
182
255
255
182
182
182
182
255
255
255
182
182
182
182
255
255
255
255
255
182
182
182
182
182
182
182
182
182
182
182
182
182
182
182
182
182
182
182
182
182
182
182
182
182
182
182
255
255
255
182
255
255
182
182
182
182
182
182
182
182
182
255
255
182
255
255
182
182
182
182
182
182
182
182
182
182
182
182
182
182
182
182
182
182
182
182
182
182
182
182
182
182
182
182
182
255
255
255
182
255
255
182
182
182
182
182
182
182
255
255
182
255
255
255
182
182
182
182
182
182
182
182
182
182
182
182
182
182
182
182
182
182
182
182
182
182
182
182
182
182
182
182
182
182
255
255
255
182
255
255
182
182
182
182
255
255
255
182
182
255
255
255
182
182
182
182
182
182
182
182
182
182
182
182
182
182
182
182
182
182
182
182
182
182
182
182
182
182
182
182
182
182
182
255
255
255
255
255
255
182
182
182
255
255
182
182
182
255
255
255
182
182
182
182
182
182
182
182
182
182
182
182
182
182
182
182
182
182
182
182
182
182
182
182
182
182
182
182
182
182
182
182
182
255
255
255
182
255
255
255
255
182
182
182
182
255
255
255
182
182
182
182
182
182
182
182
182
182
182
182
182
182
182
182
182
182
182
182
182
182
182
182
182
182
182
182
182
182
182
182
182
182
255
255
255
182
255
255
182
182
182
182
182
255
255
255
182
182
182
182
182
182
182
182
182
182
182
182
182
182
182
182
182
182
182
182
182
182
182
182
182
182
182
182
182
182
182
182
182
182
182
255
255
255
182
182
182
182
182
182
182
255
255
255
182
182
182
182
182
182
182
182
182
182
182
182
182
182
182
182
182
182
182
182
182
182
182
182
182
182
182
182
182
182
182
182
182
182
182
182
255
255
255
182
182
182
182
182
182
182
255
255
182
182
182
182
182
182
182
182
182
182
182
182
182
182
182
182
182
182
182
182
182
182
182
182
182
182
182
182
182
182
182
182
182
182
182
182
182
255
255
182
182
182
182
182
182
182
255
255
182
182
182
182
182
182
182
182
182
182
182
182
182
182
182
182
182
182
182
182
182
182
182
182
182
182
182
182
182
182
182
182
182
182
182
182
182
255
255
255
182
182
182
182
182
182
255
255
182
182
182
182
182
182
182
182
182
182
182
182
182
182
182
182
182
182
182
182
182
182
182
182
182
182
182
182
182
182
182
182
182
182
182
182
182
255
255
182
182
182
182
182
182
182
255
255
182
182
182
182
182
182
182
182
182
182
182
182
182
182
182
182
182
182
182
182
182
182
182
182
182
182
182
182
182
182
182
182
182
182
182
182
182
182
182
182
182
182
182
182
182
182
182
182
182
182
182
182
182
182
182
182
182
182
182
182
182
182
