P2
48 48 255

177
177
177
177
177
177
177
177
177
177
177
177
177
177
177
177
177
177
177
177
177
177
177
177
177
177
177
177
177
177
177
177
177
177
177
177
177
177
177
177
177
177
177
177
177
177
177
177
177
177
177
177
177
177
177
177
177
177
177
177
177
177
177
177
177
177
177
177
177
177
177
177
177
177
177
177
177
177
177
177
177
177
177
177
177
177
177
177
177
177
177
177
177
177
177
177
177
177
177
177
177
177
177
177
177
177
177
177
177
177
177
177
177
177
177
177
177
177
177
177
177
177
177
177
177
177
177
177
177
177
177
177
177
177
177
177
177
177
177
177
177
177
177
177
177
177
177
177
177
177
177
177
177
177
177
177
177
177
177
177
177
177
177
177
177
177
177
177
177
177
177
177
177
177
177
177
177
177
177
177
177
177
177
177
177
177
177
177
177
177
177
177
177
177
177
177
177
177
177
177
177
177
177
177
177
177
177
177
177
177
177
177
177
177
177
177
177
177
177
177
177
177
177
177
177
177
177
177
177
177
177
177
177
177
177
177
177
177
177
177
177
177
177
177
177
177
177
177
177
177
177
177
177
177
177
177
177
177
177
177
177
177
177
177
177
255
177
177
177
177
177
177
177
177
177
177
177
177
177
177
177
177
177
177
177
177
177
177
177
177
177
177
177
177
177
177
177
177
177
177
177
177
177
177
177
177
177
177
177
177
177
177
177
177
177
177
177
177
177
177
177
177
177
177
177
177
177
177
177
177
177
177
177
177
177
177
177
177
177
177
177
177
177
177
177
177
177
177
177
177
177
177
177
177
177
177
255
255
177
177
177
177
177
177
177
177
177
177
177
177
177
177
177
177
177
177
177
177
177
177
177
177
177
177
177
177
177
177
177
177
177
177
177
177
177
177
177
177
177
177
177
177
177
177
177
255
255
255
255
255
255
255
177
177
177
177
177
177
177
177
177
177
177
177
177
177
177
177
177
177
177
177
177
177
177
177
177
177
177
177
177
177
177
177
177
177
255
177
177
177
255
255
255
255
255
255
255
255
255
255
255
255
255
177
177
177
177
177
177
177
177
177
177
177
177
177
177
177
177
177
177
177
177
177
177
177
177
177
177
177
177
177
255
255
177
177
177
255
255
255
255
177
177
177
177
177
177
177
177
255
255
255
255
177
177
177
177
177
177
177
177
177
177
177
177
177
177
177
177
177
177
177
177
177
177
177
177
177
177
255
177
177
177
255
255
255
177
177
177
255
255
255
255
255
255
255
177
177
177
255
255
255
255
177
177
177
177
177
177
177
177
177
177
177
177
177
177
177
177
177
177
177
177
177
177
177
177
177
177
177
255
255
255
177
177
255
255
255
255
255
255
255
255
255
255
255
255
177
177
255
255
255
177
177
177
177
177
177
177
177
177
177
177
177
177
177
177
177
177
177
177
177
177
177
177
177
177
255
255
177
177
255
255
255
255
255
255
255
255
255
255
255
255
255
255
255
255
177
255
255
255
177
177
177
177
177
177
177
177
177
177
177
177
177
177
177
177
177
177
177
177
177
177
177
255
255
177
177
255
255
255
255
255
255
177
177
177
177
177
177
255
255
255
255
255
255
177
177
255
255
177
177
177
177
177
177
177
177
177
177
177
177
177
177
177
177
177
177
177
177
177
255
255
177
255
255
255
255
255
255
177
177
177
177
177
177
177
177
177
177
177
255
255
255
255
177
255
255
177
177
255
177
177
177
177
177
177
177
177
177
177
177
177
177
177
177
177
177
255
255
177
177
255
255
255
255
255
177
177
177
177
177
177
177
255
255
255
255
255
177
177
255
255
255
177
255
255
177
177
177
177
177
177
177
177
177
177
177
177
177
177
177
177
177
255
177
255
255
177
255
255
255
255
177
177
177
177
177
177
177
177
255
255
255
255
255
255
255
177
177
255
255
255
177
255
255
177
177
177
177
177
177
177
177
177
177
177
177
177
177
177
177
177
177
255
177
255
255
255
255
177
177
255
255
255
177
177
177
255
255
255
177
177
177
177
177
255
177
177
255
255
177
255
255
177
177
177
177
177
177
177
177
177
177
177
177
255
177
255
255
177
255
255
177
255
255
255
255
177
255
255
177
255
255
177
177
255
255
177
255
255
255
255
177
177
255
177
255
255
255
177
255
255
177
177
177
255
177
177
177
177
177
177
177
255
177
255
255
177
255
177
255
255
255
255
177
177
255
255
177
255
255
177
177
255
255
177
255
255
177
255
177
177
255
177
255
255
255
177
255
255
177
177
255
177
177
177
177
177
177
177
177
177
177
255
177
255
255
177
255
255
255
255
177
255
255
255
177
255
255
177
177
255
255
177
255
177
177
255
255
177
255
177
177
255
255
255
177
255
177
177
255
177
177
177
177
177
177
177
177
177
255
255
177
255
255
177
255
255
255
177
177
255
255
177
255
255
177
177
177
255
255
177
255
255
177
255
255
177
255
177
177
255
255
255
177
255
177
177
255
177
177
177
177
177
177
177
177
177
255
255
177
255
255
177
255
255
255
177
177
255
255
177
255
255
255
177
177
255
255
177
255
255
177
255
255
177
255
255
177
255
255
255
177
255
177
177
255
177
177
177
177
177
177
177
177
177
255
255
177
255
255
177
255
255
255
177
177
255
255
177
255
255
255
255
255
177
255
177
255
255
177
177
255
177
177
255
177
255
255
255
177
255
255
177
255
177
177
177
177
177
177
177
177
177
255
255
177
255
255
177
255
255
255
177
177
255
255
177
177
177
255
255
255
177
255
177
255
255
177
177
255
177
177
255
177
255
255
255
177
255
255
255
255
177
177
177
177
177
177
177
177
177
255
255
177
255
255
177
255
255
255
177
255
255
255
177
255
255
255
177
255
255
255
255
177
255
177
177
255
177
177
255
177
255
255
255
177
255
255
177
255
177
177
177
177
177
177
177
177
177
255
255
177
255
255
177
255
255
255
177
255
255
177
255
255
255
255
255
255
255
177
255
177
255
255
177
255
177
177
177
177
255
255
255
177
255
255
177
255
177
177
177
177
177
177
177
177
177
177
255
177
255
255
177
255
255
255
177
255
255
177
255
255
177
255
255
177
255
177
255
177
255
255
255
255
177
177
177
177
255
255
255
255
255
177
177
177
177
177
177
177
177
177
177
177
177
177
255
177
255
255
177
255
255
255
177
177
255
177
255
255
177
255
255
177
255
177
255
255
177
255
255
177
177
255
177
177
255
255
177
255
255
177
177
177
177
255
255
177
177
177
177
177
177
177
255
177
177
255
255
177
255
255
177
177
255
177
255
255
255
255
255
177
255
177
177
255
255
255
177
255
255
255
177
255
255
255
177
255
255
177
255
255
177
177
177
177
177
177
255
177
177
177
177
255
177
255
255
177
255
255
255
177
255
255
177
255
255
255
177
255
255
177
177
177
255
255
255
255
255
177
255
255
255
177
255
255
177
255
255
177
177
177
177
177
177
177
255
255
177
177
177
255
177
177
255
177
177
255
255
255
177
255
255
255
177
255
255
255
255
177
177
177
177
177
177
177
177
255
255
255
255
177
255
255
177
255
177
177
177
177
177
177
177
177
255
255
177
177
177
177
177
177
255
255
177
255
255
255
255
177
255
255
255
255
255
255
177
177
177
177
177
177
177
177
255
255
255
255
177
255
255
177
255
255
177
177
177
177
177
177
177
177
255
177
177
177
177
177
255
177
177
255
255
177
255
255
255
255
177
177
177
177
177
177
177
177
177
177
177
177
177
255
255
255
255
177
177
255
255
177
255
177
177
177
177
177
177
177
177
177
177
177
177
177
177
177
255
255
177
177
255
255
177
255
255
255
255
255
177
177
177
177
177
177
177
177
177
255
255
255
255
255
177
177
255
255
177
255
177
177
177
177
177
177
177
177
177
177
177
177
177
177
177
177
177
255
255
177
255
255
255
177
255
255
255
255
255
255
255
255
255
177
255
255
255
255
255
255
255
177
177
255
255
177
177
255
177
255
255
177
177
177
177
177
177
177
177
177
177
177
177
177
177
255
255
177
177
255
255
255
177
177
255
255
255
255
255
255
255
255
255
255
255
255
255
177
177
177
255
255
177
177
255
255
177
255
177
177
177
177
177
177
177
177
177
177
177
177
255
177
177
255
255
177
177
177
255
255
255
255
177
177
255
255
255
255
255
255
255
255
255
177
177
177
255
255
255
177
177
255
177
177
255
255
177
177
177
177
177
177
177
255
177
255
177
177
255
177
177
177
177
177
177
177
177
177
255
255
255
255
177
177
177
177
177
177
177
177
177
177
255
255
255
255
177
255
177
177
177
177
177
177
177
177
177
177
177
177
177
255
177
255
177
255
177
177
177
177
177
177
177
255
177
177
177
177
255
255
255
255
255
255
255
255
255
255
255
255
255
255
177
177
255
177
177
177
177
177
177
177
177
177
177
177
177
177
177
255
177
177
255
177
177
177
177
177
177
177
177
177
177
177
177
177
177
177
255
255
255
255
255
255
255
255
255
177
177
255
255
255
177
177
177
177
177
177
177
177
177
177
177
177
177
177
177
177
177
177
177
177
177
177
177
177
177
177
177
177
177
177
177
177
177
177
177
177
177
177
177
177
177
177
255
255
255
177
177
177
177
177
177
177
177
177
177
177
177
177
177
177
177
177
177
177
177
177
177
255
255
177
177
177
177
177
177
177
177
177
177
177
177
177
177
255
255
255
255
177
177
177
177
177
177
177
177
177
177
177
177
177
177
177
177
177
177
177
177
177
177
177
177
177
177
177
255
255
177
177
177
177
177
177
177
177
177
177
177
177
177
177
177
177
177
177
177
177
177
177
177
177
177
177
177
177
177
177
177
177
177
177
177
177
177
177
177
177
177
177
177
177
177
255
255
177
177
177
177
177
177
177
177
177
177
177
177
177
177
177
177
177
177
177
177
177
177
177
177
177
177
177
177
177
177
177
177
177
177
177
177
177
177
177
177
177
177
177
177
177
177
255
177
177
177
177
177
177
177
177
177
177
177
177
177
177
177
177
177
177
177
177
255
255
255
177
177
177
177
255
177
177
177
255
177
177
177
177
177
177
177
177
177
177
177
177
177
177
177
177
177
177
177
177
177
177
177
177
177
177
177
177
177
177
177
177
177
177
177
177
177
177
177
177
177
177
177
177
177
177
177
177
177
177
177
177
177
177
177
177
177
177
177
177
