P2
48 48 255

179
179
179
179
179
179
179
179
179
179
179
179
179
179
179
179
179
179
179
179
179
179
179
179
179
179
179
179
179
179
179
179
179
179
179
179
179
179
179
179
179
179
179
179
179
179
179
179
179
255
255
179
255
255
179
179
179
179
179
179
179
255
255
179
179
179
179
179
179
179
179
179
179
179
179
179
179
179
179
179
179
179
179
179
179
179
179
179
179
179
179
179
179
179
179
179
179
255
179
179
179
255
255
179
179
179
179
179
179
255
255
179
179
179
179
179
179
179
179
179
179
179
179
179
179
179
179
179
179
179
179
179
179
179
179
179
179
179
179
179
179
179
179
179
179
255
255
179
255
255
255
179
179
179
179
179
179
255
255
179
179
179
179
179
179
179
179
179
179
179
179
179
179
179
179
179
179
179
179
179
179
179
179
179
179
179
179
179
179
179
179
179
179
179
255
179
255
255
255
179
179
179
179
179
255
255
255
179
179
179
179
179
179
179
179
179
179
179
179
179
179
179
179
179
179
179
179
179
179
179
179
179
179
179
179
179
179
179
179
179
179
255
255
255
255
255
179
179
179
179
179
255
255
255
255
179
179
179
179
179
179
179
179
179
255
179
179
179
179
179
179
179
179
179
179
179
179
179
179
179
179
179
179
179
179
179
179
179
179
255
179
255
255
255
179
179
179
179
179
255
255
179
179
179
179
179
179
179
179
179
179
255
255
179
179
179
179
179
179
179
179
179
179
179
179
179
179
179
179
179
179
179
179
179
179
179
179
255
255
255
255
179
179
179
179
179
179
255
255
179
179
179
179
179
179
179
179
179
255
255
179
255
255
179
179
179
179
179
179
179
179
179
179
179
179
179
179
179
179
179
179
179
179
179
179
255
255
255
255
179
179
179
179
179
179
255
255
179
179
179
179
179
179
179
179
255
255
255
179
179
255
179
179
179
179
179
179
179
179
179
179
179
179
179
179
179
179
179
179
179
179
179
179
255
255
255
255
179
179
179
179
179
255
255
255
179
179
179
179
179
179
179
179
255
255
179
179
179
255
255
179
179
179
179
179
179
179
179
179
179
179
179
179
179
179
179
179
179
179
179
179
255
255
255
255
255
179
179
179
179
255
255
179
179
179
179
179
179
179
179
255
255
255
179
179
179
179
255
179
179
179
179
179
179
179
179
179
179
179
179
179
179
179
179
179
179
179
179
179
255
255
255
255
255
255
179
179
179
255
255
179
179
179
179
179
179
179
179
255
255
179
179
179
179
179
179
255
179
179
179
179
179
179
179
179
179
179
179
179
179
179
179
179
179
179
179
179
255
255
255
255
255
255
255
255
179
255
255
255
179
179
179
179
179
179
255
255
255
179
255
255
255
179
179
255
179
179
179
179
179
179
179
179
179
179
179
179
179
179
179
179
179
179
179
179
255
255
255
255
179
255
255
255
255
255
255
255
179
179
179
179
179
179
255
255
179
255
255
255
255
255
179
255
255
179
179
179
179
179
179
179
179
179
179
179
179
179
179
179
179
179
179
179
179
255
255
255
255
179
179
255
255
255
255
255
179
179
179
179
179
255
255
255
179
255
255
179
255
255
179
179
255
255
179
179
179
179
179
179
179
179
179
179
179
179
179
179
179
179
179
179
179
179
255
255
255
255
255
179
255
255
255
255
179
179
179
179
179
255
255
179
255
255
255
179
255
255
255
179
255
255
179
179
179
179
179
179
179
179
179
179
179
179
179
179
179
179
179
179
179
179
179
255
255
255
255
255
179
179
255
255
255
179
179
179
255
255
179
179
255
255
255
179
255
255
255
179
179
255
255
179
179
179
179
179
179
179
179
179
179
179
179
179
179
179
179
179
179
179
179
179
255
255
179
179
255
179
179
179
179
179
179
179
255
255
179
255
255
255
179
179
179
255
255
255
179
255
255
179
179
179
179
179
179
179
179
179
179
179
179
179
179
179
179
179
179
179
179
255
255
255
179
179
255
255
179
179
179
179
179
255
255
179
179
255
255
255
179
179
179
179
255
255
179
179
255
255
179
179
179
179
179
179
179
179
179
179
179
179
179
179
179
179
179
179
255
255
255
255
179
179
179
255
179
179
179
179
179
255
255
179
255
255
255
179
179
255
179
179
255
255
255
179
179
255
179
179
179
179
179
179
179
179
179
179
179
179
179
179
179
179
179
255
255
255
179
179
179
179
179
255
255
179
179
179
255
255
179
179
255
255
255
255
255
255
255
179
179
255
255
179
179
255
255
179
179
179
179
179
179
179
179
179
179
179
179
179
179
179
179
255
255
179
179
179
255
255
255
255
179
179
179
179
255
255
179
255
255
255
179
255
255
255
255
255
179
179
255
255
179
255
255
179
179
179
179
179
179
179
179
179
179
179
179
179
179
179
255
255
255
255
255
255
179
179
255
255
179
179
179
179
255
179
179
255
255
179
255
255
255
179
255
255
255
179
255
255
179
179
255
179
179
179
179
179
179
179
179
179
179
179
179
179
179
179
255
255
255
255
179
179
179
179
179
179
179
179
179
255
255
179
255
255
255
179
255
255
179
179
255
255
255
179
179
255
255
179
179
179
179
179
179
179
179
179
179
179
179
179
179
179
179
179
255
255
255
179
179
179
179
179
179
179
179
179
179
255
179
179
255
255
179
255
255
255
179
179
179
255
255
255
179
255
255
179
179
179
179
179
179
179
179
179
179
179
179
179
179
179
179
179
179
179
179
179
179
179
179
179
179
179
179
179
179
255
179
255
255
255
179
255
255
255
179
179
179
255
255
255
179
255
255
255
179
179
179
179
179
179
179
179
179
179
179
179
179
179
179
179
179
179
179
179
179
179
179
179
179
179
179
179
255
179
179
255
255
179
255
255
255
255
179
179
179
255
255
255
179
179
255
255
179
179
179
179
179
179
179
179
179
179
179
179
179
179
179
179
179
179
179
179
179
179
179
179
179
179
179
255
255
179
255
255
179
255
255
255
255
179
179
179
179
255
255
255
255
255
179
255
255
179
179
179
179
179
179
179
179
179
179
179
179
179
179
179
179
179
179
179
179
179
179
179
179
179
179
255
179
179
255
255
179
255
179
179
179
179
179
179
179
179
255
255
179
255
179
255
255
179
179
179
179
179
179
179
179
179
179
179
179
179
179
179
179
179
179
179
179
179
179
179
179
179
255
255
179
255
255
255
255
255
255
255
255
255
179
179
179
179
255
255
255
255
179
255
255
255
179
179
255
179
179
179
179
179
179
179
179
179
179
179
179
179
179
179
179
179
179
179
255
179
255
179
179
255
255
255
255
255
255
255
255
255
179
179
179
255
255
255
255
255
179
179
255
255
179
179
255
179
179
179
179
179
179
179
179
179
179
179
179
179
179
179
179
179
179
179
179
255
255
179
255
255
255
255
255
255
255
255
255
255
179
179
179
255
255
255
179
179
179
179
255
255
255
179
179
255
179
179
179
179
179
179
179
179
179
179
179
179
179
179
179
179
179
255
179
255
179
179
255
255
255
179
179
179
255
255
255
255
179
179
179
255
255
255
179
179
179
179
255
255
255
179
179
255
179
179
179
179
179
179
179
179
179
179
179
179
179
179
179
179
179
179
179
255
179
255
255
255
255
179
179
179
255
255
255
255
255
255
255
255
255
255
179
179
179
179
179
255
255
255
179
179
179
179
179
179
179
179
179
179
179
179
179
179
179
179
179
179
179
179
255
179
179
255
255
255
179
179
179
179
255
255
255
255
255
255
255
255
255
255
179
179
179
179
179
179
255
255
179
179
255
179
179
179
179
179
179
179
179
179
179
179
179
179
179
179
179
179
255
179
255
255
255
255
179
179
179
179
255
255
255
255
255
255
255
255
255
255
179
179
179
179
179
179
255
255
255
179
179
179
179
179
179
179
179
179
179
179
179
179
179
179
179
255
179
255
179
179
255
255
255
179
179
179
179
179
255
255
255
255
179
179
179
179
179
179
179
179
179
179
179
179
179
255
255
179
179
255
179
179
179
179
179
179
179
179
179
179
179
179
255
179
255
255
179
255
255
255
255
255
255
255
255
255
255
255
179
255
255
255
255
179
179
179
255
255
255
255
179
179
179
255
255
255
179
255
179
179
179
179
255
255
179
179
179
179
179
179
255
179
255
179
179
255
255
255
255
255
255
255
255
255
255
255
255
255
255
255
255
255
255
255
255
255
255
255
255
255
255
255
255
255
179
179
255
179
179
179
255
179
179
179
179
179
179
179
179
255
255
179
179
179
255
255
255
255
255
255
255
255
255
255
255
255
255
255
255
255
255
255
255
255
255
255
255
255
255
255
255
179
179
179
255
179
179
179
255
179
179
179
179
179
179
179
179
255
179
179
179
179
179
179
179
179
179
179
179
179
179
179
179
179
179
179
179
179
179
179
179
179
179
179
179
179
179
179
179
179
179
179
179
179
179
179
255
179
179
179
179
179
179
179
179
255
255
255
255
255
255
255
255
255
255
255
255
255
255
255
255
255
255
255
255
255
255
255
255
255
255
255
255
255
255
255
255
255
255
255
255
255
179
179
179
179
179
179
179
179
179
179
179
179
255
255
255
255
255
255
255
255
255
255
255
255
255
255
255
255
255
179
179
255
255
255
255
255
255
255
255
255
255
255
255
255
255
255
255
255
179
179
179
179
179
179
179
179
179
179
179
179
179
179
179
179
179
179
179
179
179
179
179
179
179
179
179
255
255
255
179
179
179
179
179
179
179
179
179
179
179
179
179
179
179
179
179
179
179
179
179
179
179
179
179
179
179
179
179
179
179
255
255
255
255
255
179
179
179
179
179
179
179
179
179
179
179
179
179
179
255
255
255
255
179
179
179
179
179
179
179
179
179
179
179
179
179
179
179
179
179
179
179
179
179
179
179
179
179
179
179
179
179
179
179
179
179
179
179
179
179
179
179
179
179
179
179
179
179
179
179
179
179
179
179
179
179
179
179
179
179
179
179
179
179
179
179
179
179
179
179
179
179
179
179
179
179
179
179
179
179
179
179
179
179
179
179
179
179
179
179
179
179
179
179
179
179
179
179
179
179
179
179
179
179
179
179
179
179
179
179
179
179
179
179
179
179
179
179
179
179
179
179
179
179
179
179
179
179
179
179
179
179
179
179
179
179
179
179
179
179
179
179
179
179
179
179
179
179
179
179
179
179
179
179
179
179
179
179
179
179
179
179
179
179
