P2
48 48 255

201
201
201
201
201
201
201
201
201
201
201
201
201
201
201
201
201
201
201
201
201
201
201
201
201
201
201
201
201
201
201
201
201
201
201
201
201
201
201
201
201
201
201
201
201
201
201
201
201
201
201
201
201
201
255
255
255
255
201
201
255
255
201
201
201
201
201
201
201
201
201
201
201
201
201
201
201
201
201
201
201
201
201
201
201
201
201
201
201
201
255
201
201
201
201
201
201
201
201
201
255
255
201
201
201
201
201
201
255
255
255
255
255
255
255
201
201
201
201
201
201
201
201
201
201
201
201
201
201
201
201
201
201
201
201
201
201
201
201
201
201
201
201
201
201
201
201
201
201
201
201
201
201
201
201
201
201
201
201
201
201
201
201
201
201
201
201
201
201
201
201
201
201
201
201
201
201
201
201
201
201
201
201
201
201
201
201
201
201
201
201
201
201
201
201
201
201
201
201
201
201
201
201
201
255
255
201
201
201
201
201
201
201
201
201
201
201
201
201
201
201
201
201
201
201
201
201
201
201
201
201
201
201
201
201
201
201
201
201
201
201
201
201
201
201
201
201
201
201
201
201
201
255
255
255
201
201
201
201
201
201
201
201
201
201
201
201
201
201
201
201
201
201
201
201
201
201
201
201
201
201
201
201
255
201
201
201
201
201
255
255
201
201
201
201
201
201
201
201
201
255
201
201
201
201
201
201
201
201
201
201
201
201
201
201
201
201
201
201
201
201
201
201
201
201
201
201
201
201
201
255
255
201
201
201
201
201
255
255
201
201
201
201
201
201
201
201
255
201
201
201
201
201
201
201
201
201
201
201
201
201
201
201
201
201
201
201
201
201
201
201
201
201
201
201
201
201
201
201
201
201
201
201
201
201
255
255
201
201
201
201
201
201
201
201
255
201
201
201
201
201
201
201
201
201
201
201
201
201
201
255
201
201
201
201
201
201
201
201
201
201
201
201
201
255
201
201
201
201
201
201
201
201
255
255
201
201
201
201
201
201
201
201
201
201
201
201
201
201
201
201
201
201
201
201
201
201
201
201
255
255
255
255
201
201
201
201
201
201
201
201
201
201
201
201
201
201
201
201
201
201
201
255
201
201
201
201
201
201
255
201
201
201
201
201
201
201
201
201
201
201
201
201
201
201
201
201
201
201
255
255
255
255
255
201
201
201
201
201
201
201
201
201
201
201
201
201
201
201
201
201
201
201
201
201
201
201
201
201
201
201
201
201
201
201
201
201
201
201
201
201
201
201
201
201
201
201
201
201
201
201
201
255
255
201
201
201
201
201
201
201
201
201
201
201
201
201
201
201
201
201
201
201
201
201
201
201
201
201
201
201
201
201
201
201
201
201
201
201
201
201
201
201
201
201
201
201
201
201
201
201
201
255
201
201
201
201
201
201
201
201
201
201
201
201
201
201
201
201
201
201
201
201
201
201
201
201
201
201
201
201
201
201
201
201
201
201
201
201
201
201
201
201
201
201
201
201
201
201
201
201
201
201
201
201
201
201
201
201
201
201
201
201
201
201
201
201
201
201
201
201
201
201
201
201
201
201
201
201
201
201
201
201
201
201
201
201
201
201
201
201
201
201
201
201
201
201
201
201
201
201
201
201
201
201
201
201
201
201
201
201
201
201
201
201
201
201
201
201
201
201
201
201
201
201
201
201
201
201
255
255
255
255
255
255
255
255
255
255
201
201
201
201
201
201
201
201
201
201
201
201
201
201
201
201
201
201
201
201
201
201
201
201
201
201
201
201
201
201
201
201
201
201
201
201
201
255
255
255
255
255
255
255
255
255
255
255
255
255
201
201
201
201
201
201
201
201
201
201
255
201
201
201
201
201
201
201
201
201
201
201
201
201
201
201
255
201
201
201
201
201
201
201
255
255
255
255
255
255
255
201
201
201
255
255
255
201
201
201
201
201
201
201
201
201
201
255
255
201
201
201
201
201
201
201
201
201
201
201
201
255
201
201
255
201
201
201
201
201
201
255
255
255
201
201
201
201
201
201
201
255
255
255
255
201
201
255
201
201
201
201
201
201
201
255
255
201
201
201
201
201
201
201
201
201
201
201
201
255
201
201
201
201
201
201
201
201
255
255
255
201
255
255
255
201
201
255
255
255
255
255
201
201
201
201
201
201
201
201
201
201
201
255
255
201
201
201
201
201
201
201
201
201
201
201
201
255
201
201
201
201
201
201
201
255
255
201
255
255
255
255
255
255
255
255
255
201
201
201
201
201
201
201
255
201
201
201
201
201
201
255
255
201
201
201
201
201
201
201
201
201
201
201
201
201
201
201
201
201
201
201
201
255
255
255
255
255
201
201
255
255
255
255
201
201
255
255
255
201
201
201
255
255
201
201
201
201
201
201
255
255
201
201
201
201
201
201
201
201
201
201
201
201
201
201
201
201
201
201
201
255
201
255
201
255
255
255
201
255
255
255
201
201
201
255
255
255
201
255
201
255
201
201
201
201
201
201
255
255
201
201
201
201
201
201
201
201
201
201
201
201
201
201
201
201
201
201
255
255
201
255
201
201
201
255
201
201
201
201
201
255
255
201
255
255
201
255
201
255
255
201
201
201
201
201
255
255
201
201
201
201
201
201
201
201
201
201
201
201
201
201
201
201
201
201
255
255
201
255
201
255
255
255
201
201
201
201
201
255
255
201
201
255
201
255
201
255
255
201
201
201
201
201
255
255
255
255
201
201
201
201
201
201
201
201
201
201
201
201
201
201
201
201
255
255
201
255
255
201
201
201
201
201
201
201
201
255
255
201
201
255
201
255
201
255
255
201
201
201
201
201
255
255
255
255
255
255
201
201
201
201
201
201
201
201
201
201
201
201
201
201
255
255
201
255
255
201
201
201
201
201
201
201
201
255
255
201
201
255
201
255
201
255
255
201
201
201
201
201
255
201
201
201
201
201
201
201
201
201
201
201
201
201
201
201
201
201
201
201
255
255
201
255
255
201
255
255
255
201
201
201
201
255
255
201
201
255
201
201
201
255
255
201
201
201
201
201
255
255
201
201
201
201
201
201
201
201
201
201
201
201
201
201
201
201
201
201
255
255
201
255
201
255
255
255
255
201
201
201
201
201
255
255
255
201
201
201
201
255
255
201
201
201
201
201
255
255
201
201
201
201
201
201
201
201
201
201
201
201
201
201
201
201
201
201
255
255
201
255
201
255
255
255
255
201
201
255
255
201
201
255
255
201
201
201
255
255
201
201
201
201
201
201
255
255
201
201
201
201
201
201
201
201
201
201
201
201
201
201
201
201
201
201
201
255
201
201
201
255
255
255
255
201
255
255
255
255
255
201
201
201
201
201
255
201
201
201
201
201
201
255
255
255
201
201
201
201
201
201
201
201
201
201
201
201
201
201
201
201
201
201
201
255
255
201
201
201
201
201
255
255
255
201
201
255
255
255
255
255
201
255
255
201
201
201
201
201
201
255
255
201
201
255
255
255
201
201
201
201
201
201
201
201
201
201
201
201
201
201
201
201
255
255
201
255
255
255
255
255
255
201
201
201
255
255
201
255
255
255
201
201
201
201
201
201
201
255
255
201
255
255
255
255
201
201
201
201
201
201
201
201
201
201
201
201
201
201
201
201
201
255
255
201
255
255
255
201
201
201
201
201
201
255
255
255
255
255
201
201
201
201
201
201
201
255
255
255
255
201
201
201
201
201
201
201
201
201
201
201
201
201
201
201
201
201
201
201
201
201
255
255
255
255
255
201
201
201
201
255
255
255
255
255
255
201
201
201
201
201
201
201
201
201
255
201
201
201
201
201
201
201
201
201
201
201
201
201
201
201
201
201
201
201
201
201
201
201
201
255
255
255
255
255
255
255
255
255
255
255
255
201
201
201
201
201
201
201
201
201
201
201
201
201
201
201
201
201
201
201
201
201
201
201
201
201
201
201
201
201
201
201
201
201
201
201
201
201
201
255
255
255
255
255
255
255
255
201
201
201
201
201
201
201
201
255
255
255
255
255
255
255
255
255
255
255
201
201
201
201
201
201
201
201
201
201
201
201
201
201
201
201
201
201
201
201
201
201
201
201
201
201
201
201
201
201
201
201
201
201
201
201
255
255
255
255
255
255
255
201
201
201
201
201
201
201
201
201
201
201
201
201
201
201
201
201
201
201
201
201
201
201
201
201
201
201
201
201
201
201
201
201
201
201
201
201
201
201
201
255
255
255
201
201
201
201
201
201
201
201
201
201
201
201
201
201
201
201
201
201
201
201
201
201
201
201
201
201
201
201
201
201
201
201
201
201
201
201
201
201
201
201
201
201
201
201
201
201
255
255
255
255
201
201
201
201
201
201
201
201
201
201
201
201
201
201
201
201
201
201
201
201
201
201
201
201
201
201
201
201
201
201
201
201
201
201
201
201
201
201
201
201
201
201
201
201
255
255
255
255
255
201
201
201
201
201
201
201
201
201
201
201
201
201
201
201
201
201
201
201
201
201
201
201
201
201
201
201
201
201
201
201
201
201
201
201
201
201
201
201
201
201
201
201
201
201
201
255
255
201
201
201
201
201
201
201
201
201
201
201
201
201
201
201
201
255
255
255
255
255
255
255
255
255
255
255
255
255
255
255
255
255
255
255
255
255
255
255
255
255
255
255
201
201
201
201
255
201
201
201
201
201
201
201
201
201
201
201
201
201
201
201
201
255
255
255
255
255
255
255
255
255
255
255
255
255
255
255
255
255
255
255
255
255
255
255
255
255
255
255
255
201
201
201
255
255
201
201
201
201
201
201
201
201
201
201
201
201
201
201
255
255
255
255
201
201
201
201
201
201
201
201
201
201
201
201
201
201
201
201
201
201
201
201
201
201
201
201
201
201
201
201
201
201
255
201
201
201
201
255
201
201
201
201
201
201
201
201
255
255
255
201
201
201
201
201
201
201
255
255
255
255
255
201
255
255
255
255
255
255
255
255
255
255
255
255
255
201
201
201
201
201
201
201
201
201
201
201
201
201
201
201
201
201
201
201
255
255
255
201
201
201
201
201
201
201
201
201
201
201
201
201
201
201
255
255
255
255
255
255
255
255
201
201
201
201
201
201
201
201
201
201
201
201
201
201
201
201
201
201
201
201
201
201
201
201
201
201
201
201
201
201
201
201
201
201
201
201
201
201
201
201
201
201
201
201
201
201
201
201
201
201
201
201
201
201
201
201
201
201
201
201
201
201
201
