P2
48 48 255

209
209
209
209
209
209
209
209
209
209
209
209
209
209
209
209
209
209
209
209
209
209
209
209
209
209
209
209
209
209
209
209
209
209
209
209
209
209
209
209
209
209
209
209
209
209
209
209
209
209
209
209
209
209
209
209
209
209
209
209
209
209
209
209
209
209
209
209
209
209
209
209
209
209
209
209
209
209
209
209
209
209
209
209
209
209
209
209
209
209
209
209
209
209
209
209
209
209
209
209
209
209
209
209
209
209
209
209
209
209
209
209
209
209
209
209
209
209
209
209
209
209
209
209
209
209
209
209
209
209
209
209
209
209
209
209
209
209
209
209
209
209
209
209
209
209
209
209
209
209
209
209
209
209
209
209
209
209
209
209
209
209
209
209
209
209
209
209
209
209
209
209
209
209
209
209
209
209
209
209
209
209
209
209
209
209
209
209
209
209
209
209
209
209
209
209
209
209
209
209
209
209
209
209
209
209
209
209
209
209
209
209
209
209
209
209
209
209
209
209
209
209
209
209
209
209
209
209
209
209
209
209
209
209
209
209
209
209
209
209
209
209
209
209
209
209
209
209
209
209
209
209
209
209
209
209
209
209
209
209
209
209
209
209
209
209
209
209
209
209
209
209
209
209
209
209
209
209
209
209
209
209
209
209
209
209
209
209
209
209
209
209
209
209
209
209
209
209
209
209
209
209
209
209
209
209
209
209
209
209
209
209
209
209
209
209
209
209
209
209
209
209
209
209
209
209
209
209
209
209
209
209
209
209
209
209
209
209
209
209
209
209
209
209
209
209
209
209
209
209
209
209
209
209
209
209
209
209
209
209
209
209
209
209
209
209
209
209
209
209
209
209
209
209
209
209
209
209
209
209
209
209
209
209
209
209
209
209
209
209
209
209
209
209
209
209
209
209
209
209
209
209
209
209
209
209
209
209
209
209
209
209
209
209
209
209
209
209
209
209
209
209
209
209
209
209
209
209
209
209
209
209
209
209
209
209
209
209
209
209
209
209
209
209
209
209
209
209
209
209
209
209
209
209
209
209
209
209
209
209
209
209
209
209
209
209
209
209
209
209
209
209
209
209
209
209
209
209
209
209
209
209
209
209
209
209
209
209
209
209
209
209
209
209
209
209
209
209
209
209
209
209
209
209
209
209
209
209
209
209
209
209
209
209
209
209
209
209
209
209
209
209
209
209
209
209
209
209
209
209
209
209
209
209
209
209
209
209
209
209
209
209
209
209
209
209
209
209
209
209
209
209
209
209
209
255
255
209
209
209
209
209
209
209
209
209
209
209
209
209
209
209
209
209
209
209
209
209
209
209
209
209
209
209
209
209
209
209
209
209
209
209
209
209
209
209
209
209
209
209
209
209
209
209
209
255
255
255
209
209
209
209
209
209
209
209
209
209
209
209
209
209
209
209
209
209
209
209
209
209
209
209
209
209
209
209
209
209
209
209
209
209
209
209
209
255
255
255
255
255
255
255
255
209
209
209
209
209
209
209
209
209
209
209
209
209
209
209
209
209
209
209
209
209
209
209
209
209
209
209
209
209
209
209
209
209
209
209
209
209
209
255
255
255
255
255
255
255
255
255
255
255
255
255
209
209
255
209
209
209
209
209
209
209
209
209
209
209
209
209
209
209
209
209
209
209
209
209
209
209
209
209
209
209
209
209
209
209
255
255
255
209
209
209
209
209
209
209
209
255
255
255
255
255
209
255
255
209
209
209
209
209
209
209
209
209
209
209
209
209
209
209
209
209
209
209
209
209
209
209
209
209
209
209
255
255
255
209
209
255
255
255
255
255
255
255
255
209
209
209
255
255
255
209
209
209
209
209
209
209
209
209
209
209
209
209
209
209
209
209
209
209
209
209
209
209
209
209
209
209
209
255
255
255
209
209
255
255
255
255
255
255
255
255
255
255
255
209
209
255
255
255
209
209
209
209
209
209
209
209
209
209
209
209
209
209
209
209
209
209
209
209
209
209
209
209
209
209
255
255
209
209
255
255
255
255
255
209
209
209
209
255
255
255
255
255
255
209
255
255
255
209
255
209
209
209
209
209
209
209
209
209
209
209
209
209
209
209
209
209
209
209
209
209
209
255
255
255
209
255
255
255
255
209
209
209
209
209
209
209
209
209
255
255
255
255
209
255
255
209
209
255
209
209
209
209
209
209
209
209
209
209
209
209
209
209
209
209
209
209
209
209
209
255
255
209
255
255
255
209
209
209
209
209
209
209
209
209
209
209
209
209
255
255
255
209
255
255
209
255
209
209
209
209
209
209
209
209
209
209
209
209
209
209
209
209
209
209
209
209
255
255
209
255
255
255
209
209
255
255
255
209
209
209
209
209
255
255
255
209
209
255
255
209
255
255
255
209
255
209
209
209
209
209
209
209
209
209
209
209
209
209
209
209
209
209
209
209
255
209
209
255
255
209
209
209
209
209
255
209
209
209
209
209
209
209
209
209
209
255
255
255
209
255
255
209
255
209
209
209
209
209
209
209
209
209
209
209
209
209
209
209
209
209
209
255
255
209
255
255
255
209
209
209
209
255
209
209
209
209
209
209
209
255
255
209
209
209
255
255
255
209
255
209
255
209
209
209
209
209
209
209
209
209
209
209
209
209
209
209
209
209
209
255
255
209
255
255
209
255
255
209
209
209
209
255
255
255
255
209
209
209
209
255
255
255
209
255
255
209
255
209
209
209
209
209
209
209
209
209
209
209
209
209
209
209
209
209
209
209
209
255
255
209
255
255
209
255
209
255
255
255
255
209
255
209
209
255
255
209
209
255
209
255
209
255
255
209
255
255
209
209
209
209
209
209
209
209
209
209
209
209
209
209
209
209
209
209
209
255
255
209
255
255
209
255
255
209
255
255
255
209
255
255
209
255
255
209
209
255
209
255
209
255
255
209
255
255
209
209
209
209
209
209
209
209
209
209
209
209
209
209
209
209
209
209
209
255
255
209
255
255
209
209
255
255
255
255
255
255
255
209
209
255
209
209
209
255
209
255
209
255
255
209
255
255
209
209
209
209
209
209
209
209
209
209
209
209
209
209
209
209
209
209
209
255
255
209
255
255
209
209
209
209
255
255
255
209
255
209
209
255
209
209
209
255
209
255
209
255
255
209
255
255
209
209
209
209
209
209
209
209
209
209
209
209
209
209
209
209
209
209
209
255
255
209
255
255
209
255
255
255
209
209
255
255
255
209
209
209
209
209
209
255
209
255
209
255
255
209
255
255
209
209
209
209
209
209
209
209
209
209
209
209
209
209
209
209
209
209
209
255
255
209
255
255
209
255
209
255
255
209
255
255
209
209
209
209
209
209
255
255
209
255
209
255
255
209
255
209
209
209
209
209
209
209
209
209
209
209
209
209
209
209
209
209
209
209
209
209
255
209
255
255
255
209
255
209
255
255
255
209
255
255
209
209
255
255
255
209
255
255
255
255
255
209
255
209
209
209
209
209
209
209
209
209
209
209
209
209
209
209
209
209
209
209
209
209
255
255
209
255
255
209
255
255
209
209
209
255
255
209
209
255
209
209
209
255
255
209
255
255
209
255
255
209
255
209
209
209
209
209
209
209
209
209
209
209
209
209
209
209
209
209
209
209
209
255
209
255
255
255
209
255
255
255
255
255
209
209
209
255
255
255
255
255
209
255
255
209
209
255
255
209
209
209
209
209
209
209
209
209
209
209
209
209
209
209
209
209
209
209
209
209
209
255
209
209
255
255
255
209
209
209
209
209
209
209
209
209
209
209
209
209
255
255
255
209
209
255
209
209
209
209
209
209
209
209
209
209
209
209
209
209
209
209
209
209
209
209
209
209
209
255
255
209
209
255
255
255
209
209
209
209
209
209
209
209
209
209
255
255
255
255
209
209
255
255
209
209
209
209
209
209
209
209
209
209
209
209
209
209
209
209
209
209
209
209
209
209
209
209
255
255
209
209
255
255
255
255
255
209
209
209
209
209
255
255
255
255
255
209
209
255
255
209
209
209
209
209
209
209
209
209
209
209
209
209
209
209
209
209
209
209
209
209
209
209
209
209
209
255
255
209
209
255
255
255
255
255
255
255
255
255
255
255
255
255
209
209
255
255
209
209
209
209
209
209
209
209
209
209
209
209
209
209
209
209
209
209
209
209
209
209
209
209
209
255
209
209
255
255
209
209
209
255
255
255
255
255
255
255
255
255
209
209
209
255
255
209
209
209
209
209
209
209
209
209
209
209
209
209
209
209
209
209
209
209
209
209
209
209
209
209
209
209
255
209
209
255
255
255
255
209
209
209
255
255
255
209
209
209
209
255
255
255
209
209
209
209
209
209
209
209
209
209
209
209
209
209
209
209
209
209
209
209
209
209
209
209
209
209
209
209
209
209
209
209
209
255
255
255
255
255
255
209
209
209
255
255
255
209
209
209
209
209
209
209
209
209
209
209
209
209
209
209
209
209
209
209
209
209
209
209
209
209
209
209
209
209
209
209
209
209
209
209
209
209
209
255
255
255
209
209
209
209
209
209
209
209
209
209
209
209
209
209
209
209
209
209
209
209
209
209
209
209
209
209
209
209
209
209
209
209
209
209
209
209
209
209
209
209
209
209
209
209
209
209
209
209
209
209
209
209
255
209
209
209
209
209
209
209
209
209
209
209
209
209
209
209
209
209
209
209
209
209
209
209
209
209
209
209
209
209
209
209
209
209
209
209
209
209
209
209
209
209
209
209
209
209
209
209
255
209
209
209
209
209
209
209
209
209
209
209
209
209
209
209
209
209
209
209
209
209
209
209
209
209
209
209
209
209
209
209
209
209
209
209
209
209
209
209
209
209
209
209
209
209
209
209
209
209
209
209
209
209
209
209
209
209
209
209
209
209
209
209
209
209
209
209
209
209
209
209
209
209
209
209
209
209
209
209
209
209
209
209
209
209
209
209
209
209
209
209
209
209
209
209
209
209
209
209
209
209
209
209
209
209
209
209
209
209
209
209
209
209
209
209
209
209
209
209
209
209
209
209
209
209
209
209
209
209
209
209
209
209
209
209
209
209
209
209
209
209
209
209
209
209
209
209
209
209
209
209
209
209
209
209
209
209
209
209
209
209
209
209
209
209
209
209
209
209
209
209
209
209
209
209
209
209
209
209
209
209
209
209
209
209
209
209
209
209
209
209
209
209
209
209
209
209
209
209
209
209
209
209
209
209
209
209
209
209
209
209
