P2
48 48 255

14
13
14
14
14
14
13
13
13
13
13
14
14
13
13
14
13
13
13
13
14
13
13
14
13
14
13
13
13
13
14
14
14
14
13
13
14
14
13
13
14
14
14
15
13
13
14
15
15
14
14
14
14
13
13
13
14
14
13
14
13
13
13
13
13
13
13
13
13
13
13
13
13
14
13
13
14
14
14
14
14
14
13
13
14
14
14
13
14
14
14
14
14
15
15
14
23
18
15
14
13
13
13
13
14
13
13
14
14
14
14
13
12
13
13
13
13
13
13
14
14
14
15
15
14
13
14
14
14
14
14
14
14
14
14
14
14
14
14
14
14
14
15
14
25
26
24
19
17
15
14
12
12
13
14
14
14
13
14
14
13
14
13
13
13
13
14
16
18
20
22
19
29
17
14
14
14
14
15
14
14
14
14
15
13
13
15
15
15
15
15
16
17
18
20
23
22
21
18
17
15
14
14
14
14
13
14
14
14
13
14
14
15
14
14
16
20
21
22
23
25
22
16
15
15
14
15
15
14
15
15
15
15
14
15
15
15
15
15
15
16
15
15
16
17
18
19
19
19
18
16
16
15
14
14
14
14
14
13
15
18
15
16
18
21
22
22
23
27
24
17
16
14
14
14
14
15
15
15
15
15
15
15
15
15
15
15
14
23
21
18
17
16
15
15
16
17
17
18
18
17
16
15
15
15
15
16
18
21
22
23
25
25
25
25
25
27
26
24
25
18
16
15
15
16
15
15
15
15
15
16
16
16
15
16
16
30
28
27
25
21
19
16
15
16
15
15
16
17
17
16
17
17
18
20
25
23
26
25
23
22
22
23
24
25
26
26
26
27
29
26
19
17
16
16
15
17
16
16
17
15
16
16
17
25
24
24
23
21
19
18
18
17
18
17
16
16
16
17
20
23
25
24
23
22
21
22
22
22
22
22
22
22
22
24
25
25
27
33
29
22
19
16
15
15
15
16
16
15
15
15
14
50
42
35
32
31
30
28
25
22
21
20
18
17
19
21
25
25
22
22
21
22
22
22
22
23
22
23
22
22
22
23
23
23
25
27
32
31
26
21
16
16
16
16
16
15
16
16
15
114
114
110
102
92
80
54
27
25
22
21
21
21
23
24
24
22
21
22
23
22
22
22
23
25
23
23
23
22
23
23
22
23
23
24
26
30
32
32
24
17
16
16
17
15
17
16
16
163
160
155
147
138
112
68
24
23
19
18
22
25
24
24
23
21
21
22
22
22
22
23
23
23
23
23
22
21
22
22
22
22
22
23
24
26
29
31
33
24
17
16
16
16
16
16
16
130
127
125
125
116
104
60
24
23
21
22
23
24
24
22
22
22
21
22
22
23
23
23
22
21
22
23
22
22
22
22
23
23
23
23
24
24
25
30
32
33
24
18
17
16
17
17
16
46
44
41
41
36
32
25
18
18
20
23
25
23
22
22
22
22
22
22
22
22
22
22
22
23
23
22
22
22
23
23
23
23
24
24
23
23
24
27
30
40
32
20
17
16
17
17
17
18
18
18
17
17
16
16
16
17
21
25
24
22
22
22
24
31
27
23
23
23
22
22
21
22
22
23
22
23
22
23
24
22
23
23
23
23
23
24
29
38
44
26
18
17
17
17
18
18
17
19
19
19
17
17
18
20
25
25
21
22
23
26
34
42
36
28
25
22
23
22
22
23
22
23
22
22
22
23
22
23
22
23
22
23
23
23
25
29
44
46
28
22
22
22
23
19
19
21
24
28
24
22
22
25
26
23
21
22
24
33
42
44
44
37
29
23
22
22
22
22
23
23
23
23
23
23
22
23
24
23
22
23
23
24
24
25
35
46
46
38
35
39
43
33
37
40
42
44
39
33
28
27
24
21
21
22
23
32
40
45
46
44
37
28
24
22
23
22
22
22
22
22
23
23
22
22
23
23
23
22
22
23
23
24
30
41
56
63
60
62
65
45
45
46
48
48
46
40
29
28
23
21
23
22
22
23
30
43
44
45
45
37
30
24
24
23
22
22
22
23
23
23
22
22
22
22
23
23
23
23
23
24
26
36
56
53
47
50
50
43
43
43
42
41
39
34
27
25
21
21
22
23
22
23
24
32
41
45
46
45
38
30
25
23
23
22
22
23
23
24
24
25
23
23
22
21
23
22
23
23
24
31
47
43
36
35
35
34
33
33
32
31
31
28
27
23
21
22
21
22
22
21
23
24
32
42
46
47
45
38
31
25
23
22
23
22
23
26
31
35
28
23
22
22
23
22
23
23
24
29
40
45
30
28
29
27
27
26
26
25
25
25
28
23
21
21
20
21
22
21
22
23
24
32
44
45
46
45
39
31
25
22
22
23
23
24
33
44
36
28
23
22
23
23
23
22
24
27
35
42
25
23
24
23
22
21
21
21
21
25
29
22
21
21
21
22
21
21
23
23
23
24
32
44
45
45
46
39
31
25
23
23
23
24
34
45
44
35
24
22
22
23
24
24
24
26
33
39
27
23
21
24
23
24
24
24
24
27
29
21
21
22
22
22
22
22
23
22
22
23
24
31
42
45
46
46
39
31
26
23
23
22
32
43
46
40
27
22
23
22
23
23
23
26
31
34
30
26
25
29
29
29
29
28
27
28
27
21
20
21
21
21
22
22
22
22
23
23
24
25
31
41
45
45
44
39
33
26
23
23
31
45
46
41
28
23
23
22
22
23
23
25
30
33
29
27
27
28
29
28
27
27
26
27
26
22
21
21
21
22
21
22
22
22
22
23
23
24
23
30
41
43
46
46
40
33
26
23
31
44
46
42
27
23
22
22
22
23
23
24
29
33
28
26
28
26
27
27
27
27
26
27
27
21
21
21
22
22
22
22
22
22
22
22
22
22
23
23
29
42
46
47
47
41
34
27
31
44
46
41
27
23
22
23
23
23
22
25
29
31
29
27
27
26
26
26
26
26
25
27
28
21
21
21
21
22
21
21
22
22
22
22
22
22
23
23
23
29
39
45
46
46
42
35
34
44
46
41
28
23
23
23
23
23
22
25
28
32
28
28
28
26
26
25
25
25
24
26
29
22
21
21
22
22
21
22
22
22
22
22
22
22
22
23
22
22
29
40
45
45
45
42
40
45
45
42
29
24
23
22
23
23
23
26
30
32
27
27
27
26
27
27
26
25
26
26
24
23
23
22
22
22
22
22
23
23
22
22
22
21
21
22
23
22
23
28
40
44
46
45
46
48
46
42
28
24
23
23
23
23
24
26
30
30
26
27
26
26
28
27
26
26
27
26
28
23
21
22
22
21
22
22
22
22
22
22
22
23
22
24
24
23
24
24
31
40
44
45
45
45
46
43
29
25
24
23
23
23
25
28
30
29
27
25
25
26
28
27
26
26
27
26
27
24
23
22
22
22
22
23
21
21
22
22
25
29
30
32
32
32
34
34
33
38
43
45
45
46
46
43
30
24
22
21
23
22
25
27
29
29
27
26
26
27
28
27
27
27
27
26
27
29
25
22
22
23
22
23
22
22
21
22
23
29
40
42
43
44
44
44
45
44
45
45
44
45
46
43
30
23
22
22
23
23
27
27
28
28
28
27
26
27
28
27
27
27
27
27
27
28
27
22
21
22
21
21
23
22
22
23
22
24
33
40
45
45
45
46
45
45
45
45
44
44
44
41
28
23
23
23
23
26
28
26
28
27
28
27
26
27
28
27
27
27
27
28
27
26
25
24
22
22
21
22
22
22
21
22
22
22
24
32
36
40
40
39
39
38
37
37
37
37
37
33
27
23
24
23
24
26
27
26
27
27
28
27
27
27
28
27
28
28
27
27
27
26
28
28
23
21
22
22
21
23
22
21
22
22
22
24
26
26
25
26
25
25
25
25
24
25
24
23
24
22
23
23
25
26
25
26
27
28
28
27
26
27
27
28
28
29
27
27
27
26
27
29
27
23
23
22
22
21
22
21
21
21
22
22
22
22
23
23
23
22
22
22
22
22
23
23
23
22
23
24
26
25
24
26
26
27
27
26
27
28
26
27
27
27
26
27
27
27
26
25
30
27
23
22
22
21
21
22
22
22
22
21
22
21
22
22
22
23
23
23
22
22
23
23
23
23
26
28
25
24
26
27
26
26
26
26
27
28
26
27
27
27
27
27
27
27
26
25
26
28
27
23
22
23
22
22
22
22
22
21
22
21
22
22
21
22
22
23
23
22
23
23
23
25
27
25
23
27
27
26
25
25
25
26
28
27
28
27
27
27
27
27
27
26
25
26
25
24
28
26
23
22
22
22
22
21
21
21
22
22
22
22
22
23
22
22
22
22
23
24
24
26
24
24
27
28
27
26
26
25
25
26
28
26
27
27
27
27
28
28
27
26
26
26
25
25
24
26
25
25
23
22
22
22
22
22
22
22
22
22
23
22
22
23
22
22
25
25
25
23
24
26
27
27
26
26
29
30
27
27
28
26
27
27
27
27
26
25
25
25
26
26
25
25
24
24
26
26
26
25
25
25
23
22
22
21
22
22
21
21
23
24
23
26
26
23
24
26
27
28
27
26
26
26
29
36
33
29
28
27
25
25
26
26
26
26
26
26
26
25
27
26
26
25
25
23
25
27
29
29
26
24
24
23
23
24
24
26
25
26
24
25
24
25
28
31
31
30
30
28
27
26
26
29
33
31
29
28
27
27
27
29
29
29
30
31
31
31
34
33
32
31
31
32
27
25
24
25
26
28
29
29
29
28
28
26
23
23
24
28
30
32
33
34
34
35
35
34
33
30
28
28
28
31
31
27
29
34
35
35
34
34
36
35
35
35
35
37
34
34
35
30
26
25
22
24
23
24
21
20
22
22
23
26
24
26
28
31
33
34
35
35
34
35
36
37
36
35
33
32
27
28
33
36
36
36
35
35
35
35
35
35
34
34
34
35
34
32
26
23
20
20
20
19
19
20
19
19
20
20
21
20
19
20
19
20
25
32
42
45
35
34
32
33
32
32
34
34
28
28
31
57
51
40
35
34
34
35
33
35
35
34
34
33
32
28
22
18
17
17
17
17
17
17
17
17
18
18
19
18
18
17
17
17
19
22
35
51
38
32
30
31
31
31
34
34
31
31
34
52
48
37
34
33
33
34
33
34
35
34
34
33
30
27
32
24
19
18
17
16
16
16
17
18
19
18
17
18
18
18
17
18
18
18
27
48
40
31
30
30
30
33
35
35
35
37
39
