P2
48 48 255

24
24
23
23
23
23
23
24
26
27
27
25
24
23
23
23
23
24
25
25
25
25
25
24
23
22
22
22
23
23
22
21
21
23
22
22
23
22
21
21
20
21
22
23
22
22
24
28
23
23
22
22
22
21
22
23
25
25
25
26
24
23
22
22
23
23
24
25
25
24
24
23
22
21
22
23
23
22
21
21
21
23
23
23
23
21
22
22
21
22
23
22
23
23
24
27
22
22
22
22
21
21
21
22
23
24
24
24
23
23
22
22
22
22
24
24
23
23
23
22
21
21
21
22
23
22
21
20
20
21
21
21
21
20
20
21
21
22
22
22
22
23
25
27
21
21
21
22
21
21
21
21
22
23
23
23
22
22
22
22
21
21
23
22
21
21
21
21
21
21
21
21
22
22
21
20
20
19
20
20
20
19
19
20
21
22
22
21
21
23
25
27
22
21
21
22
21
21
22
21
22
22
23
23
22
21
22
22
21
20
22
21
20
20
21
21
21
22
22
21
21
21
21
20
20
20
21
21
22
20
20
21
22
23
23
22
21
23
26
28
21
21
22
21
22
22
22
22
21
21
21
21
21
21
21
22
21
20
20
20
20
21
21
21
21
21
22
21
20
21
21
21
20
21
21
22
21
20
21
22
23
23
22
22
21
23
25
28
23
22
21
20
21
22
22
21
21
21
20
21
20
20
21
21
21
20
20
21
21
21
21
20
20
20
21
21
20
20
21
21
20
20
21
22
22
21
22
22
23
22
22
21
21
22
25
28
24
23
22
21
21
21
21
21
20
20
20
20
20
20
20
20
20
20
20
21
21
21
21
20
21
21
22
22
22
22
22
21
21
20
21
21
22
22
22
22
22
22
22
21
21
21
24
29
23
22
22
22
22
21
21
20
19
19
19
19
19
20
20
21
20
20
20
20
21
21
21
22
24
25
26
27
27
26
25
23
22
20
20
21
22
22
22
22
22
22
22
21
22
21
24
27
22
22
22
22
21
21
21
20
20
20
20
19
19
19
19
19
19
20
21
22
22
23
25
27
30
33
34
36
37
35
32
30
28
21
21
21
22
21
20
20
21
23
24
24
25
23
24
26
22
22
22
22
23
22
22
22
21
21
20
20
20
20
20
19
19
21
22
25
29
32
31
30
29
29
28
30
33
36
37
38
37
31
27
24
24
22
22
21
20
21
20
20
22
23
24
27
22
22
22
23
23
24
23
21
20
20
20
21
21
20
19
21
23
25
27
28
29
27
24
22
21
21
20
22
24
24
26
29
33
35
33
31
29
27
24
21
21
21
20
20
21
21
24
28
23
23
23
23
24
24
24
22
20
20
20
21
21
20
21
24
26
27
27
26
24
20
18
17
16
16
17
17
17
17
17
20
24
31
34
34
32
32
27
23
20
21
20
20
20
20
23
28
24
24
24
24
24
24
24
23
21
20
20
21
21
22
25
28
27
24
22
20
19
17
18
19
19
20
21
20
19
18
17
16
16
22
27
29
30
34
31
26
20
21
20
20
20
20
23
27
26
25
24
25
23
23
23
22
21
20
20
20
21
25
29
27
24
20
19
17
17
18
20
23
27
30
36
31
25
23
20
18
17
16
19
23
27
31
33
31
26
22
20
19
19
20
23
27
23
24
25
25
24
24
23
22
21
20
20
21
24
26
27
24
21
19
17
22
28
34
40
47
51
53
55
54
50
49
39
31
24
22
18
19
23
27
30
31
31
24
21
19
18
20
24
28
24
24
24
24
24
23
22
21
20
20
21
23
26
26
25
21
19
19
24
33
42
49
56
59
61
61
62
62
61
60
56
48
37
30
23
19
19
22
28
32
33
27
21
19
18
20
24
29
27
27
26
26
25
25
24
23
22
22
23
25
27
26
22
19
20
26
36
46
53
59
63
63
62
62
63
63
63
62
63
59
51
40
31
24
19
19
24
30
34
29
23
19
18
20
24
28
32
32
32
31
30
28
27
27
28
26
25
28
29
25
19
18
26
38
48
52
55
58
57
59
60
63
64
63
61
58
57
58
57
50
41
32
23
18
20
26
33
31
26
21
19
21
24
28
30
31
32
33
32
32
32
32
34
33
32
31
27
23
18
21
32
44
50
48
44
41
39
44
53
63
62
62
58
50
41
41
45
53
47
39
29
20
17
19
26
33
30
24
22
22
24
28
28
29
29
31
30
30
30
30
32
32
32
31
23
19
19
25
37
47
48
40
32
26
27
29
39
53
59
52
40
28
26
26
29
39
45
44
36
22
18
19
23
31
31
27
22
22
24
27
28
29
30
31
30
29
30
30
30
31
31
29
22
18
22
30
43
50
44
35
31
33
38
32
33
43
53
44
31
24
33
34
31
30
38
44
44
29
21
18
20
29
31
29
22
22
24
26
30
30
30
31
30
30
30
30
30
30
31
27
21
19
25
38
47
48
39
36
40
48
51
39
33
37
48
39
30
30
46
49
42
27
31
41
51
37
25
19
19
27
31
31
22
21
23
26
30
30
30
31
31
30
30
30
30
30
30
25
20
20
28
46
47
41
34
42
50
55
47
37
35
40
47
37
30
35
50
57
52
31
29
38
52
43
28
19
17
25
31
32
22
21
23
26
29
30
30
31
30
29
29
30
30
29
28
21
18
21
31
49
55
51
38
31
33
40
45
35
32
39
47
37
29
35
54
58
51
34
30
40
55
46
30
19
17
24
30
32
22
21
23
27
30
30
31
31
31
31
30
31
30
30
29
23
20
22
33
51
57
53
43
33
26
24
28
26
30
40
49
38
29
37
54
58
52
34
30
39
55
50
33
20
17
23
30
32
22
21
23
27
36
39
39
34
34
33
33
33
32
32
31
23
19
22
33
51
56
52
42
32
26
25
29
27
30
40
49
37
29
37
53
58
51
34
30
39
55
50
34
20
17
23
29
32
22
20
23
27
52
57
57
47
46
45
45
45
42
40
36
22
18
22
33
50
54
49
35
31
34
41
42
34
33
41
48
36
29
37
53
58
52
34
30
39
54
49
33
20
17
23
29
30
21
20
23
27
77
79
78
72
68
69
71
73
63
53
42
25
19
21
30
48
52
43
25
39
53
61
51
40
37
42
48
36
30
38
54
59
52
33
29
39
54
48
32
20
17
23
28
28
20
19
22
26
57
58
59
59
60
62
64
63
60
52
41
28
21
20
28
42
46
44
38
40
45
52
55
47
38
33
34
31
29
33
53
56
47
31
31
41
54
42
29
20
18
23
27
27
20
20
23
27
37
38
38
39
41
43
44
43
43
41
37
29
21
19
24
36
44
44
33
35
40
44
41
33
32
39
46
41
33
28
40
44
41
30
33
41
49
35
25
19
19
26
28
26
21
20
23
28
29
30
30
30
31
31
31
32
32
33
34
31
23
19
21
31
43
48
37
34
33
32
26
27
35
48
56
48
37
28
28
31
32
29
37
43
45
29
21
19
20
29
29
26
22
21
23
28
31
32
31
30
30
30
30
30
29
31
34
33
27
20
19
25
40
51
50
39
32
29
27
35
46
56
59
52
43
35
27
26
30
33
42
44
38
24
19
19
23
30
30
26
22
20
23
28
32
33
33
32
31
32
33
33
31
33
36
34
29
23
18
20
31
45
59
56
52
51
54
56
58
60
63
60
57
53
43
43
48
49
51
43
29
19
19
22
26
25
25
24
20
19
22
27
32
33
33
30
31
32
34
33
32
32
34
35
32
26
19
19
23
31
43
54
58
58
59
60
61
61
61
61
59
58
56
55
54
53
44
32
20
18
20
24
28
26
24
22
19
19
22
26
33
34
34
32
31
31
32
33
32
32
33
34
34
30
23
19
20
24
30
42
53
59
60
60
60
61
61
61
60
59
57
54
50
43
32
23
18
17
22
27
31
27
24
21
19
19
22
25
34
34
34
32
31
31
31
32
31
31
31
32
33
33
29
23
20
20
21
29
39
49
53
55
57
59
59
59
57
55
50
45
39
29
22
18
18
20
26
31
32
29
25
22
20
20
22
25
36
35
34
33
33
33
33
31
30
30
30
30
32
33
34
30
24
19
18
19
23
31
40
44
49
53
51
51
48
43
37
31
24
18
17
18
20
25
31
35
34
31
27
23
21
21
22
25
41
41
41
39
39
38
37
36
34
33
32
34
34
35
37
37
32
25
18
18
18
18
20
22
28
36
29
26
24
22
20
18
17
18
18
21
27
31
38
40
37
33
28
23
20
20
22
25
45
45
44
43
43
44
43
41
39
37
36
38
39
39
39
38
37
33
26
21
18
17
17
18
19
21
20
20
19
18
18
18
19
20
24
29
35
40
46
48
42
37
30
22
20
19
22
26
46
46
45
45
45
45
44
42
41
40
39
40
40
39
39
39
39
38
36
30
25
22
22
19
18
18
18
18
18
18
20
23
25
27
32
37
42
47
49
48
46
38
29
22
19
19
21
24
46
45
44
44
44
43
41
40
40
41
41
40
40
40
40
40
41
40
40
38
34
32
32
28
26
26
24
24
24
25
28
31
33
35
38
42
46
49
47
46
46
35
27
21
19
19
20
23
45
43
42
41
41
40
39
37
40
41
40
40
39
39
39
39
39
39
36
40
41
40
40
39
38
37
35
33
33
35
38
38
37
38
41
43
45
44
43
43
41
32
26
21
18
18
20
23
38
34
33
34
34
35
36
35
36
36
33
32
30
29
30
30
30
32
33
33
33
32
31
31
31
30
29
29
29
31
33
34
36
37
38
39
38
38
39
39
37
32
26
21
17
18
20
22
33
32
31
32
32
33
33
33
34
33
32
30
32
38
47
44
47
50
48
49
48
46
44
43
41
39
38
37
35
34
34
34
34
34
34
33
32
33
35
36
35
32
26
20
18
18
20
22
30
30
30
31
31
31
31
31
31
31
31
30
35
44
55
56
61
64
64
63
61
58
55
52
50
50
51
50
50
51
49
49
48
48
48
46
41
38
36
34
32
31
26
20
18
18
20
22
30
30
30
31
30
30
30
29
29
29
29
29
37
47
58
65
69
71
73
71
68
65
61
56
53
53
57
59
61
63
63
63
63
63
64
61
55
47
39
34
31
30
25
20
18
18
20
23
33
32
31
31
30
30
30
29
30
29
28
29
36
49
64
66
70
72
72
72
70
66
63
57
50
44
54
58
61
64
66
66
66
66
65
65
63
52
41
33
32
28
24
20
18
18
20
24
