P2
48 48 255

103
56
64
89
85
74
106
99
101
118
115
128
141
130
127
138
141
133
143
133
122
100
114
99
70
64
37
73
97
100
56
30
31
32
32
30
27
26
26
29
37
46
43
38
33
43
66
47
136
52
72
67
55
79
114
120
119
105
94
117
141
134
127
132
130
126
99
65
82
75
94
109
99
94
71
103
108
107
75
37
30
32
32
35
31
25
26
34
43
45
41
29
30
73
95
53
108
37
50
47
47
52
76
71
66
67
68
104
127
121
123
114
118
126
89
45
49
71
136
132
81
93
104
108
110
112
97
51
38
40
59
67
44
25
26
32
39
41
31
25
43
93
74
60
83
54
31
35
41
41
43
48
54
51
45
57
80
97
116
127
129
127
75
32
41
58
95
162
74
88
105
116
113
117
90
49
38
44
62
79
63
34
28
31
31
29
27
37
53
77
44
42
89
122
83
42
37
42
56
75
92
80
64
61
59
87
125
131
134
121
70
28
26
29
37
58
60
80
106
100
145
144
100
58
38
37
59
70
61
44
29
30
31
32
37
43
50
68
44
23
98
75
43
34
33
47
76
102
130
115
79
55
39
50
89
112
119
110
53
29
36
43
60
81
83
86
83
77
121
154
98
63
42
30
43
48
41
37
32
31
36
49
59
49
36
72
83
58
66
65
46
30
31
55
66
71
91
110
94
57
37
43
67
95
92
64
36
35
36
55
74
93
108
113
118
97
95
155
89
50
38
30
33
33
27
26
30
34
41
57
65
63
43
76
84
88
31
32
29
27
28
53
50
53
57
72
71
47
39
43
53
76
77
63
39
46
54
91
110
128
130
130
121
114
125
175
131
75
45
34
31
29
29
32
32
34
41
46
43
57
53
54
51
70
28
34
27
28
31
52
46
45
43
41
38
32
29
29
35
49
55
47
42
53
65
95
141
110
77
97
117
140
169
190
192
140
68
36
30
30
40
46
37
33
36
38
38
47
42
30
39
75
36
37
26
30
37
45
38
35
33
31
29
29
30
30
29
31
35
38
50
61
77
82
105
107
87
76
104
135
145
150
166
175
92
37
32
34
39
37
30
31
34
36
31
38
32
26
31
71
71
43
29
30
33
34
36
40
40
40
37
32
33
38
45
55
62
59
63
81
97
99
107
120
119
96
84
96
106
105
102
141
84
38
33
30
32
30
26
25
30
35
29
29
28
27
26
33
67
45
32
32
32
31
30
52
85
78
50
36
38
42
43
48
52
48
71
95
100
109
123
135
131
123
103
85
89
90
94
117
105
72
47
37
33
28
25
25
27
35
30
27
25
24
25
26
61
52
41
34
37
40
44
74
106
115
70
36
46
62
68
61
53
48
73
89
100
120
135
136
134
132
128
107
93
82
74
102
146
114
65
45
33
27
30
32
34
36
30
25
22
21
24
29
61
69
123
81
48
54
67
88
108
98
55
37
50
60
70
72
58
55
75
93
117
139
140
138
137
134
133
126
111
95
82
99
136
119
77
49
39
42
41
34
29
30
28
24
21
29
39
37
51
85
153
135
99
74
78
59
52
44
32
31
49
57
51
59
60
65
82
107
132
141
141
135
129
129
131
130
125
113
99
101
114
106
80
56
49
67
76
56
42
32
26
23
24
44
51
51
37
81
155
134
101
84
85
59
32
26
26
35
61
65
49
57
66
80
105
125
132
134
127
111
113
113
122
125
129
129
116
104
99
95
81
63
69
104
110
93
93
37
26
24
26
50
64
56
28
68
141
141
93
110
102
85
65
37
27
40
56
58
54
61
74
98
121
128
127
122
109
100
102
105
105
116
129
133
129
119
109
99
86
85
104
127
119
92
81
41
26
25
25
36
46
45
21
62
118
115
84
102
106
108
110
99
101
90
83
81
63
71
93
115
121
122
121
108
99
99
99
103
98
104
121
131
132
131
125
113
98
91
99
120
125
101
79
48
27
26
23
26
28
31
20
34
76
97
88
86
98
84
84
96
114
120
115
96
75
88
110
117
117
114
110
99
95
99
100
101
101
100
107
118
130
135
134
126
115
99
83
96
127
131
101
61
38
27
24
23
26
28
24
22
39
59
58
73
89
82
87
90
91
101
103
94
94
103
111
113
112
103
97
94
96
100
99
99
100
100
99
103
122
134
135
131
126
116
96
83
102
131
123
82
51
35
26
25
25
30
28
32
39
46
35
64
81
90
91
83
88
92
92
96
103
108
108
106
103
93
90
94
97
98
99
98
100
101
99
100
106
117
127
129
128
126
117
99
85
97
127
129
91
62
44
43
33
29
32
41
59
55
36
53
66
73
58
65
95
102
97
102
105
107
107
99
92
87
89
96
97
96
98
98
100
101
100
100
97
101
114
123
126
127
126
120
100
81
96
127
118
89
72
53
48
32
35
49
67
52
35
35
40
41
39
60
88
99
103
107
107
108
104
92
84
86
91
95
95
96
98
97
99
100
100
100
98
98
102
111
120
125
129
128
118
97
81
87
99
97
85
45
47
36
38
55
66
50
35
29
24
37
45
61
81
98
109
109
109
105
95
83
85
91
92
94
94
95
98
97
97
99
100
101
100
100
97
101
112
123
129
130
125
116
97
72
77
89
92
68
57
46
54
59
86
55
49
34
30
64
73
75
89
105
112
110
106
95
83
83
92
93
92
94
94
96
96
97
97
99
100
100
100
100
99
99
105
118
128
130
128
120
98
70
67
77
106
123
94
61
84
91
129
92
86
47
44
77
84
85
95
107
111
110
100
84
83
91
93
90
92
94
95
97
95
95
97
99
99
99
100
101
100
99
104
117
126
128
123
105
86
85
87
112
150
137
120
95
114
123
153
127
102
57
53
68
73
84
95
104
110
109
98
84
86
93
91
90
93
94
94
97
94
95
96
99
100
100
100
102
99
100
110
119
124
124
109
91
100
124
130
155
158
104
126
138
133
129
156
123
100
58
55
75
85
90
91
98
107
108
104
97
90
89
91
93
93
94
93
94
94
96
96
98
100
101
100
99
104
108
114
116
117
111
96
102
126
137
134
137
122
104
127
133
145
126
154
100
86
50
48
107
124
114
100
92
99
105
107
109
103
92
90
93
93
94
93
93
94
96
98
98
99
99
95
98
111
116
115
112
104
99
108
133
144
131
118
108
115
117
112
90
171
129
147
79
47
40
37
105
153
141
116
95
88
96
106
111
111
104
96
93
91
92
94
96
94
96
99
98
96
95
97
106
116
116
114
106
93
102
137
164
171
145
141
113
110
95
77
65
163
141
134
108
69
57
34
62
123
132
118
103
88
88
97
107
113
112
106
99
91
89
90
96
95
96
98
98
92
95
105
115
116
114
107
97
86
101
137
159
170
154
154
137
116
81
63
58
90
76
88
115
114
74
34
43
78
106
110
101
94
86
84
95
109
112
111
107
100
93
88
90
95
96
96
98
96
102
110
114
114
109
95
84
77
78
95
119
143
143
126
120
98
69
68
58
48
41
42
69
95
59
32
66
98
104
95
103
111
98
85
85
93
106
113
114
111
102
94
90
92
99
96
100
106
110
113
112
109
100
82
72
71
76
105
142
148
136
120
120
96
58
84
80
74
36
35
37
37
37
39
80
88
86
80
115
146
120
101
96
78
88
107
112
114
111
111
109
105
110
105
108
110
112
114
108
99
84
68
62
69
93
143
166
140
148
126
108
82
54
103
112
75
34
32
33
33
30
42
54
58
70
65
105
151
136
119
110
80
72
89
103
112
117
121
123
121
117
115
114
113
110
108
99
82
65
57
54
58
67
95
129
123
102
80
64
69
68
111
125
43
37
34
38
33
27
33
45
44
56
46
89
128
119
129
112
73
69
69
84
105
113
117
117
119
114
110
112
113
108
97
81
71
74
66
55
51
61
85
124
154
109
64
32
47
72
82
96
115
96
63
46
35
41
39
34
30
34
27
62
93
99
123
118
84
61
55
65
83
102
111
115
116
115
114
117
114
102
80
67
89
124
111
85
79
80
94
141
175
121
74
38
34
65
68
90
185
172
123
67
42
70
67
48
34
24
22
46
75
93
96
74
56
44
43
58
64
81
103
110
113
113
112
109
107
86
68
85
113
129
125
113
97
87
98
133
157
135
86
43
38
61
58
75
135
126
118
88
63
80
88
74
54
39
32
32
36
47
48
32
32
31
35
50
55
63
84
104
106
111
109
97
84
66
94
118
119
122
129
131
124
106
107
133
153
150
94
46
41
58
48
39
76
90
100
109
131
122
108
93
72
52
38
29
25
23
23
25
26
26
27
28
33
48
64
79
88
96
101
82
63
61
130
140
117
123
146
153
144
132
139
172
185
155
88
48
42
54
38
28
105
112
121
131
187
146
94
68
45
36
38
35
29
27
29
28
25
25
24
23
26
32
46
57
67
81
76
58
52
59
91
118
130
135
137
138
139
140
155
189
194
134
78
44
42
36
30
27
156
146
153
153
191
138
95
66
44
42
59
52
30
25
27
24
24
25
26
24
25
28
30
38
48
50
51
47
43
48
60
101
145
153
138
117
106
113
124
144
155
120
76
43
51
40
34
34
132
157
187
186
198
149
79
50
42
52
79
62
28
23
23
24
24
25
27
26
26
26
24
25
35
45
41
36
32
37
50
106
126
129
118
91
73
71
79
101
104
74
55
49
58
40
43
81
86
79
139
205
193
210
160
69
38
50
60
45
28
22
22
24
26
27
29
31
38
30
22
26
31
33
32
29
26
31
39
40
37
51
78
76
51
44
49
52
46
42
48
52
47
45
87
138
48
66
87
161
177
200
206
112
49
36
34
31
27
25
27
27
27
28
28
33
34
33
28
28
41
58
38
32
30
31
32
31
32
33
52
56
41
32
29
36
40
51
60
56
55
52
47
46
95
52
85
127
187
208
210
133
77
47
33
34
33
30
28
28
28
27
26
27
29
32
36
41
53
77
44
33
33
42
45
42
35
35
39
39
33
28
39
50
38
39
52
71
98
115
91
62
142
112
150
161
208
214
214
172
147
112
65
43
36
34
43
48
46
43
35
29
29
30
35
39
90
98
47
33
39
52
54
55
48
45
41
33
30
30
33
38
38
38
42
83
181
100
47
45
174
166
173
183
196
210
212
212
194
165
139
117
74
52
77
99
113
96
83
58
41
81
89
111
131
109
50
34
44
64
60
51
43
39
36
31
25
23
29
35
39
40
38
35
31
30
27
32
