P2
48 48 255

254
254
254
255
254
255
255
254
254
254
255
255
255
255
255
255
254
255
254
255
254
254
255
252
245
177
108
99
101
102
114
180
246
255
255
255
255
255
255
255
255
255
255
255
255
255
255
255
254
254
255
255
254
254
255
254
254
254
255
255
255
255
254
255
254
254
253
255
255
254
253
252
244
178
107
99
99
100
112
176
247
255
255
253
254
255
255
255
255
255
255
255
255
254
255
255
254
254
255
255
254
254
254
252
254
255
255
255
255
254
254
254
254
254
254
254
254
254
254
251
243
178
107
98
98
99
111
173
246
255
255
254
255
254
255
255
255
255
255
255
255
254
255
255
254
253
254
254
255
253
254
253
254
255
255
255
254
254
254
254
254
253
254
254
254
254
253
250
243
177
108
97
99
99
111
169
244
255
255
255
254
254
255
255
255
255
255
255
255
255
255
255
253
253
254
254
253
251
252
253
254
254
254
255
254
253
254
254
252
247
251
253
252
245
214
186
190
154
104
97
97
99
108
164
242
253
254
254
253
255
255
255
255
255
255
255
255
255
255
255
252
251
252
253
252
253
254
253
253
254
251
252
255
254
253
253
254
251
254
251
249
232
172
126
115
112
98
96
96
98
104
159
238
252
254
254
253
253
254
254
254
254
255
254
254
254
254
254
252
252
253
254
253
253
254
253
253
254
252
253
255
254
252
253
252
251
253
249
232
190
135
102
111
114
100
94
94
97
101
156
236
251
252
253
253
252
253
254
254
253
254
254
254
254
253
254
251
251
250
251
251
250
252
252
251
253
251
252
253
253
253
254
253
253
248
231
189
132
98
89
93
101
105
100
95
94
101
154
237
252
250
252
253
253
251
253
254
254
254
253
255
252
252
254
250
249
250
252
253
252
251
252
251
253
252
251
251
251
250
252
249
250
231
191
134
106
109
116
103
96
99
105
101
95
102
151
237
252
252
252
253
253
251
254
253
254
253
254
254
253
254
254
251
251
251
251
253
252
248
248
249
252
252
251
252
251
250
251
250
236
201
134
105
106
117
123
122
107
95
96
106
102
102
148
232
251
250
251
251
253
253
254
251
252
252
254
254
255
253
252
249
249
249
250
249
250
251
251
252
250
249
249
251
249
250
249
234
196
139
106
106
120
123
123
123
119
107
98
98
106
109
146
225
249
248
250
248
252
252
253
253
252
252
253
253
254
252
248
248
249
248
249
249
251
251
251
251
249
248
249
249
248
247
236
197
136
109
105
117
124
124
123
123
123
121
109
99
94
107
151
224
248
247
247
249
252
250
252
253
249
253
250
247
252
250
251
249
249
247
249
249
250
249
249
249
248
249
249
251
247
235
203
144
108
104
118
122
124
125
122
125
124
123
122
111
98
95
136
201
243
248
248
248
249
248
251
251
252
252
251
248
249
250
249
246
247
245
248
250
249
249
249
249
251
250
247
245
236
201
146
112
105
117
124
123
124
122
122
124
122
123
124
123
115
104
100
140
198
239
248
247
246
246
249
250
251
250
251
249
250
250
248
250
248
244
248
248
246
249
248
249
247
245
245
236
205
146
112
104
118
121
121
121
119
112
100
111
119
123
123
121
123
117
103
85
132
184
239
245
247
248
248
250
248
248
248
250
248
248
250
245
246
249
250
247
246
246
245
248
249
244
237
202
149
111
104
116
122
123
122
120
112
104
100
97
108
119
123
123
123
125
119
105
90
121
176
228
245
247
246
245
245
247
248
247
246
246
247
245
246
248
246
247
246
243
244
246
245
237
207
150
108
103
115
122
123
123
119
114
104
103
103
104
99
107
121
123
123
123
122
119
110
93
116
171
226
244
246
246
245
243
247
247
247
246
246
245
244
248
245
244
242
245
244
240
239
209
157
111
102
115
123
123
123
120
114
106
103
104
106
103
103
98
107
118
122
122
122
122
119
109
93
114
161
220
241
244
242
241
243
244
245
245
244
246
245
243
244
244
244
245
243
240
209
160
111
102
112
121
123
121
121
114
108
100
103
104
103
104
105
104
99
102
114
121
123
125
124
121
114
95
106
149
211
239
237
240
242
242
243
242
239
246
246
244
243
243
242
241
238
209
160
113
103
114
121
122
121
120
113
106
104
102
106
103
103
105
105
104
106
100
102
114
120
122
123
123
122
115
95
101
138
199
229
242
241
241
241
240
242
246
246
245
244
242
241
238
209
162
115
104
113
122
125
124
122
115
106
103
103
104
106
103
104
104
104
103
104
102
97
101
113
121
123
124
124
123
114
96
99
131
183
222
232
238
238
237
234
241
241
243
243
243
240
213
168
111
104
112
120
123
122
121
114
105
100
103
102
104
102
100
103
103
103
102
103
104
106
99
100
110
117
121
121
123
123
119
98
95
119
178
224
231
233
233
228
244
242
241
243
236
213
170
120
102
109
121
121
123
120
113
106
102
103
104
101
103
103
100
101
104
102
102
102
102
103
104
101
99
108
117
123
124
123
123
121
101
93
118
176
220
226
224
219
243
242
241
238
212
167
117
103
110
122
122
122
123
115
106
100
101
102
103
100
102
103
102
102
103
102
101
103
101
101
103
105
101
99
108
117
124
123
123
123
121
105
94
134
196
221
216
211
241
240
240
227
179
118
105
108
119
123
122
124
113
105
100
101
102
100
101
101
102
103
103
102
102
101
100
100
101
101
102
103
102
99
100
110
122
122
121
124
119
106
92
126
179
209
209
205
241
241
238
221
160
102
107
118
120
121
120
122
110
102
101
102
102
101
100
100
100
102
101
102
102
100
102
101
100
101
100
102
99
102
108
116
121
122
124
119
110
96
108
147
185
202
204
198
242
243
238
229
173
113
93
111
118
120
120
119
116
107
100
100
100
100
101
100
101
102
101
101
101
101
101
103
99
101
102
97
99
105
116
120
122
122
119
111
96
103
135
171
191
200
204
197
239
238
237
234
214
158
111
94
107
119
120
120
120
117
108
102
99
101
101
102
101
100
100
101
100
101
101
101
100
100
99
99
105
116
120
121
120
119
109
100
105
131
166
180
189
196
199
197
237
236
238
238
235
224
162
113
89
107
118
119
120
119
117
110
101
100
102
103
102
100
100
100
99
99
101
100
98
100
100
105
114
118
120
121
116
107
92
103
127
167
180
184
185
191
193
196
237
237
237
236
236
236
225
168
116
93
106
119
122
121
121
119
111
102
99
100
101
100
100
100
100
100
101
101
98
100
104
115
119
118
119
118
107
95
99
121
157
178
183
184
182
184
189
188
238
238
235
234
235
236
233
220
175
120
94
103
118
119
120
119
119
113
101
97
99
101
101
100
100
99
99
98
96
104
113
117
119
121
118
109
94
97
122
159
175
181
183
179
179
181
185
184
235
234
230
232
234
234
235
234
227
177
124
89
102
115
120
119
118
118
111
103
97
98
99
100
99
99
97
98
102
113
116
118
122
117
109
92
96
121
163
177
177
178
183
178
180
179
181
182
237
235
232
233
233
233
234
233
232
225
185
131
96
99
112
118
118
120
117
112
104
96
96
99
101
98
97
103
110
116
118
119
117
106
95
94
121
158
183
184
179
178
179
176
178
177
177
178
231
233
231
233
233
233
233
230
230
231
226
191
134
95
94
115
118
120
118
119
116
109
97
95
99
97
103
112
119
119
117
116
107
94
93
117
160
181
185
177
174
174
177
176
175
174
176
177
232
233
232
233
232
234
234
232
229
230
227
225
194
140
96
94
112
118
119
121
119
115
107
96
92
102
113
117
118
117
115
106
93
93
121
156
177
184
181
177
173
173
174
174
172
171
172
172
230
230
230
234
231
231
230
230
227
227
227
227
225
195
144
100
91
112
116
121
119
118
116
114
101
111
117
119
118
116
106
94
88
123
161
181
181
177
177
179
177
170
172
172
169
168
167
165
229
228
229
230
228
231
232
229
229
227
226
226
223
225
204
153
106
93
109
116
118
117
117
117
117
117
116
116
115
107
94
85
108
167
193
189
175
174
175
175
175
168
170
169
166
163
162
158
230
228
229
228
230
230
230
229
229
227
224
227
226
221
221
201
158
107
87
104
115
118
117
117
117
118
116
115
105
93
82
83
118
187
200
185
173
172
172
171
170
166
167
165
163
158
156
154
227
228
227
226
226
226
228
228
227
222
221
226
226
225
222
220
204
160
111
88
105
112
116
117
117
118
116
104
91
77
78
83
119
183
192
176
171
169
170
168
165
166
162
161
159
156
154
152
228
227
224
225
224
225
227
226
223
223
225
223
224
223
219
219
218
205
166
117
88
101
112
117
116
112
104
91
80
78
80
85
117
171
180
172
170
169
167
165
164
163
155
155
154
153
151
149
228
225
223
224
219
222
223
227
225
221
224
222
221
218
216
217
216
215
207
171
121
85
98
111
115
104
92
80
76
79
84
87
111
157
173
169
165
166
163
162
161
158
156
148
148
152
152
153
225
223
224
218
217
218
222
224
221
221
221
221
220
218
212
213
214
208
211
206
174
126
88
94
98
91
81
78
78
82
84
87
104
150
168
163
165
163
162
161
159
154
151
149
144
143
148
147
223
221
222
218
216
209
215
216
219
219
218
217
214
212
210
210
211
208
205
207
199
169
124
85
81
77
74
73
75
78
82
85
101
146
163
162
162
161
161
160
160
157
149
145
145
144
146
145
226
221
215
215
216
213
212
213
219
213
214
215
214
208
205
205
203
197
194
194
194
190
169
123
84
76
79
79
80
81
79
81
98
144
161
162
162
160
160
156
160
156
153
144
140
132
138
141
223
221
213
212
210
213
212
210
213
209
212
212
208
204
202
199
194
187
190
186
181
180
173
146
97
79
85
83
80
82
83
83
97
143
161
163
160
159
161
158
159
155
149
146
151
145
134
134
218
218
217
212
208
208
204
201
199
204
208
207
200
198
196
188
182
175
182
176
169
173
171
152
106
90
89
85
80
82
83
84
96
143
162
163
159
158
155
153
154
156
152
154
152
148
134
128
212
212
210
201
201
202
198
201
199
196
199
196
191
188
184
179
178
174
175
170
166
167
163
139
104
93
93
86
81
82
83
84
96
145
168
162
157
156
156
154
153
153
152
154
152
149
139
132
163
162
165
156
156
158
159
158
156
156
156
158
158
154
151
149
150
146
143
140
136
136
132
115
87
87
94
88
82
81
84
85
95
139
165
160
159
156
156
154
154
152
151
152
152
150
149
148
