P2
12 12 255

52
27
27
27
45
63
151
151
151
116
175
175
39
116
147
70
39
27
58
133
151
70
50
87
46
147
175
153
70
39
42
75
54
17
25
17
39
82
153
175
165
82
39
27
15
21
29
14
27
39
98
175
175
164
76
14
14
94
149
51
49
39
39
98
164
175
175
76
14
105
175
134
121
49
39
46
92
165
175
175
92
75
171
139
121
105
49
29
39
76
175
175
171
117
171
135
121
92
58
32
27
39
76
160
171
171
175
136
121
92
34
55
82
98
116
116
146
159
171
136
175
91
34
42
141
165
165
175
160
159
171
136
121
121
49
29
46
132
141
131
123
116
116
85
