P2
12 12 255

119
121
92
76
66
15
31
42
15
32
84
111
118
95
68
52
90
128
148
151
139
97
66
59
93
76
65
124
160
173
169
173
173
173
144
84
86
46
117
145
157
159
173
176
166
157
155
130
59
82
152
133
84
46
132
150
57
60
98
123
38
137
146
107
139
122
57
107
39
153
146
111
49
159
170
112
62
91
58
122
50
171
146
64
49
159
160
107
70
74
70
125
50
171
145
52
38
137
150
99
176
139
69
110
44
176
145
82
60
96
137
91
90
66
108
142
41
82
80
93
77
64
147
168
144
142
157
176
146
82
133
144
106
56
84
155
165
162
164
164
157
148
146
101
