P2
12 12 255

54
34
13
45
167
167
162
154
55
62
171
32
32
17
34
129
171
171
141
150
136
92
85
36
51
31
90
139
139
66
39
79
147
147
124
55
153
78
101
99
66
31
31
36
95
171
171
142
98
96
83
65
24
34
38
30
16
90
153
145
120
111
82
20
37
77
122
25
21
16
50
127
157
125
24
36
68
122
114
102
42
29
16
99
134
109
36
34
52
122
85
64
61
47
70
122
40
54
78
57
36
22
30
48
57
101
146
134
23
46
62
82
63
25
22
41
82
156
146
103
167
38
46
85
107
88
66
76
112
144
128
49
171
132
7
49
133
171
156
109
110
96
49
28
