P2
12 12 255

175
159
69
6
20
73
87
81
65
9
19
90
109
42
48
113
162
174
183
178
167
142
60
8
50
55
139
158
169
183
183
171
162
153
115
61
15
120
166
164
131
164
173
140
65
108
139
151
20
167
180
150
123
162
162
137
164
152
140
169
42
167
175
135
65
138
138
121
177
180
116
174
86
165
150
81
135
98
114
66
183
159
70
165
12
145
143
132
169
104
109
66
100
132
94
162
5
102
149
120
107
155
167
162
147
124
139
153
23
39
129
162
173
180
183
180
180
173
160
98
57
30
27
123
162
176
180
178
173
160
96
16
183
73
46
16
22
82
91
88
56
18
25
78
