P2
12 12 255

70
19
65
110
125
131
126
131
126
122
70
18
20
74
121
126
131
131
131
131
131
131
122
93
63
121
121
116
125
131
126
126
109
92
122
126
116
121
70
91
79
105
126
88
97
109
63
126
123
107
83
131
123
67
107
63
126
131
88
112
131
123
71
107
115
87
115
67
127
127
92
105
131
123
71
75
83
95
123
67
123
127
99
95
131
118
85
127
131
77
110
73
122
127
102
106
122
118
85
131
126
77
118
90
110
126
94
118
94
118
90
65
65
106
131
126
85
73
102
122
53
114
122
122
122
126
131
131
131
131
131
118
39
67
114
126
126
126
131
131
131
131
118
69
