P2
12 12 255

151
99
51
96
144
151
151
144
93
88
136
151
99
55
53
86
115
86
116
144
93
88
88
132
55
57
83
89
89
71
64
132
113
89
81
62
72
78
88
79
71
64
75
71
100
102
96
96
125
117
75
35
75
88
67
64
71
98
118
131
143
87
47
55
82
113
123
69
57
71
85
144
87
47
57
47
120
117
117
120
50
57
57
105
122
86
47
67
92
105
100
75
47
63
109
137
116
109
91
67
75
50
50
67
43
107
122
136
82
86
98
91
60
60
50
33
105
105
114
93
105
77
86
118
120
30
60
102
124
98
93
93
151
105
77
131
135
120
105
143
118
83
119
151
