P2
12 12 255

133
70
9
75
114
145
143
136
110
78
0
100
61
32
112
175
183
175
175
166
152
151
113
25
21
119
166
183
175
166
183
145
126
143
153
123
89
175
175
138
154
173
160
51
99
100
148
158
129
183
166
82
156
164
119
89
172
128
123
164
140
165
150
76
171
183
140
97
172
146
84
161
140
164
122
68
110
146
146
85
183
163
77
144
149
167
109
105
127
69
130
77
150
163
93
153
144
175
108
148
174
94
124
123
109
128
111
153
115
164
145
126
138
82
165
165
135
137
158
160
56
150
156
139
117
147
174
174
167
174
174
121
42
59
141
159
167
183
183
165
175
167
126
37
