P2
12 12 255

158
130
131
159
59
69
119
31
107
177
177
175
183
130
138
129
13
117
141
90
48
150
177
171
78
126
130
40
63
131
128
97
23
99
177
177
71
130
116
15
115
139
132
117
100
47
150
166
80
117
34
65
135
183
94
111
138
40
97
154
86
102
20
118
131
64
27
94
147
117
51
118
102
49
80
139
116
17
4
89
176
140
31
81
75
14
114
135
107
12
6
82
162
140
94
46
35
77
122
87
62
12
2
19
78
145
129
25
14
129
183
183
116
17
2
76
166
174
161
97
73
183
183
183
116
23
47
78
174
183
173
126
123
183
183
183
116
116
127
118
174
183
173
159
