P2
12 12 255

17
8
19
25
15
19
8
20
27
35
35
32
17
16
19
26
34
38
54
35
30
23
35
44
19
16
37
129
155
167
167
163
124
61
35
52
22
35
128
159
179
179
179
151
101
87
70
39
22
105
136
97
112
153
132
64
62
65
89
39
32
128
66
125
102
62
44
91
153
84
120
102
45
165
131
56
37
47
64
107
173
107
131
138
51
179
129
15
49
56
49
108
169
112
125
130
28
160
108
146
146
61
61
84
111
93
112
100
18
113
96
29
24
117
156
144
112
108
93
33
15
28
82
132
155
165
174
179
167
140
58
16
18
11
25
119
151
165
165
162
111
31
19
19
