P2
12 12 255

91
108
116
120
122
138
138
140
153
143
155
118
102
109
136
127
61
11
4
9
74
144
159
159
120
128
96
7
47
128
140
133
86
17
95
153
136
126
30
138
162
176
178
178
165
148
74
87
105
7
148
159
158
167
183
169
161
152
152
51
33
59
167
153
124
130
154
142
129
138
159
143
10
159
177
142
162
126
128
105
175
157
152
157
12
165
183
152
62
56
147
124
180
171
157
165
15
162
178
148
164
162
148
119
180
175
154
165
37
145
168
119
158
134
122
122
165
152
151
151
76
47
165
164
131
137
160
162
143
151
163
143
94
15
78
154
162
175
183
177
167
158
146
9
