P2
48 48 255

19
17
16
15
15
16
19
21
19
18
19
18
18
18
18
17
15
16
17
16
15
14
14
15
20
18
16
17
18
17
16
17
19
19
18
17
17
17
17
17
17
16
16
14
14
15
16
17
18
16
16
15
15
17
19
19
19
21
21
18
17
16
16
16
14
15
16
16
15
15
14
17
17
17
17
16
17
18
18
17
17
16
18
17
16
17
17
17
18
17
16
14
15
16
17
15
18
16
17
16
16
16
18
19
21
21
20
18
16
14
15
15
15
15
16
16
16
14
14
14
16
17
18
17
17
19
20
19
17
17
17
16
15
15
17
17
16
16
15
14
15
16
16
16
17
17
17
18
17
16
17
19
20
19
18
18
16
14
15
15
16
17
16
15
16
17
14
17
17
16
15
15
18
21
21
20
17
16
15
14
15
17
18
17
15
15
14
14
16
15
16
15
18
18
17
19
17
16
16
17
18
18
17
16
16
16
16
15
16
17
18
17
16
15
14
16
15
15
14
16
19
20
18
17
16
15
16
17
18
19
19
18
16
15
14
15
17
18
16
15
19
17
18
19
18
17
16
16
16
17
16
16
15
15
15
16
16
16
16
15
15
16
16
17
19
21
17
19
19
20
16
15
14
15
18
18
19
18
15
15
16
16
16
17
18
18
17
15
18
18
18
19
18
17
16
16
16
16
15
15
16
17
17
17
17
16
17
15
13
15
18
20
23
23
20
19
18
17
16
15
15
17
17
18
18
16
16
16
17
18
18
18
18
18
16
15
18
18
18
17
19
17
17
15
16
15
14
14
14
16
17
18
18
17
17
16
17
19
23
26
24
24
23
23
21
18
17
15
17
18
18
17
16
16
16
17
18
17
16
16
16
15
15
15
17
16
16
16
16
17
16
15
14
15
13
14
14
14
16
17
20
22
23
21
23
23
24
23
22
22
22
23
23
21
20
20
19
19
18
17
16
17
18
18
17
17
16
15
15
14
15
17
19
17
16
16
17
17
17
14
13
13
13
13
14
14
16
19
23
27
24
20
16
11
11
11
11
11
11
12
16
16
20
23
22
22
20
18
18
17
17
17
15
17
17
15
16
18
19
17
19
16
16
17
17
18
16
14
14
13
14
14
15
18
22
24
24
19
14
12
11
11
10
10
11
11
11
11
11
11
12
15
18
22
24
21
19
19
18
17
15
17
17
16
18
19
18
15
18
16
16
16
15
17
16
15
15
14
14
16
19
23
24
20
16
12
12
12
12
11
12
12
12
11
11
12
11
11
11
11
13
16
21
23
21
19
17
16
15
15
17
17
18
18
17
17
18
17
16
16
16
17
16
15
15
16
16
18
22
21
17
15
11
11
11
12
15
17
20
22
22
21
20
17
14
13
11
11
11
11
14
19
22
19
17
16
15
14
15
16
16
15
16
17
18
16
15
15
17
17
16
15
14
16
19
22
21
17
13
12
11
12
14
18
26
32
38
42
41
41
39
35
29
22
18
13
11
11
11
14
19
22
20
17
15
15
16
15
16
17
19
17
17
15
15
15
16
17
16
15
16
18
22
21
16
13
12
12
14
20
27
35
43
45
46
45
45
45
44
43
42
38
33
25
15
12
11
11
14
20
22
18
15
14
14
14
16
18
18
17
16
16
16
15
15
17
17
16
17
20
22
19
14
12
12
14
23
31
41
46
47
47
45
45
46
46
45
44
43
43
42
37
26
18
13
11
11
15
20
20
16
14
14
14
16
16
16
16
15
16
16
15
15
19
18
15
17
22
20
15
12
12
15
24
34
40
45
47
46
46
45
45
46
46
42
38
35
35
37
40
38
28
17
13
11
12
16
20
19
16
16
15
16
15
14
14
16
17
17
15
15
17
17
14
19
24
18
12
11
13
21
33
42
45
45
46
46
46
45
45
47
42
33
25
18
17
22
30
36
36
26
17
12
11
14
18
20
18
17
16
18
14
13
13
18
18
16
15
15
14
14
15
20
21
15
11
12
16
29
41
46
45
40
37
40
44
45
46
45
33
21
19
18
17
15
19
28
36
36
23
14
11
12
15
20
19
18
17
16
14
13
13
18
18
17
17
15
12
13
17
20
18
12
11
13
22
36
46
46
43
30
24
31
40
44
46
41
26
15
20
34
32
25
18
22
34
40
30
18
12
11
13
18
20
19
16
14
13
13
13
19
18
17
17
14
12
14
19
20
15
12
12
17
30
42
47
45
40
23
19
31
39
44
44
36
23
16
29
42
40
34
23
18
31
41
34
23
14
11
12
15
20
18
15
13
12
13
14
19
17
16
15
14
12
15
20
19
13
12
12
21
36
44
46
45
37
20
17
35
44
45
44
35
22
18
32
43
44
37
24
16
28
41
38
27
15
11
11
14
19
17
14
12
14
14
14
19
17
15
14
13
14
17
22
18
12
11
13
24
38
44
44
43
34
17
21
36
45
46
44
40
24
17
29
42
44
40
27
16
26
40
41
32
18
11
11
14
19
17
14
12
14
14
13
19
16
15
14
14
15
19
23
18
11
11
14
27
41
45
44
41
29
17
22
37
45
46
44
42
26
15
26
41
44
41
30
17
23
37
42
34
20
12
11
14
18
18
15
13
12
13
13
15
15
15
15
14
15
19
23
17
11
11
14
28
42
45
44
38
25
16
20
29
32
38
42
42
30
15
23
40
45
42
33
19
21
35
41
35
21
12
11
13
19
19
14
13
13
15
14
15
15
15
15
13
14
19
23
17
11
11
15
28
41
44
44
34
20
14
15
16
17
20
32
40
33
16
21
36
44
43
35
22
19
31
40
35
21
12
11
13
20
19
14
12
15
16
15
17
14
14
15
13
14
19
23
17
11
11
14
27
41
44
42
31
17
14
18
21
18
13
19
37
34
18
18
33
41
43
35
24
21
30
38
34
20
12
11
14
20
20
14
12
15
16
15
16
14
13
14
13
14
18
23
18
11
11
13
25
39
43
40
26
15
20
29
36
29
18
16
31
35
21
18
28
38
43
34
25
21
28
37
32
18
12
10
13
20
19
15
14
15
16
16
15
14
13
14
14
14
18
22
19
12
11
13
22
37
44
39
24
16
27
39
44
39
22
16
27
35
24
17
23
31
35
30
20
20
30
36
28
16
11
11
15
20
18
17
16
16
16
16
16
15
14
14
15
15
17
20
18
14
11
12
18
31
42
40
24
16
27
38
44
40
25
18
25
33
33
23
16
18
20
18
16
25
35
34
24
14
11
12
17
20
18
16
15
14
13
15
17
16
14
13
14
14
14
17
18
16
12
11
14
25
38
41
28
16
23
34
37
35
21
15
29
39
41
34
21
15
14
16
24
34
38
31
18
12
12
13
19
19
15
14
13
12
12
13
16
18
15
13
12
12
13
15
20
19
13
11
12
20
33
39
35
24
16
20
21
21
13
19
36
43
43
41
36
32
30
33
38
40
36
23
13
11
12
16
20
17
13
12
11
12
12
11
17
18
17
13
11
13
13
15
19
21
15
12
11
15
25
37
39
34
21
13
13
14
21
33
40
44
44
43
43
42
41
42
43
38
27
17
12
11
13
17
19
15
13
12
12
12
12
12
17
17
16
13
12
13
14
15
17
19
16
13
11
12
16
26
37
38
35
31
29
27
36
40
44
44
43
42
43
43
43
43
40
29
19
13
11
11
15
19
17
14
12
13
13
12
13
15
18
15
14
12
11
13
15
15
15
17
18
15
12
11
12
15
26
36
40
42
41
41
44
45
45
45
43
42
44
44
43
39
29
20
14
12
11
14
18
18
13
13
14
14
14
13
15
16
16
14
13
12
12
14
14
13
12
14
18
19
14
11
11
12
16
24
31
37
43
43
43
44
44
43
42
42
43
41
36
26
17
13
11
11
13
18
20
16
12
12
14
14
15
16
16
16
13
13
14
13
14
15
14
12
11
12
16
22
19
14
12
11
11
13
17
22
31
39
41
43
43
43
42
39
31
26
19
14
12
11
11
13
17
20
18
14
11
13
18
19
18
18
18
16
15
14
15
13
14
15
13
12
11
12
16
20
22
19
15
12
12
11
12
14
16
20
23
25
27
31
25
21
17
14
11
11
11
11
13
18
19
19
17
13
11
15
18
19
19
20
18
15
18
15
13
13
16
16
14
11
11
13
15
17
19
22
20
15
12
11
11
11
11
12
13
13
13
15
12
12
11
11
11
11
11
14
20
21
18
16
14
13
14
16
18
19
20
18
17
15
16
14
11
12
15
15
13
11
13
15
16
17
17
19
22
21
19
16
12
11
10
11
11
11
12
11
11
11
11
11
11
13
14
19
20
17
14
13
14
14
15
17
17
18
18
16
15
15
18
12
10
13
15
13
11
12
14
14
15
16
15
16
19
20
22
23
19
14
14
10
11
11
11
12
11
11
14
13
17
20
19
18
15
14
14
15
17
16
16
17
17
16
15
15
15
15
15
11
11
11
12
11
10
11
13
13
13
14
14
14
15
17
18
19
21
21
22
19
17
16
16
15
15
17
19
21
21
17
15
14
13
13
14
15
17
17
17
18
17
15
15
16
15
15
12
12
12
10
9
10
12
13
13
13
14
15
15
14
14
16
16
14
16
16
18
19
20
21
22
23
21
20
18
15
14
12
13
13
13
14
16
17
17
17
18
17
14
14
16
16
16
15
13
14
12
10
10
11
14
15
15
15
16
15
15
14
13
14
15
15
15
15
15
14
14
14
15
15
14
13
12
13
15
13
13
13
14
14
15
16
16
17
17
16
15
16
17
18
16
17
13
13
11
11
12
15
18
14
14
17
17
15
14
14
14
14
15
15
14
14
14
13
12
11
14
16
15
15
13
15
15
14
14
14
15
15
14
15
16
16
17
16
17
15
14
14
14
14
11
11
10
12
15
17
17
15
13
13
14
13
13
14
14
15
16
15
13
13
13
14
15
15
16
16
16
14
13
15
16
14
13
12
12
13
15
19
18
17
17
17
16
15
15
15
14
14
10
10
10
13
15
16
17
15
14
13
13
13
13
13
13
12
15
14
14
15
15
14
15
16
14
13
13
13
13
15
17
14
12
11
12
13
16
16
16
16
18
17
17
18
18
15
16
15
10
10
13
16
15
15
17
17
14
12
13
13
13
14
14
15
18
17
17
14
15
16
15
13
11
11
10
12
14
15
18
16
13
13
14
15
17
17
18
20
19
18
17
17
15
14
14
14
