P2
48 48 255

15
15
15
16
18
20
19
19
18
17
15
15
15
16
17
18
19
20
21
19
18
18
19
20
22
20
19
17
16
16
15
15
16
17
18
17
17
16
17
17
15
14
14
14
14
14
14
15
16
16
16
16
17
18
17
17
17
16
14
14
15
17
18
18
18
19
19
18
18
19
21
22
21
19
17
17
16
16
16
16
16
17
18
18
18
17
17
17
16
15
15
15
15
15
15
16
16
16
16
16
16
16
15
15
14
14
14
14
15
17
17
18
17
17
17
17
18
19
22
22
19
17
16
17
17
16
16
16
16
17
17
19
19
17
17
17
16
16
17
16
16
15
15
16
15
15
15
14
14
15
15
15
15
14
14
13
13
14
15
15
15
15
15
16
17
18
20
21
18
17
17
17
17
16
16
16
16
17
18
18
17
15
16
16
17
17
17
17
16
15
15
16
15
14
14
14
14
14
14
15
15
15
14
14
15
15
16
16
16
16
16
17
18
18
19
19
18
18
17
17
17
16
16
16
16
17
17
17
17
16
16
17
17
17
17
16
15
15
15
15
14
14
13
13
13
13
14
14
15
15
15
15
16
16
17
17
17
17
17
18
19
19
19
19
18
18
18
17
17
16
16
16
17
17
17
16
16
16
17
17
17
17
17
16
14
14
14
14
16
16
15
14
14
14
15
15
15
15
15
16
17
18
20
20
19
18
18
19
21
23
22
20
18
17
17
17
17
17
17
17
17
17
17
16
16
17
17
17
17
17
16
15
14
13
13
13
18
17
15
14
14
14
15
15
15
15
15
16
18
20
21
21
20
19
18
20
22
25
25
23
20
18
16
16
16
16
16
17
17
17
16
16
17
17
17
17
17
16
15
14
14
13
13
14
20
18
15
14
14
14
14
15
15
15
15
17
19
21
21
21
19
18
18
21
23
26
27
27
23
20
17
16
15
15
15
16
17
16
16
16
17
17
17
17
16
15
15
14
13
13
14
14
21
18
15
15
15
15
15
15
15
15
16
17
18
19
19
19
18
18
18
21
23
27
27
28
28
26
22
19
17
16
16
16
15
15
15
16
16
17
16
16
14
14
14
13
13
14
15
16
22
19
17
16
16
16
16
16
16
16
17
17
18
18
18
17
17
19
23
27
32
35
37
38
37
34
31
28
26
25
23
20
18
17
16
16
16
16
16
16
15
14
14
13
13
14
15
15
22
20
18
17
17
16
17
17
17
18
18
18
18
18
17
17
17
23
29
34
38
40
44
45
42
40
38
37
35
33
31
28
24
21
18
16
16
16
16
16
15
14
14
14
14
14
14
14
20
19
18
17
17
17
18
18
18
18
19
20
21
21
22
24
27
33
39
35
33
33
37
39
33
33
35
37
38
38
38
38
32
27
22
20
19
18
17
16
14
14
14
14
14
14
14
14
20
19
18
17
17
17
18
18
18
18
20
21
22
24
27
30
33
35
35
31
30
29
32
34
31
31
32
33
34
35
37
38
38
33
28
24
21
20
17
16
15
15
15
14
14
14
14
14
19
18
18
17
16
17
17
18
17
18
20
22
24
27
31
34
36
34
30
30
32
34
36
37
39
39
37
35
34
33
33
35
40
39
34
29
25
21
18
16
16
16
16
15
14
15
14
14
18
18
18
17
16
18
17
17
17
18
20
23
27
29
32
34
35
32
30
40
50
60
64
68
75
73
66
60
53
45
36
32
37
39
38
34
29
23
19
17
17
16
15
14
14
13
14
14
18
18
18
16
16
17
17
17
17
18
21
26
30
32
33
34
34
41
52
69
82
88
92
96
100
99
96
87
79
69
54
43
37
36
37
38
35
29
22
17
17
16
14
14
14
13
13
14
18
17
17
16
16
16
17
17
16
19
23
29
33
34
33
34
38
57
81
99
110
112
116
118
117
116
116
107
98
87
74
60
44
38
36
39
39
34
26
19
16
15
14
14
13
13
13
13
18
17
16
15
15
14
16
17
15
21
27
32
35
35
34
40
61
85
109
114
119
122
122
122
122
117
110
101
89
73
80
81
63
48
34
38
40
40
31
22
17
15
14
14
13
13
13
13
18
17
16
16
16
15
16
17
19
25
33
33
34
33
45
60
86
99
106
103
105
112
118
120
115
100
84
77
68
57
72
83
76
61
44
39
38
41
34
27
19
16
14
14
14
14
14
14
18
17
17
17
17
16
17
18
22
30
37
34
32
33
57
82
103
100
87
81
83
93
106
113
103
84
63
60
56
51
64
78
83
73
56
43
37
40
36
31
21
16
14
14
14
15
15
15
18
17
17
17
17
18
19
21
27
29
32
32
34
41
68
89
92
74
50
53
56
62
83
97
90
85
82
84
82
75
70
71
84
80
69
50
40
40
35
29
23
17
13
15
15
14
14
15
19
18
17
16
17
19
20
22
28
30
32
31
37
50
75
91
79
71
66
77
75
60
73
82
78
78
80
90
94
93
78
72
87
87
79
56
43
40
37
33
25
18
13
14
15
14
14
15
19
17
16
16
17
19
20
23
28
32
35
31
39
57
82
93
73
76
88
102
94
65
68
73
73
71
71
90
101
106
85
73
90
93
88
61
46
39
40
38
27
19
12
13
14
13
14
15
17
17
16
16
17
19
20
22
29
33
35
32
41
63
88
102
89
82
78
78
74
64
69
76
82
77
70
91
104
109
87
73
89
97
99
67
47
40
41
39
27
19
14
14
14
14
14
13
17
17
17
17
17
18
19
21
30
35
38
33
44
70
94
107
95
80
67
56
54
60
69
78
81
75
68
92
107
114
91
77
90
97
100
69
50
41
42
40
30
21
15
16
16
16
14
14
17
17
17
17
17
17
18
21
31
36
38
34
46
73
98
110
95
77
58
45
46
59
71
79
77
72
67
93
109
116
94
79
90
96
97
69
51
43
42
41
32
24
16
17
17
17
15
14
18
17
17
17
17
16
17
22
32
35
35
34
45
68
97
112
92
73
56
65
72
78
80
80
79
74
71
97
109
108
92
81
89
95
95
65
48
44
40
35
29
22
15
16
16
15
15
16
18
18
17
17
17
17
18
22
32
37
40
35
42
62
90
105
88
79
77
93
97
91
82
75
76
76
76
90
97
98
90
85
91
91
86
58
44
45
43
38
27
20
15
15
15
15
15
15
18
18
18
18
18
18
19
22
31
38
43
36
40
56
81
96
83
84
93
107
107
92
80
74
80
82
82
80
82
85
87
88
91
85
74
51
42
45
45
40
26
18
14
14
14
14
14
14
19
18
17
18
19
20
20
21
29
33
34
33
37
47
73
89
84
74
63
67
68
65
76
89
106
105
96
73
65
71
79
85
87
78
64
47
42
48
41
33
22
16
13
13
13
13
14
14
20
19
19
20
20
20
19
20
27
32
36
35
36
39
59
77
85
78
65
60
62
69
84
100
114
116
111
97
91
95
94
90
84
70
52
42
39
44
35
26
20
16
13
13
14
14
16
17
20
20
20
21
21
20
18
18
24
32
38
39
37
34
46
62
81
83
78
70
73
86
99
110
116
121
123
122
120
119
106
92
77
59
42
38
37
39
30
22
18
15
14
15
16
17
19
21
19
20
21
21
20
19
17
17
18
25
33
40
41
37
37
43
63
82
99
102
106
114
117
119
121
122
122
123
117
106
90
75
61
46
32
36
37
34
27
20
16
15
16
17
19
21
23
25
19
19
21
20
19
18
17
17
17
22
28
36
40
40
37
37
45
63
85
95
104
112
116
120
119
119
117
107
95
80
67
55
45
38
34
39
37
29
24
20
19
18
19
19
19
20
22
23
18
18
19
18
17
17
17
17
17
19
23
30
36
41
39
36
33
43
59
72
83
93
103
110
105
105
105
83
67
55
46
38
33
35
40
41
35
24
21
20
20
20
20
19
18
18
19
19
17
18
18
17
17
16
16
16
16
18
21
25
30
36
41
43
38
35
34
42
48
54
70
77
64
68
77
54
41
38
36
35
37
41
43
35
26
18
17
17
17
16
16
16
16
16
16
17
18
18
18
18
18
17
16
16
16
18
19
22
26
30
37
42
44
40
34
34
35
38
46
50
42
44
50
40
36
37
36
36
41
40
35
26
19
15
15
15
15
14
15
15
15
15
15
16
18
18
18
19
19
17
16
16
17
17
18
19
22
26
30
37
46
46
41
37
34
33
33
32
33
33
34
36
38
41
39
38
41
35
24
17
14
13
14
13
13
13
14
14
14
14
14
15
17
17
17
17
17
17
17
17
17
17
17
18
19
21
23
27
35
42
47
46
46
47
44
43
47
48
49
50
49
44
39
34
30
24
18
16
14
14
14
14
14
15
15
15
15
15
15
15
17
17
17
18
18
17
17
19
21
23
25
26
27
28
29
31
36
40
45
46
48
49
49
50
51
50
50
48
45
41
37
34
30
27
24
24
21
19
17
15
15
15
15
16
16
16
16
16
17
17
17
18
18
17
19
22
28
35
40
40
41
43
44
45
45
46
48
50
51
53
56
58
56
53
51
48
45
42
40
39
38
38
38
36
32
27
21
17
15
15
15
16
16
17
17
17
19
18
18
18
18
18
23
30
44
57
69
68
68
70
71
73
72
72
72
71
70
69
70
72
71
71
70
70
68
66
64
62
62
61
61
54
45
37
26
17
15
15
15
16
16
16
17
17
21
19
18
18
18
18
26
40
60
81
99
98
98
98
101
103
104
104
104
103
102
99
97
96
97
99
99
98
96
95
91
88
86
83
80
72
59
39
26
18
16
16
15
16
16
16
16
16
21
20
18
17
17
19
29
47
74
100
123
119
118
119
120
122
125
127
127
126
125
120
117
115
114
116
119
117
115
113
108
104
99
94
88
82
66
39
26
19
17
16
15
16
16
17
15
14
19
19
18
17
17
18
31
49
79
104
125
114
109
112
109
108
111
114
116
113
108
103
104
103
96
97
101
104
103
100
93
86
82
78
73
65
53
38
26
19
19
18
17
16
16
15
14
13
19
18
17
17
17
18
32
51
82
108
127
115
107
105
103
102
105
106
105
102
98
94
95
94
88
85
86
90
91
90
80
70
62
58
55
50
42
33
25
19
19
18
17
16
15
15
14
15
18
17
17
17
17
19
33
52
83
108
129
118
109
100
99
100
101
100
98
95
92
90
89
88
83
80
76
79
81
83
71
58
47
42
41
38
34
28
23
19
18
18
18
16
14
14
15
16
