P2
48 48 255

55
51
43
44
46
49
51
52
52
53
52
51
50
49
49
51
52
53
55
55
56
54
51
49
48
49
48
46
44
43
45
49
54
58
62
63
64
64
63
60
56
54
52
50
52
55
52
52
59
54
48
50
53
54
54
54
54
53
53
52
52
51
53
54
55
56
57
56
55
54
52
50
48
49
48
46
45
44
46
49
54
59
63
66
67
67
65
63
58
53
51
50
52
54
54
54
64
60
53
57
62
60
58
56
54
54
55
54
55
55
57
58
58
59
59
56
55
54
54
50
48
48
47
46
45
45
46
49
54
59
65
69
71
69
68
66
60
52
50
50
52
53
56
58
66
63
59
59
59
57
55
53
53
56
56
56
56
56
58
59
60
60
58
56
54
53
51
48
47
47
47
47
47
46
46
47
50
59
72
71
67
68
67
63
57
50
48
47
49
51
54
55
70
67
61
57
54
54
53
50
52
57
59
60
60
61
63
64
64
63
61
57
54
52
51
47
47
47
48
47
46
46
45
46
48
56
70
68
63
64
63
58
53
48
46
45
47
50
52
53
75
70
61
54
49
50
50
47
50
56
61
66
67
68
72
73
71
68
65
59
53
53
52
49
47
48
47
45
44
43
44
45
45
51
60
60
58
57
55
53
50
47
45
43
45
47
51
52
70
67
60
53
47
48
48
46
48
53
56
59
60
61
66
68
66
64
62
57
52
50
49
46
45
47
47
46
45
44
44
45
45
47
51
52
53
53
53
51
49
46
45
44
45
47
50
52
64
62
59
52
45
46
46
46
46
49
50
51
52
55
60
63
61
60
58
55
51
49
47
45
45
48
49
48
47
47
46
45
44
45
46
47
50
51
52
49
47
45
45
46
46
46
49
52
59
58
57
50
43
44
45
45
45
46
46
46
50
54
56
57
56
55
55
54
53
52
52
52
53
55
54
53
51
49
47
45
44
45
48
51
55
56
55
51
48
46
46
48
47
47
50
52
55
55
56
50
42
43
44
45
46
46
46
45
49
54
56
57
57
54
49
49
50
47
45
43
44
45
44
43
43
44
45
45
45
47
51
54
57
58
58
53
49
46
47
49
48
48
51
52
53
53
54
49
42
43
44
46
48
49
48
45
50
54
56
58
59
53
42
42
43
39
34
30
28
28
29
29
32
36
40
44
47
50
53
56
58
61
61
55
50
47
47
49
49
49
51
52
51
51
50
46
42
44
46
48
49
48
47
46
52
57
61
61
53
44
34
31
30
28
25
24
24
24
24
24
25
26
30
34
37
42
47
53
58
59
58
56
52
47
48
50
49
50
52
53
48
48
46
44
42
44
46
49
48
47
47
47
53
59
60
55
44
35
29
27
25
27
28
30
32
33
31
30
29
28
27
28
30
35
40
46
52
55
57
55
52
47
48
50
50
50
52
53
46
44
42
41
42
42
44
46
47
46
47
50
56
60
51
42
30
26
26
27
28
35
41
47
51
53
51
46
45
41
32
26
26
27
28
35
43
50
55
54
51
47
48
50
49
48
51
52
48
45
42
42
42
43
44
45
46
47
49
53
51
48
39
32
30
31
36
43
51
60
67
70
73
75
73
70
68
63
51
41
34
30
28
30
34
43
50
52
51
48
49
51
49
47
50
51
49
46
41
42
42
43
43
44
46
48
51
53
45
37
29
27
33
40
48
59
72
81
87
87
88
89
88
86
84
80
68
55
43
35
31
29
29
37
45
49
50
48
48
50
48
46
49
50
49
46
41
41
41
41
42
43
45
49
50
50
40
31
31
34
43
52
62
73
83
85
88
89
89
88
86
84
81
78
74
66
55
44
34
32
33
35
38
43
46
45
47
48
46
45
46
47
52
49
42
41
40
40
40
43
46
51
50
46
37
29
33
41
54
65
74
76
76
76
79
87
88
84
78
70
64
58
61
61
58
52
42
37
32
32
34
41
45
45
46
46
45
44
44
45
56
52
45
42
39
39
39
42
47
53
50
43
34
28
37
48
65
76
83
73
61
63
67
83
87
80
68
54
43
35
43
51
59
58
53
42
30
29
31
41
46
46
45
44
43
43
43
43
52
50
47
44
41
39
39
41
45
54
49
39
32
28
43
58
75
80
77
64
51
62
72
84
86
76
63
48
47
48
54
57
59
61
63
52
38
31
28
36
42
45
44
44
42
42
42
43
48
49
48
45
42
40
38
40
44
52
46
34
30
30
49
66
80
80
71
58
46
63
76
84
83
72
63
53
57
61
61
61
57
61
70
59
45
33
26
32
38
44
44
43
42
41
42
43
44
46
48
46
43
40
39
39
42
48
42
30
30
35
56
73
79
75
64
53
45
66
81
82
77
68
66
68
73
76
68
60
52
57
72
64
53
36
26
28
35
45
45
43
41
41
42
43
46
47
50
47
44
41
40
40
42
47
40
29
30
35
58
73
78
73
61
50
40
55
67
72
72
65
61
59
70
78
73
65
53
58
74
68
56
39
27
28
34
46
46
44
42
41
42
43
46
48
50
48
45
42
40
40
42
45
38
28
31
38
59
72
74
68
56
47
40
48
56
64
66
62
57
51
66
79
76
68
53
58
75
70
59
40
28
28
34
46
47
44
43
42
43
43
45
46
49
49
48
42
39
41
40
38
33
27
37
48
64
70
64
56
48
48
49
53
56
59
60
61
56
50
66
79
71
61
51
57
73
71
63
41
26
27
34
46
48
46
45
44
44
44
43
45
47
47
46
42
39
41
40
40
35
28
34
42
59
66
61
54
45
54
65
62
58
55
53
53
50
46
59
71
68
62
50
55
71
68
60
40
26
28
35
46
49
46
47
46
45
44
42
43
44
44
42
40
39
39
42
45
38
28
27
30
50
62
62
56
45
61
79
70
60
52
47
46
44
42
51
60
66
64
50
53
68
63
53
37
26
30
37
47
49
48
48
47
46
45
41
41
41
41
40
39
39
39
41
44
38
29
27
28
46
58
61
56
45
49
56
53
51
53
57
61
56
50
47
46
49
49
45
52
67
60
48
33
25
32
38
46
47
45
44
43
42
42
40
40
38
38
38
39
39
39
40
43
38
30
27
27
42
54
62
58
49
47
47
49
52
59
66
71
67
59
52
46
46
47
48
55
66
57
44
32
25
32
38
44
45
43
42
41
41
41
41
39
36
36
37
38
39
38
39
42
39
34
27
24
37
50
63
64
58
53
50
56
62
70
74
77
75
71
66
60
59
58
60
62
64
55
42
30
23
30
37
43
43
42
40
38
39
40
42
41
38
38
38
39
39
38
38
40
39
38
31
25
29
37
51
60
66
67
67
72
76
80
81
82
81
80
78
75
73
71
69
62
52
41
30
30
32
38
42
43
42
40
39
38
39
39
43
42
41
40
40
39
38
38
38
37
38
40
34
28
24
26
38
52
66
73
77
81
85
85
86
86
85
85
85
83
80
76
70
56
39
29
22
31
40
45
46
42
40
39
38
38
39
39
45
44
43
42
40
38
37
37
37
35
36
38
37
35
30
27
26
35
49
59
68
73
79
83
85
84
84
84
80
76
72
65
52
39
25
26
30
38
43
44
42
38
37
38
38
38
39
40
46
45
44
42
41
39
38
38
37
35
37
40
39
38
35
31
26
28
33
41
49
55
61
68
70
70
69
68
63
57
52
45
35
28
24
29
37
41
44
42
39
37
37
37
37
38
39
40
47
46
44
42
41
41
41
40
38
36
38
42
41
40
40
36
31
26
21
24
29
34
40
47
51
52
49
44
40
36
30
25
20
22
29
37
43
43
43
39
37
37
37
37
37
38
39
41
44
43
40
40
40
42
43
41
38
36
38
40
41
41
41
40
38
34
30
27
25
26
28
29
31
31
30
29
27
25
24
23
27
34
41
44
45
44
42
40
38
38
37
37
38
38
39
40
42
41
38
38
39
42
43
41
39
37
37
39
40
41
41
41
42
41
39
33
28
27
26
25
24
23
24
25
26
27
28
31
38
43
48
48
46
45
42
40
38
37
37
36
37
38
39
40
40
39
38
38
38
40
41
40
38
37
37
37
38
39
40
42
44
46
47
44
39
37
34
33
31
30
31
32
36
39
43
48
50
50
48
47
46
45
43
41
39
37
36
35
36
37
40
42
42
40
38
38
38
40
40
39
38
38
37
36
38
38
40
42
43
45
46
43
39
37
36
39
40
40
40
42
41
41
45
47
47
45
43
43
44
44
44
42
40
36
35
35
35
35
38
40
43
41
38
38
38
39
40
39
38
38
37
36
37
38
41
43
44
44
44
40
37
36
38
42
45
46
46
47
44
43
45
44
42
41
39
41
43
45
45
44
40
36
36
36
35
35
37
38
45
43
40
39
39
39
40
40
39
37
36
35
37
40
46
49
47
45
42
40
37
37
37
39
41
42
42
44
44
43
42
41
39
39
40
43
46
46
46
45
42
37
36
37
36
36
36
37
47
45
42
40
38
39
40
40
39
37
36
35
38
40
45
49
49
46
42
40
38
38
37
38
40
41
42
44
44
43
42
40
39
39
40
43
45
46
47
45
42
38
36
36
36
35
35
35
49
48
44
41
38
39
40
40
38
36
36
36
38
40
43
46
49
48
43
41
40
38
37
38
40
41
43
45
44
43
41
40
39
39
40
42
43
46
47
46
43
38
36
35
34
34
34
34
53
50
45
41
38
38
38
40
40
38
38
37
38
39
40
41
42
41
39
39
38
38
38
38
40
41
43
44
43
43
42
41
40
41
42
45
48
46
45
46
43
37
35
34
34
34
34
34
52
49
44
41
38
38
38
40
40
39
38
36
37
38
37
37
37
37
37
37
36
37
37
38
40
41
42
43
43
43
43
42
42
42
43
45
47
45
43
44
42
36
34
34
34
34
33
33
49
46
41
39
37
37
38
39
39
37
36
35
36
37
36
36
35
35
34
35
35
36
36
37
39
40
42
43
44
45
45
45
44
43
43
43
43
41
40
41
39
35
34
34
34
34
33
33
46
44
40
38
37
37
38
39
38
37
35
34
35
36
35
36
37
37
35
36
36
36
36
38
39
41
42
42
44
46
45
43
41
40
41
41
42
40
39
39
38
35
35
34
34
33
33
33
44
42
40
38
37
38
38
39
38
36
35
33
34
35
35
36
38
38
36
36
37
36
36
38
39
40
41
42
44
46
44
41
39
38
39
40
41
40
39
38
37
36
35
35
34
33
33
33
