P2
48 48 255

94
92
91
92
93
92
92
91
93
93
94
96
94
94
95
96
95
93
93
92
92
93
94
94
94
93
93
93
92
91
92
93
93
92
91
92
92
92
92
93
94
93
93
93
92
93
92
91
94
93
93
94
94
94
93
92
92
93
94
96
95
95
96
95
94
94
92
93
93
93
93
93
93
93
92
92
92
92
92
92
92
91
92
93
93
92
93
93
93
93
93
92
92
91
91
91
94
94
94
95
95
95
94
93
92
93
94
95
95
96
96
95
94
93
91
93
93
92
91
91
91
92
91
92
92
92
92
92
91
90
92
93
93
92
92
93
93
93
92
92
91
91
90
90
94
94
94
94
94
94
94
95
94
93
94
95
95
95
94
93
92
91
90
90
91
91
90
89
89
90
90
90
91
91
91
91
91
92
93
93
92
91
91
92
92
92
92
91
90
90
91
90
96
95
94
94
95
96
96
95
95
95
94
96
94
93
92
92
92
92
91
90
90
90
90
89
89
90
90
93
93
90
90
91
92
94
94
93
93
91
91
91
90
90
90
90
88
90
92
94
95
94
92
93
95
95
95
94
94
94
93
93
91
91
92
92
92
92
93
90
89
89
90
90
90
90
90
92
92
88
89
91
92
94
93
92
92
91
91
91
90
89
89
89
89
90
92
93
93
91
91
92
94
94
94
93
93
92
91
90
89
90
91
92
92
92
93
90
89
89
89
90
90
91
91
90
90
88
89
90
91
92
91
91
91
91
91
90
90
89
89
88
90
91
91
91
92
91
91
91
92
94
94
92
93
93
91
91
91
91
92
92
92
90
89
88
88
89
91
91
91
90
89
89
89
90
90
90
90
91
89
90
93
91
89
88
89
90
89
89
90
91
91
90
90
90
90
90
91
91
91
91
91
92
91
90
91
91
91
93
92
91
90
89
89
89
89
91
91
90
89
89
89
89
89
88
88
90
87
88
90
90
89
89
91
90
89
89
90
90
90
90
91
91
91
91
90
90
89
89
89
90
91
90
91
91
90
92
92
91
91
90
90
89
89
90
91
90
90
89
89
89
89
89
88
90
88
88
89
90
90
90
90
89
89
90
91
90
90
90
92
91
91
91
90
89
88
88
88
89
89
89
90
90
90
91
92
92
92
91
90
89
89
90
91
91
90
89
89
89
90
89
89
91
90
90
90
90
90
90
89
88
89
90
91
90
89
90
90
91
91
90
89
89
90
91
90
90
90
89
90
90
90
90
90
89
89
88
88
88
90
93
94
93
91
90
89
88
88
88
89
90
92
92
91
90
90
90
90
89
89
89
89
88
88
88
90
90
90
90
89
90
91
91
91
91
89
89
89
89
89
89
89
89
90
91
92
93
96
98
98
99
98
99
98
96
93
92
91
90
91
91
91
90
89
90
90
88
88
88
87
87
87
87
90
89
89
90
90
90
91
91
91
91
89
88
87
87
87
86
88
90
93
93
93
93
93
92
91
91
92
95
97
98
97
97
96
92
91
90
89
89
89
89
89
88
87
87
86
87
87
86
89
88
88
90
90
91
91
92
91
90
88
87
86
85
84
84
87
92
95
91
87
82
78
74
71
71
70
75
82
89
94
100
103
98
92
89
87
86
87
88
87
87
87
87
87
87
86
86
90
91
92
93
90
89
90
89
90
90
87
88
88
88
89
91
95
94
85
78
72
70
68
67
66
67
66
66
68
71
74
82
93
102
99
95
91
89
88
88
88
88
87
86
87
86
86
87
89
89
89
89
87
88
89
87
90
89
86
87
88
90
91
94
92
85
73
71
70
70
73
76
81
85
79
74
71
68
68
71
78
91
96
97
94
91
90
89
89
88
86
86
87
85
85
86
88
87
87
86
86
88
88
86
89
89
87
88
89
91
92
91
83
74
68
71
77
84
94
100
107
113
104
98
91
81
75
69
68
75
88
95
97
94
91
89
89
88
86
86
87
85
84
85
87
87
87
87
87
87
88
87
90
91
91
91
92
94
94
80
70
66
72
80
96
116
136
140
141
143
140
138
130
113
94
80
70
61
74
89
102
99
93
89
88
88
88
88
88
86
84
84
87
87
87
87
89
88
87
86
87
88
88
90
94
91
83
69
71
81
92
106
122
136
141
143
143
144
144
142
139
133
117
102
89
76
70
77
92
102
98
91
86
86
86
87
87
86
86
85
87
87
88
88
88
88
88
86
87
87
89
91
92
86
73
66
77
94
109
123
129
131
137
140
143
145
142
137
132
126
123
115
104
91
74
70
80
95
97
94
87
85
85
86
86
85
85
85
87
86
87
88
88
88
88
86
87
88
89
92
87
78
66
69
85
105
119
127
119
109
123
130
137
143
133
123
113
103
114
115
110
103
82
70
70
83
93
96
89
84
84
85
85
84
84
85
86
86
86
85
86
86
86
87
88
88
87
88
81
73
67
74
96
115
119
107
93
84
95
104
118
132
116
104
92
83
90
96
103
110
90
74
69
73
88
95
87
84
84
84
83
83
83
84
87
87
87
87
85
86
87
87
88
89
90
91
80
69
67
85
109
122
110
97
96
99
96
101
113
124
109
99
96
102
105
98
96
118
103
84
68
69
86
96
90
86
84
84
82
82
83
83
87
87
87
86
84
85
86
87
87
89
91
92
77
67
69
98
121
124
95
96
108
119
103
95
100
111
97
96
105
124
116
98
88
113
113
95
70
67
84
94
92
87
84
83
81
81
81
82
86
85
84
83
83
84
84
85
86
89
92
89
74
66
73
111
129
122
81
99
120
131
107
84
84
100
82
91
113
142
119
94
81
100
117
105
72
66
80
92
94
88
84
83
81
80
80
82
87
86
85
84
84
85
85
85
85
87
91
87
73
68
78
114
132
130
102
87
86
90
83
90
105
120
89
96
116
140
129
103
85
115
124
108
75
65
77
89
93
88
85
83
82
81
81
83
86
86
86
84
84
85
85
85
84
88
91
88
73
68
78
116
133
130
105
90
86
87
84
87
103
121
91
97
116
141
132
105
86
117
126
114
85
65
76
88
93
89
86
83
82
81
81
82
85
86
86
85
85
85
85
85
84
87
91
90
74
68
78
115
131
126
100
97
98
102
100
88
95
116
91
96
115
141
133
105
84
115
125
113
86
66
75
87
92
89
86
83
82
81
81
82
84
84
84
84
85
86
86
85
84
86
90
92
76
68
77
109
126
122
91
103
114
123
128
97
93
112
93
96
112
139
134
106
84
114
121
103
71
64
75
86
90
90
85
82
82
82
82
82
84
84
84
86
86
86
86
86
85
87
90
94
77
68
72
100
120
119
84
93
115
134
116
89
82
93
92
101
116
135
118
95
80
97
109
98
69
65
79
89
87
87
84
81
80
80
81
81
84
85
86
87
87
87
86
86
86
87
89
95
81
69
66
92
115
120
94
87
98
111
97
90
94
107
105
99
98
108
96
89
92
108
106
88
65
68
83
92
86
84
82
81
80
80
81
81
84
85
87
87
86
86
86
86
87
87
88
95
86
74
65
82
106
120
112
91
83
84
85
99
117
133
124
103
86
83
83
94
111
121
100
78
64
72
87
94
85
82
82
81
81
81
81
82
82
83
83
83
84
84
85
86
85
85
87
89
88
84
75
68
85
109
131
115
102
94
104
117
128
138
140
129
116
105
105
117
125
103
79
67
67
78
88
91
84
82
82
83
82
82
81
81
81
81
82
82
82
82
83
83
83
84
84
87
90
86
75
67
73
89
114
126
128
125
129
134
139
142
143
140
135
130
130
124
110
85
70
65
69
83
89
89
83
82
82
82
82
82
82
82
81
81
80
81
82
82
82
82
82
83
84
85
90
87
76
69
69
76
92
116
129
136
139
143
145
145
144
143
141
137
129
111
90
73
66
67
75
89
90
87
82
81
81
82
82
81
82
82
81
80
80
80
81
82
82
81
81
83
84
84
89
89
82
72
70
71
71
89
107
123
131
138
143
143
141
136
130
125
104
84
70
69
67
72
84
92
89
84
81
80
80
81
81
80
81
82
82
81
80
80
81
82
82
82
82
82
83
84
87
92
95
85
75
69
67
68
77
90
101
110
117
125
116
109
101
88
74
67
65
66
74
84
92
89
85
82
80
79
79
81
81
81
81
82
81
81
81
80
81
81
81
81
80
80
80
81
83
86
91
91
84
75
71
68
68
71
78
81
85
90
86
83
77
69
66
66
69
75
84
90
89
85
83
82
80
80
80
81
81
81
81
81
81
81
81
80
81
81
81
80
80
78
78
80
79
80
84
91
89
84
81
78
73
67
65
64
65
66
67
66
65
66
71
74
78
84
90
89
85
82
81
82
81
82
82
82
82
81
81
81
81
80
80
81
80
81
81
81
82
81
78
82
80
80
80
86
90
92
94
92
87
78
66
64
63
64
64
64
67
77
84
89
91
90
87
84
81
82
82
82
82
83
83
83
83
81
81
80
79
79
79
80
79
80
81
82
82
81
79
81
81
81
81
83
85
87
88
88
90
92
88
86
85
83
81
82
85
88
86
86
87
84
82
80
80
81
82
83
84
82
82
83
82
81
80
79
79
79
80
80
79
80
81
82
82
80
80
81
81
81
81
82
83
83
84
84
87
91
90
87
83
79
78
80
83
89
85
85
85
83
81
80
80
81
82
83
84
81
81
82
82
81
81
80
81
80
80
80
80
80
80
81
81
80
80
81
82
81
81
82
82
82
82
82
82
83
84
80
74
68
67
69
75
84
83
83
83
83
82
82
81
81
82
83
84
81
80
81
82
82
82
81
81
81
80
80
79
80
81
80
82
81
80
81
82
82
80
81
82
82
82
81
81
81
83
80
75
66
59
63
72
80
82
83
84
83
82
82
82
80
81
82
83
81
80
80
81
82
82
81
82
82
81
81
80
81
82
81
83
82
81
80
81
81
81
81
81
81
82
82
82
82
83
80
74
65
59
65
75
82
83
83
83
83
83
82
82
81
80
81
82
82
82
82
83
83
83
83
83
83
82
81
80
81
82
82
83
83
82
81
81
81
81
82
82
81
81
82
83
83
82
81
75
65
59
66
75
84
83
84
84
83
82
82
82
81
81
81
82
82
82
81
82
82
84
85
83
84
83
82
81
81
82
83
82
82
83
81
82
82
82
83
82
81
82
83
83
84
83
82
76
67
60
65
75
85
84
84
84
83
83
82
82
82
82
82
82
81
81
81
80
81
83
87
