P2
48 48 255

147
151
148
147
146
145
146
145
147
147
147
148
148
148
147
147
147
147
151
149
147
146
148
147
145
148
147
148
147
148
149
150
147
147
147
150
152
147
147
151
152
153
151
151
153
152
150
150
148
148
148
147
146
146
145
144
147
149
149
148
147
147
147
146
147
147
148
148
147
148
148
146
143
144
147
146
146
145
145
148
149
149
148
148
148
148
147
149
152
151
149
150
150
152
149
150
146
145
147
148
147
146
145
144
145
147
147
146
145
146
145
144
146
146
145
145
143
144
141
132
129
133
141
144
145
144
147
146
147
147
147
148
147
148
148
148
149
148
149
149
148
149
149
149
145
144
143
144
145
145
145
143
142
146
146
146
145
144
143
143
143
144
143
145
143
143
126
88
75
92
130
144
144
145
146
145
145
145
147
148
147
147
146
146
148
148
148
148
147
147
149
149
144
143
143
144
143
144
143
141
143
144
145
145
146
145
143
142
142
142
143
144
144
143
112
55
40
68
120
137
144
144
144
145
145
142
145
144
144
146
145
145
148
146
144
144
145
146
147
149
143
142
142
142
142
142
140
141
144
143
142
142
141
141
141
141
139
138
141
139
135
116
103
54
50
71
97
121
127
132
136
140
144
144
144
143
143
145
145
146
145
145
144
144
145
145
145
147
143
143
142
141
141
143
143
142
143
142
140
141
143
141
140
140
137
133
122
104
93
78
70
65
64
65
68
69
71
85
97
120
132
138
141
143
143
143
143
143
144
145
146
146
145
144
145
144
142
142
142
140
140
140
140
143
142
141
140
140
140
139
138
129
111
92
76
62
51
43
36
32
30
31
33
34
40
47
54
70
85
102
125
135
139
141
142
139
142
145
144
143
143
143
144
146
141
140
140
139
140
140
143
143
140
141
140
141
136
131
116
93
71
54
41
30
26
25
24
23
23
23
24
23
23
25
28
36
46
58
80
114
127
135
141
143
144
143
144
144
144
144
145
146
141
140
140
140
141
141
142
141
139
139
139
136
125
104
76
54
37
29
25
23
23
22
22
22
23
23
23
23
23
24
24
24
27
32
46
71
96
119
136
143
143
143
143
144
142
142
144
143
140
140
141
142
140
141
138
139
139
138
133
121
98
68
47
29
24
21
21
22
21
22
23
23
23
24
25
24
24
23
23
23
22
22
25
39
59
86
112
136
141
143
143
143
140
140
142
143
142
139
139
140
140
140
138
137
136
134
121
95
62
39
24
22
22
22
22
23
25
29
37
44
48
50
48
44
30
25
22
23
22
21
21
23
32
51
82
114
138
143
141
141
140
141
141
143
137
137
137
137
140
139
138
136
134
122
96
61
40
24
22
21
21
25
29
42
57
66
74
76
76
78
78
77
71
62
45
32
24
21
20
22
23
31
52
84
118
144
142
141
140
140
142
143
138
138
137
136
137
140
137
134
126
101
67
40
25
22
22
21
27
39
54
71
77
79
79
80
78
79
81
80
79
79
75
60
45
28
22
22
21
22
32
56
95
127
137
142
142
142
142
143
134
136
135
135
135
137
136
131
110
75
45
27
22
21
22
30
48
64
75
79
80
79
79
80
80
80
80
78
79
80
81
75
69
56
33
23
20
20
24
36
65
103
129
138
139
141
142
142
134
136
136
137
136
137
134
120
89
54
30
23
22
20
30
48
66
76
78
79
79
79
80
80
80
79
80
80
79
79
77
76
76
72
59
34
22
21
21
24
43
74
117
135
137
140
142
141
136
135
135
135
134
136
130
103
69
38
24
21
21
25
47
65
75
75
73
70
72
77
79
80
79
78
78
75
67
54
49
56
67
75
72
57
33
21
21
21
29
55
97
130
136
138
140
142
136
133
133
133
133
134
123
87
51
30
22
21
24
36
63
76
64
50
34
29
30
48
65
74
79
77
68
53
35
22
20
24
33
53
77
69
47
26
21
20
23
38
81
118
134
136
139
140
136
134
135
134
133
132
110
72
40
25
21
22
29
53
76
65
44
26
21
23
21
21
41
64
77
75
55
32
19
27
30
24
21
27
57
77
62
35
22
21
20
30
61
102
132
138
138
137
134
134
134
133
132
127
97
61
30
24
22
23
41
69
71
52
27
28
44
55
45
33
25
48
70
70
41
19
41
59
66
59
32
22
40
73
73
47
26
22
21
24
50
92
127
136
137
137
132
133
132
131
131
119
87
50
26
23
22
27
51
73
64
41
24
42
65
78
69
47
26
33
62
65
32
22
52
74
80
71
50
21
32
69
75
61
34
21
21
22
41
81
121
132
134
137
131
132
133
131
131
110
78
43
24
23
22
31
59
75
64
40
24
47
72
80
75
53
26
33
61
64
30
24
57
78
80
74
53
23
29
69
77
67
39
23
21
22
35
71
115
131
134
137
131
131
132
131
130
107
73
38
22
22
22
36
64
77
71
44
24
37
64
65
69
41
25
42
66
65
30
23
57
78
79
77
57
25
28
68
78
73
45
24
22
23
32
65
110
131
134
135
131
131
131
130
127
103
67
35
22
21
22
39
68
78
75
55
27
22
28
37
31
19
26
50
71
67
32
21
57
77
78
78
57
24
26
67
78
74
47
25
23
24
29
59
104
128
133
134
131
134
130
130
125
102
63
33
22
20
22
41
67
79
76
69
37
20
16
16
18
19
29
58
75
67
31
20
54
75
78
77
57
25
26
63
76
75
48
24
23
23
29
58
101
126
134
134
131
130
129
128
126
103
64
32
21
21
23
40
66
78
74
58
32
22
32
39
49
25
22
36
62
67
32
20
52
75
78
77
59
26
25
61
77
73
47
24
22
22
29
60
102
126
133
134
129
130
129
128
126
104
68
35
21
21
22
36
65
77
71
46
24
36
62
65
73
53
29
27
53
65
33
20
51
74
77
77
61
28
25
61
78
71
44
24
21
21
31
62
104
127
132
133
130
130
129
129
126
104
74
39
21
21
20
30
60
75
61
38
23
47
71
77
77
64
40
21
47
65
36
19
50
73
77
76
61
26
23
62
75
66
38
23
21
21
34
66
108
128
133
134
129
128
127
128
126
111
82
44
23
20
20
25
53
73
67
39
21
46
71
78
76
66
39
22
48
68
37
18
40
64
76
72
53
22
27
63
74
59
33
22
20
22
39
73
113
129
133
132
127
129
129
129
127
118
90
54
26
21
19
21
42
70
69
45
21
31
59
60
70
45
24
28
54
71
50
20
28
41
54
50
28
24
39
69
72
46
27
22
21
24
46
82
118
130
134
133
129
129
129
130
127
123
101
67
34
23
20
21
29
54
71
57
28
20
22
30
29
22
24
40
65
75
68
46
21
18
19
18
22
33
56
74
62
35
22
21
22
30
56
94
123
132
132
132
128
129
128
128
126
124
113
78
44
26
20
20
23
40
64
71
51
35
24
19
21
28
41
63
75
77
75
69
49
34
31
35
43
59
74
66
48
25
20
20
22
37
69
106
125
130
130
131
128
127
128
128
127
125
122
90
58
32
21
20
19
24
51
67
72
64
55
44
47
56
67
75
77
77
78
77
74
70
66
68
73
75
70
54
31
21
20
19
28
52
86
119
126
129
130
132
127
127
128
128
129
129
125
105
76
46
25
20
19
18
29
51
68
74
72
73
72
73
76
76
77
77
78
78
77
78
79
78
77
73
56
32
22
21
20
24
42
69
106
126
128
130
130
131
127
127
126
126
127
129
126
116
95
62
36
23
20
19
20
30
52
65
73
75
75
75
76
76
77
77
77
78
76
77
78
75
70
54
31
23
20
20
23
34
58
91
118
128
128
128
127
130
126
125
124
124
125
128
126
124
109
80
52
31
22
20
20
21
26
41
56
73
75
76
75
75
75
76
76
77
77
76
74
64
46
26
22
21
20
22
30
49
77
110
126
128
129
128
128
130
124
123
123
124
124
126
126
125
119
99
74
47
31
21
20
20
19
21
28
43
60
66
70
70
71
72
72
74
68
61
45
34
24
22
21
20
22
29
46
70
101
127
125
126
128
127
127
128
124
124
123
124
124
124
125
125
123
118
98
72
46
30
22
20
20
19
19
21
25
33
42
50
53
54
51
44
38
29
23
21
21
22
21
22
30
46
70
97
121
127
127
127
127
128
128
129
123
123
124
125
124
124
124
124
124
125
117
98
73
49
36
24
20
20
20
20
20
20
21
23
23
23
23
22
21
21
21
21
21
21
24
36
49
72
100
119
125
126
129
127
127
127
126
128
122
123
124
124
123
123
123
123
124
124
124
118
101
80
62
45
30
24
22
21
20
20
20
20
20
21
21
20
20
20
21
22
24
30
43
59
78
102
121
125
126
125
129
128
126
126
127
127
122
121
122
121
122
124
124
123
123
123
124
123
120
109
93
73
56
41
30
23
22
21
21
20
20
20
21
21
21
21
24
29
40
54
71
91
109
122
125
125
128
125
126
126
124
126
127
125
121
121
121
120
123
123
123
123
123
122
122
123
123
122
117
106
85
71
61
49
37
31
27
25
24
25
25
25
31
38
48
58
67
85
105
115
123
126
125
124
125
126
125
125
124
125
126
126
118
119
120
119
119
120
122
123
123
122
122
122
122
123
122
122
119
110
95
75
71
65
60
55
51
52
57
61
64
67
76
94
108
118
122
125
123
122
124
124
124
125
125
125
125
125
122
127
112
115
113
111
109
112
119
119
118
118
121
122
122
121
121
121
116
114
117
113
106
96
80
52
35
38
73
88
98
106
110
115
117
120
123
123
122
121
121
123
123
124
124
125
124
122
120
121
102
103
96
95
92
96
105
108
107
113
118
120
119
116
113
110
106
105
114
116
114
116
96
51
28
39
82
111
116
114
112
114
115
115
114
111
112
111
112
113
116
118
119
120
120
119
118
119
92
85
73
73
73
77
82
85
88
103
110
107
102
93
84
88
91
89
97
97
92
108
90
47
29
42
71
95
91
86
83
83
84
83
85
84
84
82
82
84
88
91
94
96
94
90
90
92
66
62
54
52
51
52
53
56
61
70
76
77
71
59
54
55
60
62
68
66
60
83
66
41
29
40
54
65
65
65
64
63
63
64
65
67
67
66
65
66
67
69
69
70
69
67
66
64
44
39
36
34
34
35
36
38
45
52
54
55
53
46
42
42
43
44
46
47
48
55
51
33
28
36
45
51
57
59
58
61
61
61
62
65
64
63
61
61
62
62
62
62
62
62
59
56
