P2
48 48 255

255
255
235
190
254
255
255
255
255
255
255
255
255
255
216
173
160
161
161
158
144
133
135
131
112
104
115
115
120
132
134
141
141
139
137
142
138
140
142
146
146
142
140
142
144
142
134
126
255
230
215
184
243
254
255
255
255
255
255
255
255
255
215
171
166
168
163
155
144
133
133
130
115
107
114
113
122
130
132
137
141
140
141
140
138
142
146
145
142
140
140
143
146
143
133
127
253
185
197
209
234
253
255
255
255
255
255
255
255
255
215
173
173
170
161
153
147
134
132
130
114
108
115
116
122
130
134
141
145
143
141
140
141
145
145
142
142
142
138
145
146
143
135
127
245
243
230
191
241
254
255
255
255
255
255
255
255
255
214
178
176
167
157
152
145
133
133
134
126
116
116
120
126
137
139
142
148
145
141
143
142
143
139
141
140
140
141
144
147
142
135
127
232
255
222
183
220
253
255
255
255
255
255
255
255
255
218
176
172
162
154
153
148
135
138
162
147
134
129
125
131
140
141
144
148
146
145
141
147
143
140
143
141
141
145
147
146
136
124
123
225
228
139
145
232
254
255
255
255
255
255
255
254
239
200
171
165
160
155
155
148
139
175
171
134
122
136
135
134
144
143
145
147
148
144
144
146
142
141
145
140
142
146
147
143
134
118
119
250
169
113
141
255
255
255
255
255
255
255
255
242
205
213
167
161
157
156
156
150
162
189
120
74
103
135
142
144
146
142
144
149
151
150
148
141
142
143
143
141
141
145
148
141
129
119
116
255
236
137
188
255
255
255
255
255
255
255
254
248
251
208
166
159
164
159
149
162
202
168
70
57
86
121
145
146
146
145
147
150
151
150
147
140
142
146
146
143
138
146
147
138
127
117
111
255
255
166
211
255
255
255
255
255
255
255
255
214
188
186
169
157
165
157
154
200
229
107
51
48
68
106
140
156
148
141
144
150
152
149
146
142
143
146
146
141
136
145
147
138
126
113
112
255
255
173
185
255
255
255
255
255
255
255
250
208
179
180
170
162
160
155
171
235
171
64
45
45
54
87
123
152
147
140
141
151
155
153
149
144
144
147
145
142
141
144
145
137
123
115
115
255
255
169
179
255
255
255
255
255
255
255
251
237
176
174
174
165
158
162
204
228
108
48
43
45
48
72
105
139
148
142
145
149
154
154
150
144
150
149
148
145
139
142
144
134
126
121
118
255
255
176
138
213
254
255
255
255
255
255
234
192
165
165
173
163
160
182
242
172
67
42
45
53
60
57
86
120
147
147
146
151
151
151
149
144
140
145
143
137
138
137
140
136
128
123
119
255
255
212
109
106
228
252
252
255
255
255
253
185
147
150
167
160
162
200
220
107
46
42
57
101
98
58
66
104
142
152
149
151
146
150
145
135
137
143
138
135
137
138
142
135
131
127
120
255
255
251
190
138
145
166
213
253
255
255
255
233
131
155
168
159
173
205
162
64
45
47
118
173
137
73
57
84
121
151
153
149
146
148
143
138
144
144
135
129
135
141
141
136
133
126
121
255
255
255
254
236
170
112
107
147
186
228
255
245
188
164
168
157
187
197
95
49
45
75
180
226
173
103
58
66
103
138
159
149
146
146
143
144
150
143
132
128
137
142
140
138
133
124
125
255
255
255
255
249
235
212
160
116
116
131
196
209
180
173
168
160
190
151
63
46
57
126
226
239
209
141
74
52
83
123
152
150
148
146
143
145
149
139
133
132
138
141
137
136
132
124
131
255
255
255
255
254
251
254
226
146
96
78
106
116
125
148
165
169
178
102
48
50
83
196
245
246
235
177
105
52
66
103
139
153
149
152
143
148
148
140
139
140
141
139
139
136
132
127
138
255
255
255
255
255
255
240
210
143
129
98
89
94
98
141
166
175
139
67
46
60
138
236
251
249
249
210
142
72
54
82
120
152
154
149
143
146
147
143
142
142
141
141
142
136
129
132
139
255
255
255
255
255
255
213
168
181
149
116
93
93
117
147
171
169
99
50
48
88
199
251
252
251
250
233
178
104
57
63
100
138
154
145
137
144
149
143
141
140
141
141
142
132
125
134
139
255
255
255
255
251
245
217
176
170
183
133
85
92
120
149
174
145
65
48
57
139
239
254
251
237
235
240
209
143
75
55
81
118
150
149
140
144
149
143
138
138
140
142
143
127
125
134
139
255
255
255
248
213
160
210
215
199
216
213
80
93
111
145
170
94
52
48
87
196
253
255
213
159
182
226
232
178
104
58
63
100
136
153
141
145
146
142
138
136
140
142
139
126
124
132
136
255
255
255
239
177
165
209
122
167
192
179
87
103
102
154
140
64
49
60
135
238
253
217
115
72
122
184
225
209
144
76
50
79
119
148
147
143
142
144
138
135
138
142
135
128
126
130
139
255
255
254
220
150
152
136
109
111
106
115
91
107
113
152
98
52
52
90
209
250
228
132
48
41
67
128
190
223
179
108
55
64
99
134
139
130
130
137
140
138
141
141
136
128
128
134
141
228
254
211
165
117
110
99
93
98
98
84
91
100
135
131
65
50
61
146
242
248
176
59
35
33
43
80
144
221
208
145
78
54
80
110
130
125
127
137
142
140
138
141
139
133
131
136
139
117
148
120
103
98
92
89
94
101
85
86
89
114
150
101
52
51
93
203
254
237
149
52
35
32
34
57
127
219
231
181
109
58
62
92
121
130
129
135
142
137
141
144
141
137
135
134
135
88
87
86
96
92
87
87
92
88
90
95
103
132
141
68
50
61
149
245
254
229
147
52
35
31
33
52
125
222
245
211
146
76
54
76
108
131
134
137
141
139
142
144
137
139
136
133
134
83
98
85
89
86
89
90
81
81
94
94
118
150
95
55
53
94
205
253
250
223
137
49
35
32
34
51
127
213
242
223
176
109
57
62
93
124
140
135
139
140
142
143
142
140
135
131
132
93
91
87
80
88
92
82
84
93
91
94
142
134
67
52
67
151
236
200
151
130
76
42
34
31
33
46
102
151
156
168
172
143
77
50
78
110
136
140
142
145
143
146
143
139
134
131
126
96
82
94
89
88
95
80
81
85
90
111
153
102
53
55
97
216
226
135
71
58
51
43
34
31
32
37
49
57
69
120
194
177
109
53
62
93
127
144
140
142
144
146
145
139
131
119
119
93
77
93
84
89
93
85
82
82
91
137
134
68
52
65
154
247
224
162
130
129
103
49
35
32
32
35
50
91
126
172
230
209
145
75
53
77
112
142
141
140
144
143
147
141
124
115
114
88
83
85
78
88
90
81
75
79
112
154
98
58
56
101
210
255
251
240
239
220
146
52
35
31
32
46
107
193
226
241
246
237
181
108
58
62
96
131
143
142
144
145
144
136
123
117
116
85
78
82
76
88
79
86
81
83
135
146
68
54
68
153
251
255
255
255
254
237
151
53
35
31
33
49
121
224
248
252
250
246
212
146
76
52
77
111
139
140
140
142
140
131
121
118
116
85
76
74
76
88
87
84
76
101
152
94
56
56
97
214
254
255
255
255
255
236
147
53
36
39
41
51
122
224
251
254
248
249
233
181
108
56
61
93
126
141
136
136
137
128
121
118
113
95
85
72
77
83
81
87
86
134
135
65
53
68
152
246
255
255
255
255
255
234
148
55
58
101
97
63
124
222
252
254
253
251
245
209
145
75
48
76
109
137
134
134
136
130
119
115
109
89
80
74
78
76
83
86
104
146
100
53
55
103
218
254
255
255
255
255
255
236
149
83
157
204
164
113
137
224
252
254
252
251
250
234
179
108
52
60
92
126
135
134
135
130
119
110
107
84
81
77
80
73
84
93
132
138
64
50
64
161
249
255
255
255
255
255
255
239
175
166
236
247
217
174
175
229
250
249
250
249
245
246
204
143
73
50
74
108
135
135
132
128
118
110
114
83
85
77
76
73
85
118
161
101
54
52
103
208
255
255
255
255
255
255
255
246
233
246
254
253
247
226
226
245
251
250
249
247
246
245
226
176
103
53
58
90
123
136
130
127
120
113
101
84
85
70
77
73
92
150
149
66
52
63
154
246
255
255
255
255
255
255
255
255
255
255
254
252
251
247
247
249
248
250
245
246
245
245
237
204
135
68
46
73
108
134
135
127
101
68
47
84
78
76
82
74
110
158
98
55
53
75
138
161
167
165
160
160
159
155
155
155
155
156
148
147
151
151
151
151
149
150
153
155
154
159
159
141
97
56
41
57
90
123
133
109
68
40
35
83
75
76
82
82
136
130
65
50
51
56
62
63
64
64
63
61
63
62
60
62
64
62
59
58
58
56
56
55
56
53
54
55
56
56
55
54
46
40
39
42
73
107
129
108
67
38
35
80
74
79
80
97
141
102
51
50
52
53
52
51
52
52
50
50
50
51
51
50
52
52
48
47
45
44
42
42
43
42
42
42
42
41
41
40
40
39
40
40
58
92
126
114
74
46
38
71
71
83
86
106
133
99
53
54
55
56
56
56
58
58
57
57
57
59
58
60
61
59
56
54
51
50
50
49
48
47
47
46
44
44
43
44
43
42
41
42
53
86
133
119
81
53
42
74
72
78
84
101
128
141
139
138
141
143
144
144
145
147
151
151
153
153
153
155
155
154
147
141
135
135
134
132
131
128
123
120
118
116
117
113
113
113
112
109
120
148
143
121
89
59
47
73
79
80
88
91
111
132
146
154
150
151
151
151
152
157
167
170
165
165
163
165
159
143
125
118
115
121
134
144
138
132
121
112
112
126
138
137
138
143
151
149
145
145
136
119
91
63
50
90
90
85
81
82
83
90
99
100
90
90
96
100
114
115
139
135
131
130
131
129
115
93
80
76
72
77
97
98
82
65
55
57
69
95
113
117
118
126
136
132
130
133
137
122
93
67
53
104
86
88
79
78
82
82
92
83
78
80
89
98
100
104
128
128
126
126
127
124
110
91
92
94
78
73
65
56
49
50
56
58
61
90
111
117
118
120
129
128
130
134
135
124
96
69
55
97
86
85
91
78
83
83
83
82
86
90
100
109
110
109
127
126
122
122
125
122
111
97
102
105
89
72
57
51
51
50
46
44
53
86
111
114
115
119
128
132
131
137
135
123
96
72
60
104
99
101
92
80
80
80
81
84
90
93
97
110
104
106
128
124
121
123
122
114
101
97
107
112
98
75
58
44
40
39
43
53
69
92
111
114
115
123
132
131
130
136
136
120
97
75
63
