P2
24 24 255

122
116
109
105
101
105
111
116
126
133
138
144
147
144
141
134
122
109
96
90
88
96
104
112
116
109
104
103
109
115
122
136
151
165
175
184
186
186
181
172
158
142
125
106
91
84
91
101
108
103
103
109
118
133
151
171
193
209
217
222
225
225
223
217
205
187
161
135
113
96
84
90
101
104
110
120
139
160
189
214
226
234
239
243
245
245
243
241
235
223
206
177
146
114
97
83
100
108
119
140
169
197
218
227
232
238
247
250
250
250
249
244
230
218
210
200
177
147
113
91
101
111
136
161
193
217
217
205
210
232
249
253
253
252
240
213
190
178
177
180
184
164
139
104
105
122
154
182
207
216
196
177
186
218
248
254
253
245
208
169
154
151
152
156
163
173
154
121
108
138
166
198
218
212
183
170
178
209
239
254
252
228
174
146
152
163
165
160
154
164
171
140
118
150
182
210
218
205
182
172
186
212
235
253
251
212
155
151
185
206
201
174
157
162
178
164
129
162
195
213
210
190
175
175
198
223
234
253
251
202
141
160
217
238
232
198
159
157
187
181
139
175
208
212
192
175
165
174
199
221
237
253
250
200
138
166
229
248
246
211
159
156
191
193
145
179
214
206
174
149
135
138
160
190
225
251
249
197
137
168
232
251
249
216
156
152
194
201
147
181
213
199
159
130
106
100
107
132
184
231
245
195
134
165
232
251
249
217
155
151
194
206
146
180
205
182
152
133
129
125
118
111
136
201
230
190
130
159
230
252
250
217
155
147
190
206
139
172
187
168
154
156
176
194
179
134
122
170
214
185
128
154
229
251
248
217
156
147
185
202
132
161
171
159
156
176
202
229
223
167
126
156
206
182
126
143
221
247
243
212
154
143
179
193
123
148
158
149
154
178
208
228
222
170
132
157
207
192
134
133
201
234
228
201
148
139
173
180
107
135
143
140
142
162
186
202
190
151
128
172
221
213
153
130
158
191
194
166
136
141
168
164
92
124
138
138
133
136
145
147
135
126
143
197
237
232
187
140
129
136
138
134
130
152
162
141
75
100
128
138
137
134
131
132
127
144
188
228
245
244
221
180
149
137
134
141
154
161
154
115
68
82
108
138
153
156
157
165
182
203
226
245
250
248
242
224
200
183
178
176
173
164
133
87
66
68
86
114
146
174
190
205
218
231
241
247
248
248
245
239
229
221
209
196
178
141
96
61
71
64
63
86
115
147
177
199
212
224
233
235
238
238
235
231
224
215
201
176
141
99
64
54
77
68
60
62
81
106
134
158
181
194
207
214
216
216
214
209
196
182
159
127
90
60
53
58
