P2
24 24 255

41
37
33
30
28
28
29
33
42
51
60
66
70
68
62
49
40
33
26
22
24
29
34
37
37
32
30
28
29
32
41
49
62
75
90
102
107
107
99
86
68
55
43
30
23
23
27
34
34
30
29
31
36
46
58
74
94
112
132
146
153
155
151
137
114
94
72
54
37
24
23
28
29
29
30
35
49
65
85
107
135
161
180
193
197
199
197
185
170
144
111
82
58
39
25
24
28
29
35
48
65
84
109
141
175
197
214
222
226
228
226
216
201
179
151
117
83
55
38
25
28
32
44
60
78
101
131
160
181
200
222
235
239
238
230
218
199
186
166
139
106
72
50
32
29
37
51
68
90
119
143
156
162
175
199
225
238
232
217
194
175
163
151
141
119
91
65
43
32
42
59
80
108
134
151
152
147
145
165
197
219
214
188
163
152
148
144
136
125
109
83
55
37
51
71
99
130
154
166
166
159
145
142
165
193
192
165
148
152
158
155
142
129
121
107
77
41
61
86
120
149
164
175
181
178
161
141
144
175
176
152
145
169
188
185
163
137
133
125
97
47
72
103
144
163
159
167
167
167
148
136
144
172
169
142
143
186
214
210
184
145
144
144
116
52
82
122
163
167
153
136
125
120
117
116
147
174
168
138
143
193
222
222
194
150
148
153
132
55
92
132
172
173
150
114
92
83
80
92
137
172
167
134
143
196
225
226
200
153
150
162
142
55
92
134
169
172
149
120
102
92
85
84
117
158
159
131
140
195
227
225
200
155
150
163
143
51
84
123
159
169
158
148
145
147
131
110
106
139
141
122
139
193
229
227
199
154
148
158
140
43
73
110
146
164
163
169
179
189
175
135
108
125
131
120
131
185
221
217
192
149
146
149
128
36
59
93
126
151
159
165
179
190
175
140
118
133
141
127
125
160
198
197
174
138
136
134
110
28
43
74
107
135
144
147
156
152
144
134
136
163
172
151
128
131
153
156
142
128
125
116
90
24
36
60
88
120
136
134
126
124
128
142
168
198
211
188
156
128
125
127
128
127
121
99
69
24
28
43
72
102
132
144
147
150
158
176
206
228
238
227
200
172
151
148
145
135
111
85
50
24
23
32
56
90
121
151
174
192
204
220
235
245
247
246
237
219
202
185
163
137
103
62
32
25
21
24
38
64
101
139
177
205
224
237
242
245
246
246
240
233
214
188
156
115
72
40
23
28
23
21
25
40
66
97
134
170
195
214
225
230
231
226
218
201
179
150
110
72
41
23
17
31
26
23
20
24
37
59
80
111
139
162
177
185
188
182
169
148
121
88
58
36
21
17
19
