P2
24 24 255

33
48
58
72
88
106
125
147
166
177
189
193
196
198
194
181
155
126
81
36
17
12
9
13
46
59
75
96
117
142
168
189
206
216
229
233
234
233
231
217
184
133
66
17
9
7
8
11
58
76
95
121
146
173
195
213
229
239
245
247
248
246
240
222
181
111
49
10
2
1
1
4
70
94
117
138
160
174
191
201
215
230
245
249
250
247
228
195
137
72
27
8
0
0
1
3
86
103
121
141
144
144
144
146
164
192
220
242
244
229
195
139
75
36
10
4
1
0
1
5
96
113
126
131
121
112
98
96
102
132
173
217
226
184
135
75
36
9
1
0
1
1
6
13
106
121
129
117
102
99
85
66
63
76
113
154
163
125
71
33
9
1
0
0
0
2
12
25
119
131
121
112
105
100
96
73
48
48
61
84
88
66
30
7
1
0
0
1
1
7
21
54
129
138
118
102
100
113
127
119
74
42
37
36
32
17
5
0
0
0
1
1
5
17
36
87
148
151
113
96
96
109
148
151
94
40
15
10
8
3
0
0
0
3
6
15
21
32
57
101
164
152
117
86
77
87
120
118
76
34
7
3
1
0
0
0
0
7
22
30
39
43
68
109
181
171
123
83
54
48
60
56
37
12
2
0
1
0
0
0
1
18
56
77
66
55
73
108
191
183
136
85
42
27
21
24
12
1
0
0
2
0
0
0
6
52
113
147
102
75
79
108
190
184
130
82
37
15
9
7
0
0
0
0
1
0
0
1
27
112
185
190
129
78
77
109
171
165
116
71
34
14
3
1
0
0
0
0
0
0
0
2
56
150
215
203
141
84
78
104
157
142
108
71
32
6
5
4
0
0
0
0
0
0
0
8
73
164
224
199
141
83
81
99
144
132
93
59
22
4
5
4
1
0
0
0
0
1
2
13
62
142
202
177
123
80
79
98
125
104
71
34
13
1
5
2
1
0
0
1
10
22
18
13
40
94
129
128
94
70
77
99
104
78
45
20
4
0
1
0
0
0
1
19
67
75
63
28
27
36
55
56
56
63
71
100
58
44
27
8
1
0
0
0
0
1
17
71
140
168
127
84
40
27
28
34
50
66
85
115
29
25
15
3
0
0
0
1
1
21
72
141
198
222
203
153
104
63
58
60
79
99
118
129
10
9
5
0
0
0
1
4
26
81
146
197
229
243
241
217
187
153
141
133
139
148
152
132
1
4
3
0
0
4
5
27
79
148
199
224
245
251
249
241
230
222
216
199
186
171
146
108
1
0
1
0
1
4
25
57
130
187
216
236
245
247
247
247
239
227
216
203
175
147
113
79
