P2
24 24 255

89
86
87
88
88
93
93
88
76
59
49
42
37
39
57
96
102
98
92
90
90
87
86
90
90
86
84
85
92
92
92
79
66
57
67
74
57
41
45
71
103
103
98
92
88
89
88
89
93
87
84
86
91
92
92
75
62
68
99
119
103
65
42
57
90
106
104
95
89
87
88
89
89
89
86
87
89
95
81
65
57
84
127
163
160
109
58
44
68
107
107
99
91
86
85
82
91
89
86
89
94
92
72
56
65
108
156
198
201
163
93
45
49
87
109
103
90
88
84
81
88
86
87
89
96
82
64
51
85
134
182
221
230
203
138
66
45
62
99
107
96
86
83
83
86
87
93
90
90
68
53
57
106
161
204
233
244
232
185
105
50
47
79
104
102
89
86
83
88
88
91
91
80
58
47
76
133
186
224
241
249
248
218
153
69
42
54
96
104
95
87
83
89
92
93
87
67
51
54
98
161
200
222
229
241
246
238
194
112
50
39
71
98
101
91
84
87
91
94
80
57
47
73
130
182
206
199
171
180
211
235
222
159
74
42
47
86
104
95
88
90
93
93
67
50
52
95
157
192
196
153
100
89
136
196
228
198
118
52
39
63
96
100
89
94
96
81
52
41
69
127
179
196
166
99
52
35
63
139
203
219
166
81
42
40
80
104
92
94
90
67
46
45
90
158
199
195
133
70
27
15
26
92
181
227
206
129
58
37
52
96
100
98
81
55
42
62
127
187
218
196
119
56
19
6
12
69
161
221
226
174
83
40
38
70
102
95
65
43
39
85
157
206
220
189
106
43
13
3
6
49
136
198
226
203
130
55
35
49
91
81
52
36
55
125
179
203
199
154
76
28
9
2
3
23
88
145
193
211
173
89
43
35
65
66
43
40
84
155
179
161
134
93
48
21
4
1
1
9
44
87
139
194
201
141
63
36
40
53
38
53
122
188
197
160
130
97
62
27
9
2
3
16
63
108
152
196
222
192
103
46
33
44
36
82
159
212
230
220
207
165
92
46
15
4
6
36
112
167
207
232
241
225
158
69
37
37
50
123
190
227
245
248
243
210
120
59
28
17
19
52
146
213
243
250
251
240
205
119
47
35
79
161
213
236
249
252
249
222
135
70
48
39
39
71
160
224
248
252
252
248
228
171
77
44
118
188
224
244
250
252
250
227
144
94
93
92
80
97
176
231
249
252
252
251
240
209
126
75
153
207
232
247
250
251
250
233
161
135
160
178
149
135
188
236
249
250
250
250
243
224
172
112
179
213
233
243
246
246
246
236
188
183
216
228
210
182
209
238
243
244
243
241
235
224
192
