P2
24 24 255

81
82
85
88
80
80
91
111
130
151
171
183
185
180
165
145
114
90
74
70
79
82
82
80
82
84
86
83
81
94
113
132
154
170
176
167
168
182
186
174
152
124
94
79
73
79
84
81
81
83
82
82
91
115
135
159
175
178
155
133
129
148
180
190
181
159
129
99
80
74
79
80
83
79
80
91
114
134
159
179
179
154
122
96
88
102
142
179
194
186
163
134
102
81
74
78
77
77
89
111
131
155
179
183
155
120
89
65
54
64
92
139
177
195
187
165
134
104
83
72
75
88
106
129
152
172
182
161
124
90
61
41
33
39
56
91
136
175
193
188
165
135
105
83
84
104
128
151
169
179
161
125
92
62
39
25
20
24
34
54
86
130
171
189
186
168
139
106
103
128
151
172
181
162
125
95
63
39
23
17
16
18
22
32
48
80
125
167
187
189
170
141
127
154
172
180
169
129
98
66
40
25
18
15
16
16
15
18
27
46
76
122
164
184
186
169
153
173
181
168
132
100
71
43
25
16
14
15
15
13
11
10
13
24
44
72
120
159
181
187
176
184
170
136
101
70
46
27
15
12
12
15
14
12
11
10
10
13
25
44
73
118
161
184
191
179
140
107
76
48
29
15
9
10
13
15
14
11
11
11
11
11
13
26
46
80
125
173
192
159
119
85
55
34
21
10
8
11
15
15
16
13
12
12
12
9
11
17
34
66
109
163
192
157
114
81
53
32
18
9
9
12
13
12
13
11
12
12
13
10
11
19
37
73
124
173
193
177
135
95
64
37
20
11
9
12
9
9
8
7
8
9
11
13
17
30
58
105
157
186
180
187
172
131
89
58
33
17
12
11
8
7
6
6
6
7
10
17
28
55
97
148
181
190
152
175
185
171
130
88
57
33
21
14
11
10
9
9
8
10
15
27
53
95
144
178
189
178
122
147
173
181
171
135
93
61
39
24
16
14
12
11
11
16
27
52
93
140
177
189
175
148
87
114
144
169
181
175
142
98
65
42
26
20
19
18
21
30
49
90
140
176
189
179
150
111
69
81
109
140
166
180
176
146
105
68
45
31
25
25
31
52
89
136
175
190
180
153
114
75
66
66
77
104
136
164
181
176
148
105
70
48
35
33
48
83
135
177
192
184
159
118
78
57
71
65
65
75
101
131
163
183
178
151
111
75
55
58
81
131
172
191
185
163
124
81
56
57
69
70
64
63
73
97
130
159
179
178
155
118
92
94
126
169
188
185
162
124
84
57
55
62
69
67
67
63
62
71
93
124
155
175
176
161
140
144
166
180
179
161
125
83
55
53
60
63
