P2
24 24 255

76
98
110
117
122
124
126
126
129
130
131
134
135
138
139
141
141
142
142
142
142
143
142
134
77
120
141
154
160
162
164
165
167
169
171
174
175
177
177
180
181
181
182
183
182
182
175
150
63
122
159
178
190
195
200
201
202
203
206
206
206
208
208
208
208
209
210
209
209
207
194
140
44
105
162
196
214
222
225
227
228
228
230
230
229
230
231
231
233
232
233
233
231
225
195
114
23
77
149
199
226
239
243
246
245
245
246
246
246
246
247
247
247
247
246
246
243
231
176
82
12
44
113
186
224
244
251
252
253
253
253
253
253
253
253
254
253
254
253
252
247
219
138
49
12
19
72
155
212
238
250
253
254
254
254
254
254
255
254
254
254
254
254
253
242
188
92
27
13
11
34
109
188
228
246
253
254
254
254
255
255
255
254
255
254
254
254
250
223
143
52
14
24
10
15
63
146
209
237
251
254
254
255
254
255
254
254
255
254
254
253
242
191
97
31
11
37
15
10
29
99
178
226
245
253
254
255
254
255
254
254
254
254
254
250
225
146
59
18
10
49
24
11
17
54
136
205
236
249
254
255
255
254
254
255
254
254
253
241
195
99
35
12
17
58
40
17
10
25
87
170
222
244
252
254
254
254
254
254
254
254
251
225
151
62
18
12
27
63
51
26
9
13
44
125
197
233
249
253
255
254
254
254
254
253
241
194
102
36
12
16
40
63
60
40
18
8
21
73
160
216
242
252
254
254
254
254
254
249
223
152
63
20
10
24
47
60
60
51
28
10
11
35
109
188
230
247
253
253
254
254
253
240
195
104
39
12
14
40
55
59
61
57
40
21
10
16
62
146
210
239
250
253
254
253
248
222
152
66
21
11
25
50
59
58
61
65
57
35
14
11
30
97
177
227
246
252
254
251
237
195
106
41
13
15
41
57
63
63
63
64
63
47
26
10
16
52
134
204
236
248
252
246
220
153
70
22
12
26
48
61
63
65
64
64
64
57
38
16
11
26
84
166
222
241
246
235
190
111
45
15
14
39
58
62
63
68
69
67
65
61
48
26
9
15
43
121
192
230
237
216
152
71
24
10
24
48
62
64
65
68
67
66
66
63
57
37
17
9
20
68
148
203
216
184
109
44
14
14
37
56
63
62
65
67
66
65
64
63
59
50
29
10
12
33
100
164
182
141
70
25
10
25
47
59
63
63
66
67
66
64
64
64
59
55
40
18
8
18
53
114
136
92
41
14
13
36
52
64
64
65
68
67
66
64
64
62
61
57
52
29
13
11
26
59
75
46
20
8
21
43
59
62
64
64
66
