P2
24 24 255

149
117
94
72
54
39
29
22
18
14
12
13
14
13
14
15
15
17
19
29
45
64
90
117
117
95
75
55
39
26
17
10
6
4
4
2
3
3
4
6
7
9
10
16
26
44
65
87
98
77
58
41
27
13
6
3
2
1
0
0
2
3
6
5
4
5
7
11
18
25
42
65
76
60
43
30
15
8
2
2
1
1
1
1
3
5
6
4
4
6
7
9
12
18
29
46
68
51
37
20
9
6
6
6
7
7
6
5
5
9
14
18
13
11
8
12
22
39
51
63
77
67
45
25
20
34
49
57
64
65
61
39
25
46
71
93
91
56
27
27
66
105
120
131
130
126
101
77
79
109
139
154
164
167
156
112
87
126
161
177
175
145
89
65
115
164
180
180
184
184
175
147
137
155
179
202
215
209
183
139
143
187
204
206
215
202
148
105
149
208
210
181
182
191
213
194
160
143
163
217
236
199
153
127
174
220
210
183
209
223
183
137
173
223
216
169
165
173
203
198
144
107
130
199
229
185
123
103
176
231
208
153
194
228
197
152
179
227
221
165
163
153
155
141
101
71
89
178
223
183
108
84
169
234
207
139
179
228
206
156
177
228
224
176
187
162
136
109
73
47
71
156
217
182
99
72
161
233
211
135
171
228
211
156
177
228
235
222
206
204
191
147
91
49
61
144
214
184
97
64
154
232
215
135
167
227
213
155
172
228
241
231
176
200
216
197
140
75
65
145
212
185
97
60
146
230
217
138
159
224
215
158
170
225
233
194
106
146
198
213
170
105
75
146
214
187
107
59
143
228
220
142
156
225
215
159
164
222
218
148
79
101
174
210
183
115
82
144
213
192
110
60
133
224
221
152
158
222
214
159
159
215
206
122
114
119
182
216
183
119
80
137
210
191
109
57
119
211
231
189
196
224
204
149
149
209
197
115
176
176
209
219
179
106
72
129
199
185
104
47
81
186
235
236
231
220
176
114
119
187
181
107
204
210
214
196
145
82
49
110
180
164
84
28
32
113
187
212
206
170
112
56
62
128
133
76
172
179
166
133
86
45
28
62
105
98
45
8
8
25
72
113
107
79
41
17
21
41
48
30
95
93
83
57
34
19
13
14
20
17
7
1
1
3
8
18
17
11
5
1
3
8
11
14
68
58
43
32
19
13
9
8
8
7
4
0
0
0
0
0
0
0
0
0
0
3
9
18
88
66
51
36
24
14
10
9
8
8
7
1
0
0
0
0
0
0
0
0
3
6
17
32
112
88
67
51
32
21
13
11
9
9
7
5
3
2
0
0
0
0
1
3
6
15
30
56
