P2
24 24 255

61
63
73
84
102
127
142
153
156
163
174
176
176
180
167
150
127
101
85
65
55
45
41
33
64
70
84
104
127
144
153
164
183
191
207
212
215
216
201
172
135
112
87
66
49
38
38
36
64
80
106
127
144
164
184
201
216
226
234
240
240
230
215
189
146
107
84
62
41
35
28
30
78
102
127
143
168
188
216
234
240
245
248
246
242
226
204
165
130
99
72
43
39
31
24
22
94
121
143
170
192
228
239
248
252
252
250
249
227
204
172
133
105
79
55
36
27
18
15
16
111
136
164
188
225
244
251
254
251
253
248
235
211
174
133
107
82
54
30
18
15
14
10
20
127
157
181
220
244
253
255
254
255
251
233
212
178
134
106
74
52
25
16
12
4
2
14
38
138
169
207
240
252
254
255
254
254
234
207
175
135
100
68
45
25
13
6
3
6
12
39
71
149
186
221
247
255
254
255
251
234
215
173
126
92
66
40
20
5
2
3
6
13
44
81
95
164
201
238
252
254
254
252
240
214
165
121
84
53
31
9
4
0
1
6
9
44
87
119
131
173
217
246
253
255
253
239
209
170
123
82
39
15
5
1
0
0
4
8
36
84
126
149
165
179
221
247
255
248
238
200
168
120
78
41
13
2
1
0
0
2
11
33
81
126
156
181
197
181
220
245
247
235
200
165
111
70
38
10
1
0
0
0
1
7
29
68
126
160
186
209
206
180
219
233
228
201
165
117
66
32
10
1
0
0
0
0
4
26
68
133
174
195
218
230
223
173
207
214
196
158
107
67
33
9
0
0
0
0
0
3
12
59
130
178
205
223
236
239
228
161
189
185
162
117
69
33
17
2
0
0
0
0
2
11
55
118
178
215
235
242
240
236
220
136
149
148
115
74
37
12
4
0
0
0
0
4
19
51
115
185
220
236
245
246
246
232
214
102
113
102
70
37
13
3
0
0
0
0
6
24
60
129
189
221
234
244
243
242
235
227
207
76
79
66
42
22
4
0
0
0
0
10
28
60
141
203
223
233
247
244
243
238
233
223
182
55
43
29
20
11
0
0
0
4
14
31
74
143
207
231
241
240
241
236
232
231
224
207
159
30
24
22
12
2
0
2
7
20
39
73
142
201
228
237
244
243
239
234
227
220
206
180
128
21
16
14
5
3
5
10
21
38
74
132
197
232
240
241
241
240
232
228
222
208
180
145
109
18
15
9
9
6
9
18
39
65
126
179
224
236
239
240
239
236
229
217
193
177
135
115
84
20
17
11
10
9
15
19
55
105
159
206
221
227
222
230
224
217
198
184
160
129
106
80
64
