P2
24 24 255

79
76
77
71
66
55
48
43
38
33
29
26
26
25
25
29
34
37
45
53
63
75
83
93
75
75
73
73
68
53
39
31
25
23
18
18
17
16
20
22
23
24
30
35
46
58
69
81
78
77
82
88
85
71
51
29
21
18
16
13
11
13
15
18
18
17
19
22
28
41
55
67
76
83
97
112
112
99
78
49
29
22
17
11
11
11
16
18
17
15
14
15
17
26
40
53
71
84
109
129
141
136
117
89
53
32
20
12
12
14
16
17
17
13
11
9
10
18
28
43
65
77
100
137
162
171
164
136
100
57
35
20
15
14
15
18
17
15
13
10
10
13
19
30
58
67
87
124
165
190
194
180
151
108
59
35
20
16
14
14
15
19
25
23
15
13
15
22
49
51
68
99
144
188
207
210
194
163
115
62
35
19
14
12
16
29
54
60
46
25
16
17
39
36
43
65
106
155
205
224
224
205
170
120
63
30
15
12
16
40
87
119
94
53
26
17
29
25
24
35
61
106
163
213
231
233
214
180
126
62
27
18
21
52
118
160
144
92
45
22
24
18
12
16
30
54
104
164
214
236
239
223
189
130
66
32
30
67
136
189
182
135
71
28
22
13
7
6
9
22
48
96
166
216
238
241
229
199
139
73
51
82
150
205
209
162
93
35
19
11
5
3
2
5
14
39
90
164
216
236
243
233
205
153
103
105
162
218
225
179
105
43
18
11
5
2
2
2
3
11
31
81
156
212
237
244
236
213
174
152
186
227
234
191
115
47
18
9
4
2
0
1
2
2
10
27
73
143
210
238
247
241
224
205
212
239
237
199
124
53
18
9
5
2
1
1
1
1
3
8
23
70
143
208
236
247
246
241
241
247
240
203
129
56
20
12
6
3
2
1
2
1
3
7
16
38
86
152
208
235
246
249
252
251
242
206
134
60
23
15
8
3
2
2
3
5
12
24
41
58
82
121
182
222
240
249
254
252
241
207
137
64
30
17
10
5
2
2
6
17
40
67
89
112
131
153
187
227
243
251
253
249
237
204
137
64
35
22
14
8
3
2
10
34
68
113
150
181
201
217
231
245
249
249
249
242
228
191
127
60
41
28
19
10
6
3
7
25
65
113
159
191
212
225
233
236
235
233
227
218
200
165
103
51
46
33
23
13
8
4
3
11
31
71
116
152
172
182
188
185
182
177
169
159
147
122
81
45
51
40
29
18
13
8
5
5
10
26
54
77
92
101
103
102
102
98
97
93
84
70
52
42
55
47
36
29
19
15
10
8
6
6
11
18
24
29
30
31
31
32
35
34
36
37
38
45
