P2
24 24 255

27
23
32
26
20
13
10
11
22
29
27
25
18
15
8
4
1
1
0
3
7
9
11
15
21
25
27
20
15
11
5
12
23
15
26
22
16
15
13
1
1
0
1
17
29
23
7
20
22
17
17
15
13
9
4
9
22
15
23
20
15
14
14
5
5
6
10
47
58
59
39
28
19
12
12
13
7
4
7
11
23
28
26
22
14
15
20
9
14
13
51
83
107
109
90
52
17
15
8
3
3
7
13
12
15
19
26
22
17
22
18
18
19
55
107
142
162
153
108
77
17
10
5
0
0
6
21
15
15
26
27
23
19
16
21
29
72
125
167
205
202
156
110
88
9
6
3
4
15
25
21
17
11
16
18
16
18
28
31
72
140
189
219
229
193
143
98
67
8
3
9
21
27
31
33
23
13
16
18
20
31
37
80
153
208
231
239
209
167
120
71
41
6
1
19
28
43
54
51
36
23
18
19
28
37
87
154
216
239
242
217
180
140
76
39
15
6
9
37
60
94
111
103
72
42
32
30
40
108
166
224
243
247
227
188
142
81
38
7
0
7
28
76
107
147
158
142
109
69
49
56
107
173
225
246
247
231
196
139
77
31
7
1
0
10
46
91
129
166
185
159
131
98
96
119
183
226
247
252
235
195
139
72
23
7
0
0
0
17
55
102
149
176
196
177
162
144
149
184
234
247
253
241
199
145
69
21
10
1
0
0
0
21
63
104
152
179
200
198
198
188
207
233
247
253
246
202
142
59
21
12
3
0
1
0
0
27
65
109
158
187
204
207
211
217
244
250
255
244
199
130
63
20
13
8
2
0
0
0
0
33
63
109
159
191
206
213
220
239
250
254
245
200
130
64
23
14
6
7
2
0
0
0
2
36
70
111
161
195
214
217
223
238
252
246
200
145
88
41
20
13
7
3
1
0
3
2
2
40
74
112
164
195
216
223
224
227
243
208
169
133
90
73
50
36
23
8
0
1
2
5
5
50
79
116
164
196
215
223
223
223
227
200
168
154
140
118
99
78
47
15
0
0
6
5
4
59
85
116
165
192
209
218
216
218
221
230
230
223
212
191
167
133
73
9
0
1
3
3
5
59
86
114
159
178
199
210
204
201
203
223
221
219
211
197
174
128
41
6
2
1
4
4
7
47
60
90
131
153
164
168
175
165
170
180
180
180
174
161
130
58
18
3
0
0
0
3
8
33
29
42
78
94
102
113
119
123
125
127
123
116
102
78
45
16
2
0
0
2
3
4
8
39
31
25
28
38
40
39
39
35
31
29
34
31
20
14
7
4
1
3
6
3
3
7
10
